<svg width="72.000000" height="77.142822" viewBox="0 0 72 77.1428" fill="none" xmlns="http://www.w3.org/2000/svg" xmlns:xlink="http://www.w3.org/1999/xlink">
	<desc>
			Created with Pixso.
	</desc>
	<defs/>
	<path id="Vector" d="M30.8572 25.7142L30.8572 22.378C30.8572 21.8126 30.9815 21.254 31.2214 20.7419C31.4612 20.2299 31.8107 19.7769 32.2451 19.4149L37.7838 14.7992C38.2927 14.3751 38.9342 14.1428 39.5966 14.1428C39.9685 14.1428 40.3368 14.216 40.6804 14.3583C41.024 14.5006 41.3362 14.7092 41.5991 14.9722C41.8621 15.2351 42.0707 15.5473 42.213 15.8909C42.3553 16.2345 42.4286 16.6027 42.4286 16.9746L42.4286 22.032C42.4286 22.7917 42.279 23.5441 41.9882 24.2461C41.6974 24.948 41.2713 25.5858 40.734 26.1231L38.5715 28.2856L38.5715 33.8142C38.5715 34.4708 38.3886 35.1145 38.0435 35.6731C37.6982 36.2317 37.2043 36.6831 36.617 36.9768L33.4286 38.5714L30.8572 38.5714L30.8572 25.7142Z" fill="#E08122" fill-opacity="1.000000" fill-rule="nonzero"/>
	<path id="Vector" d="M12.8572 25.7142L12.8572 22.378C12.8572 21.8126 12.7328 21.254 12.493 20.7419C12.2531 20.2299 11.9037 19.7769 11.4693 19.4149L5.93042 14.7992C5.42154 14.3751 4.78012 14.1429 4.11771 14.1428C3.74582 14.1428 3.37756 14.216 3.034 14.3583C2.6904 14.5006 2.3782 14.7092 2.11523 14.9722C1.85226 15.2351 1.64365 15.5473 1.50134 15.8909C1.35901 16.2345 1.28577 16.6027 1.28577 16.9746L1.28577 22.032C1.28577 22.7917 1.43539 23.5441 1.72617 24.2461C2.01691 24.948 2.44308 25.5858 2.98035 26.1231L5.14291 28.2856L5.14291 33.8142C5.14288 34.4708 5.32571 35.1145 5.67093 35.6731C6.01611 36.2317 6.51004 36.6831 7.09735 36.9768L10.2858 38.5714L12.8572 38.5714L12.8572 25.7142Z" fill="#E08122" fill-opacity="1.000000" fill-rule="nonzero"/>
	<path id="Vector" d="M32.1419 31.2856C31.9032 31.2855 31.6693 31.2189 31.4663 31.0933C31.2634 30.9677 31.0994 30.7881 30.9927 30.5745C30.886 30.361 30.8409 30.122 30.8624 29.8843C30.8839 29.6465 30.9711 29.4195 31.1143 29.2286L36 22.7142L36 20.5714C36 20.2303 36.1355 19.9033 36.3766 19.6622C36.6177 19.4211 36.9448 19.2856 37.2857 19.2856C37.6267 19.2856 37.9538 19.4211 38.1949 19.6622C38.436 19.9033 38.5715 20.2303 38.5715 20.5714L38.5715 23.1428C38.5715 23.421 38.4812 23.6917 38.3143 23.9142L33.1714 30.7712C33.0518 30.9312 32.8963 31.061 32.7176 31.1504C32.5388 31.2396 32.3417 31.286 32.1419 31.2856Z" fill="#BF6E1D" fill-opacity="1.000000" fill-rule="nonzero"/>
	<path id="Vector" d="M11.5724 31.2856C11.3726 31.286 11.1755 31.2396 10.9968 31.1504C10.8181 31.061 10.6626 30.9313 10.5429 30.7714L5.40002 23.9142C5.23312 23.6917 5.14288 23.421 5.14288 23.1428L5.14288 20.5714C5.14288 20.2303 5.27835 19.9033 5.51947 19.6622C5.76059 19.4211 6.08762 19.2856 6.42859 19.2856C6.76959 19.2856 7.09662 19.4211 7.33774 19.6622C7.57886 19.9033 7.71432 20.2303 7.71432 20.5714L7.71432 22.7142L12.6 29.2286C12.7432 29.4195 12.8305 29.6465 12.852 29.8843C12.8734 30.122 12.8283 30.361 12.7216 30.5745C12.615 30.7881 12.451 30.9677 12.248 31.0933C12.045 31.2189 11.8111 31.2855 11.5724 31.2856Z" fill="#BF6E1D" fill-opacity="1.000000" fill-rule="nonzero"/>
	<path id="Vector" d="M33.3771 69.7886L32.1429 70.7144L32.8243 70.9409L34.2418 71.4135C34.7536 71.5844 35.1988 71.912 35.5143 72.3497C35.8298 72.7875 35.9997 73.3135 36 73.853L36 75.8572L7.71429 75.8572L7.71429 73.5895C7.71426 73.1121 7.84714 72.644 8.09805 72.2378C8.349 71.8317 8.70804 71.5033 9.13501 71.2897L10.2857 70.7144L7.93448 68.363C6.97046 67.3988 6.4288 66.0912 6.42859 64.7277L6.42859 60.2084C6.42862 59.8705 6.49518 59.536 6.62451 59.2238C6.75385 58.9116 6.94339 58.6281 7.18234 58.3892L10.2857 55.2858L12.8571 48.8572L30.8571 48.8572L33.4286 55.2858L36.532 58.3892C36.7709 58.6281 36.9605 58.9116 37.0898 59.2238C37.2191 59.536 37.2857 59.8705 37.2857 60.2084L37.2857 64.2858C37.2858 65.0841 37.1 65.8716 36.7429 66.5858C36.3858 67.2999 35.8674 67.921 35.2286 68.4L33.3771 69.7886Z" fill="#FD9226" fill-opacity="1.000000" fill-rule="nonzero"/>
	<path id="Vector" d="M30.8572 48.8571L12.8572 48.8571L10.2858 42.4285L10.2858 30.2827C10.2858 29.004 10.7938 27.7776 11.698 26.8735L11.7208 26.8506C12.4584 26.113 13.4154 25.6345 14.4481 25.487L14.5841 25.4675C19.4083 24.7784 24.3061 24.7784 29.1303 25.4675L29.2663 25.487C30.299 25.6345 31.256 26.113 31.9936 26.8506L32.0164 26.8735C32.9206 27.7776 33.4286 29.004 33.4286 30.2827L33.4286 42.4285L30.8572 48.8571Z" fill="#FD9226" fill-opacity="1.000000" fill-rule="nonzero"/>
	<path id="Vector" d="M26.6698 52.7144C25.9804 52.7144 25.3018 52.5442 24.694 52.219C24.0862 51.8938 23.5681 51.4236 23.1856 50.85L21.8572 48.8572L20.5289 50.85C20.1465 51.4236 19.6283 51.8938 19.0205 52.219C18.4128 52.5442 17.7341 52.7144 17.0447 52.7144C16.4948 52.7144 15.9503 52.6061 15.4422 52.3956C14.9342 52.1852 14.4726 51.8767 14.0837 51.4879C13.6949 51.099 13.3864 50.6375 13.1759 50.1294C12.9655 49.6213 12.8572 49.0768 12.8572 48.5269L12.8572 46.616C12.8572 45.5054 13.2983 44.4403 14.0836 43.655C14.8689 42.8698 15.934 42.4286 17.0446 42.4286L26.6698 42.4286C27.7803 42.4286 28.8454 42.8698 29.6307 43.655C30.416 44.4403 30.8572 45.5054 30.8572 46.616L30.8572 48.5269C30.8572 49.6375 30.416 50.7025 29.6307 51.4878C28.8454 52.2731 27.7803 52.7144 26.6698 52.7144Z" fill="#985713" fill-opacity="1.000000" fill-rule="nonzero"/>
	<path id="Vector" d="M14.1429 72L14.1429 75.8571L11.5715 75.8571L11.5715 72.3037L10.4208 70.0039C10.3322 69.825 10.2859 69.6282 10.2858 69.4285L10.2858 63C10.2858 62.6589 10.4212 62.3319 10.6624 62.0908C10.9035 61.8497 11.2305 61.7142 11.5715 61.7142C11.9125 61.7142 12.2395 61.8497 12.4806 62.0908C12.7217 62.3319 12.8572 62.6589 12.8572 63L12.8572 69.1248L14.0079 71.4246C14.0965 71.6034 14.1427 71.8003 14.1429 72Z" fill="#E08122" fill-opacity="1.000000" fill-rule="nonzero"/>
	<path id="Vector" d="M20.5714 63L20.5714 69.4285C20.5713 69.6282 20.5251 69.825 20.4364 70.0039L19.2857 72.3037L19.2857 75.8571L16.7143 75.8571L16.7143 72C16.7145 71.8003 16.7607 71.6034 16.8493 71.4246L18 69.1248L18 63C18 62.6589 18.1355 62.3319 18.3766 62.0908C18.6177 61.8497 18.9447 61.7142 19.2857 61.7142C19.6267 61.7142 19.9537 61.8497 20.1949 62.0908C20.436 62.3319 20.5714 62.6589 20.5714 63Z" fill="#E08122" fill-opacity="1.000000" fill-rule="nonzero"/>
	<path id="Vector" d="M33.4286 63L33.4286 69.4285C33.4281 69.6281 33.3819 69.825 33.2935 70.0039L32.8243 70.9408L32.1429 72.3037L32.1429 75.8571L29.5714 75.8571L29.5714 72C29.5716 71.8003 29.6178 71.6034 29.7064 71.4246L30.8571 69.1248L30.8571 63C30.8571 62.6589 30.9926 62.3319 31.2337 62.0908C31.4748 61.8497 31.8018 61.7142 32.1429 61.7142C32.4838 61.7142 32.8109 61.8497 33.052 62.0908C33.2931 62.3319 33.4286 62.6589 33.4286 63Z" fill="#E08122" fill-opacity="1.000000" fill-rule="nonzero"/>
	<path id="Vector" d="M27 72L27 75.8571L24.4285 75.8571L24.4285 72.3037L23.2778 70.0039C23.1892 69.825 23.143 69.6282 23.1428 69.4285L23.1428 63C23.1428 62.6589 23.2783 62.3319 23.5194 62.0908C23.7605 61.8497 24.0876 61.7142 24.4285 61.7142C24.7695 61.7142 25.0966 61.8497 25.3377 62.0908C25.5788 62.3319 25.7143 62.6589 25.7143 63L25.7143 69.1248L26.865 71.4246C26.9536 71.6034 26.9998 71.8003 27 72Z" fill="#E08122" fill-opacity="1.000000" fill-rule="nonzero"/>
	<path id="Vector" d="M24.4286 45C24.4286 46.4202 23.2773 47.5714 21.8572 47.5714C20.437 47.5714 19.2858 46.4202 19.2858 45C19.2858 43.5798 20.437 42.4286 21.8572 42.4286C23.2773 42.4286 24.4286 43.5798 24.4286 45Z" fill="#70400E" fill-opacity="1.000000" fill-rule="evenodd"/>
	<path id="Vector" d="M18.4822 36C18.4822 36.9764 17.6907 37.7679 16.7143 37.7679C15.738 37.7679 14.9465 36.9764 14.9465 36C14.9465 35.0237 15.738 34.2322 16.7143 34.2322C17.6907 34.2322 18.4822 35.0237 18.4822 36Z" fill="#985713" fill-opacity="1.000000" fill-rule="evenodd"/>
	<path id="Vector" d="M29.25 36C29.25 36.9764 28.4585 37.7679 27.4821 37.7679C26.5058 37.7679 25.7143 36.9764 25.7143 36C25.7143 35.0237 26.5058 34.2322 27.4821 34.2322C28.4585 34.2322 29.25 35.0237 29.25 36Z" fill="#985713" fill-opacity="1.000000" fill-rule="evenodd"/>
	<path id="Vector" d="M52.7143 47.5714L52.7143 71.9999C52.7143 73.3639 52.1725 74.672 51.208 75.6365C50.2435 76.601 48.9354 77.1428 47.5714 77.1428C46.2075 77.1428 44.8994 76.601 43.9349 75.6365C42.9704 74.672 42.4286 73.3639 42.4286 71.9999L42.4286 66.5356C42.4286 66.2799 42.327 66.0347 42.1462 65.8538C41.9653 65.673 41.7201 65.5713 41.4643 65.5713L32.1429 65.5713C31.8019 65.5713 31.4749 65.4359 31.2338 65.1948C30.9926 64.9536 30.8572 64.6266 30.8572 64.2856C30.8572 63.9447 30.9926 63.6177 31.2338 63.3765C31.4749 63.1354 31.8019 62.9999 32.1429 62.9999L41.4643 62.9999C42.4017 63.001 43.3004 63.3739 43.9632 64.0367C44.6261 64.6996 44.9989 65.5983 45 66.5356L45 71.9999C45 72.6819 45.2709 73.3359 45.7532 73.8182C46.2354 74.3004 46.8895 74.5713 47.5714 74.5713C48.2534 74.5713 48.9075 74.3004 49.3897 73.8182C49.872 73.3359 50.1429 72.6819 50.1429 71.9999L50.1429 47.5714C50.1429 47.2303 50.2784 46.9033 50.5195 46.6622C50.7606 46.4211 51.0876 46.2856 51.4286 46.2856C51.7696 46.2856 52.0966 46.4211 52.3377 46.6622C52.5789 46.9033 52.7143 47.2303 52.7143 47.5714Z" fill="#DBDBDB" fill-opacity="1.000000" fill-rule="nonzero"/>
	<path id="Vector" d="M51.4286 25.7143C50.7051 25.7139 49.9899 25.561 49.3295 25.2657C48.6691 24.9704 48.0782 24.5393 47.5955 24.0004C47.4829 23.8746 47.3962 23.7279 47.3403 23.5685C47.2844 23.4092 47.2605 23.2405 47.2698 23.0719C47.2886 22.7314 47.442 22.4124 47.696 22.1849C47.9501 21.9575 48.2841 21.8403 48.6246 21.8592C48.7932 21.8685 48.9583 21.911 49.1105 21.9841C49.2627 22.0573 49.399 22.1597 49.5116 22.2855C49.7975 22.6052 50.1588 22.8484 50.5627 22.9928C50.9666 23.1372 51.4003 23.1783 51.8241 23.1122C52.2479 23.0463 52.6485 22.8753 52.9894 22.6149C53.3302 22.3546 53.6006 22.013 53.7757 21.6215C53.9509 21.2299 54.0253 20.8008 53.9922 20.3731C53.9591 19.9454 53.8196 19.5328 53.5863 19.1729C53.353 18.8129 53.0334 18.5171 52.6565 18.3123C52.2796 18.1074 51.8575 18.0001 51.4286 18C51.0876 18 50.7605 17.8646 50.5194 17.6235C50.2783 17.3823 50.1429 17.0553 50.1429 16.7143L50.1429 5.14288C50.1429 4.80188 50.2783 4.47485 50.5194 4.23376C50.7605 3.99261 51.0876 3.85718 51.4286 3.85718C51.7696 3.85718 52.0966 3.99261 52.3377 4.23376C52.5788 4.47485 52.7143 4.80188 52.7143 5.14288L52.7143 15.5912C53.9269 15.9037 54.9838 16.6478 55.6869 17.684C56.3899 18.7202 56.6908 19.9772 56.533 21.2194C56.3752 22.4617 55.7697 23.6036 54.8299 24.4312C53.8901 25.2587 52.6808 25.715 51.4286 25.7143Z" fill="#878787" fill-opacity="1.000000" fill-rule="nonzero"/>
	<path id="Vector" d="M66.8571 6.42853L50.1429 6.42853C49.4608 6.42853 48.8068 6.15759 48.3246 5.67535C47.8423 5.19312 47.5714 4.53906 47.5714 3.85706C47.5714 3.17511 47.8423 2.52106 48.3246 2.03882C48.8068 1.55658 49.4608 1.28564 50.1429 1.28564L66.8571 1.28564L66.8571 6.42853Z" fill="#CBCBCB" fill-opacity="1.000000" fill-rule="nonzero"/>
	<path id="Vector" d="M61.7143 6.42859L66.8571 6.42859L66.8571 70.7142L61.7143 70.7142L61.7143 6.42859Z" fill="#985713" fill-opacity="1.000000" fill-rule="nonzero"/>
	<path id="Vector" d="M70.7143 75.8572L57.8572 75.8572C57.8572 74.6707 58.1501 73.5026 58.71 72.4564C59.2698 71.4103 60.0793 70.5186 61.0665 69.8605L61.7143 69.4286L66.8572 69.4286L67.505 69.8605C68.4922 70.5186 69.3017 71.4103 69.8615 72.4564C70.4214 73.5026 70.7143 74.6707 70.7143 75.8572Z" fill="#70400E" fill-opacity="1.000000" fill-rule="nonzero"/>
	<path id="Vector" d="M45 51.4286L47.5714 51.4286L47.5714 54L45 54L45 51.4286Z" fill="#C0F5F9" fill-opacity="1.000000" fill-rule="nonzero"/>
	<path id="Vector" d="M45 56.5714L47.5714 56.5714L47.5714 61.7142L45 61.7142L45 56.5714Z" fill="#C0F5F9" fill-opacity="1.000000" fill-rule="nonzero"/>
	<path id="Vector" d="M23.1429 61.7142L33.4286 61.7142L33.4286 66.8571L23.1429 66.8571L23.1429 61.7142Z" fill="#6B9777" fill-opacity="1.000000" fill-rule="nonzero"/>
	<path id="Vector" d="M51.4286 30.8571C51.0876 30.8571 50.7606 30.7216 50.5195 30.4805C50.2784 30.2394 50.1429 29.9124 50.1429 29.5714L50.1429 24.4285C50.1429 24.0875 50.2784 23.7605 50.5195 23.5194C50.7606 23.2783 51.0876 23.1428 51.4286 23.1428C51.7696 23.1428 52.0966 23.2783 52.3377 23.5194C52.5789 23.7605 52.7143 24.0875 52.7143 24.4285L52.7143 29.5714C52.7143 29.9124 52.5789 30.2394 52.3377 30.4805C52.0966 30.7216 51.7696 30.8571 51.4286 30.8571Z" fill="#CBCBCB" fill-opacity="1.000000" fill-rule="nonzero"/>
	<path id="Vector" d="M52.7143 47.5714L52.7143 48.6947C51.8708 48.9111 50.9864 48.9111 50.1429 48.6947L50.1429 47.5714C50.1429 47.2303 50.2784 46.9033 50.5195 46.6622C50.7606 46.4211 51.0876 46.2856 51.4286 46.2856C51.7696 46.2856 52.0966 46.4211 52.3377 46.6622C52.5789 46.9033 52.7143 47.2303 52.7143 47.5714Z" fill="#C3C3C3" fill-opacity="1.000000" fill-rule="nonzero"/>
	<path id="Vector" d="M61.7143 6.42859L66.8571 6.42859L66.8571 9L61.7143 9L61.7143 6.42859Z" fill="#70400E" fill-opacity="1.000000" fill-rule="nonzero"/>
	<path id="Vector" d="M33.4286 63L34.7143 63L34.7143 65.5714L33.4286 65.5714L33.4286 63Z" fill="#C3C3C3" fill-opacity="1.000000" fill-rule="nonzero"/>
	<path id="Vector" d="M46.2857 29.5714L56.5714 29.5714L56.5714 42.4286C56.5714 43.7925 56.0296 45.1006 55.0651 46.0651C54.1006 47.0295 52.7925 47.5714 51.4286 47.5714C50.0646 47.5714 48.7565 47.0295 47.792 46.0651C46.8275 45.1006 46.2857 43.7925 46.2857 42.4286L46.2857 29.5714Z" fill="#EBEBEB" fill-opacity="1.000000" fill-rule="nonzero"/>
	<path id="Vector" d="M51.4286 47.5714C50.0646 47.5714 48.7565 47.0295 47.792 46.0651C46.8275 45.1006 46.2857 43.7925 46.2857 42.4285L46.2857 34.7142L56.5714 34.7142L56.5714 42.4285C56.5714 43.7925 56.0296 45.1006 55.0651 46.0651C54.1006 47.0295 52.7925 47.5714 51.4286 47.5714Z" fill="#C0F5F9" fill-opacity="1.000000" fill-rule="nonzero"/>
	<path id="Vector" d="M54 39.8572L52.7143 39.8572L52.7143 38.5714L50.1429 38.5714L50.1429 39.8572L48.8572 39.8572L48.8572 42.4286L50.1429 42.4286L50.1429 43.7142L52.7143 43.7142L52.7143 42.4286L54 42.4286L54 39.8572Z" fill="#85BC94" fill-opacity="1.000000" fill-rule="nonzero"/>
	<path id="Vector" d="M46.2857 34.7142L56.5714 34.7142L56.5714 36L46.2857 36L46.2857 34.7142Z" fill="#B8EAEE" fill-opacity="1.000000" fill-rule="nonzero"/>
	<path id="Vector" d="M18.4822 36C18.4822 36.9764 17.6907 37.7679 16.7143 37.7679C15.738 37.7679 14.9465 36.9764 14.9465 36C14.9465 35.0237 15.738 34.2322 16.7143 34.2322C17.6907 34.2322 18.4822 35.0237 18.4822 36Z" fill="#000000" fill-opacity="1.000000" fill-rule="evenodd"/>
	<path id="Vector" d="M29.25 36C29.25 36.9764 28.4585 37.7679 27.4821 37.7679C26.5058 37.7679 25.7143 36.9764 25.7143 36C25.7143 35.0237 26.5058 34.2322 27.4821 34.2322C28.4585 34.2322 29.25 35.0237 29.25 36Z" fill="#000000" fill-opacity="1.000000" fill-rule="evenodd"/>
	<path id="Vector" d="M3.85718 28.8182L3.85718 33.8142C3.85431 34.7103 4.10245 35.5892 4.57349 36.3514C5.04453 37.1138 5.71964 37.7288 6.52231 38.1271L9.00003 39.366L9.00003 42.4286C9.00003 42.5922 9.03122 42.7542 9.09195 42.906L11.4724 48.8572L9.19031 54.5625L6.27319 57.48C5.91376 57.8374 5.62878 58.2626 5.43475 58.731C5.24075 59.1992 5.14154 59.7014 5.14288 60.2084L5.14288 64.7277C5.14059 65.572 5.30579 66.4084 5.62891 67.1885C5.95203 67.9685 6.42667 68.6768 7.02533 69.2722L8.13779 70.3846C7.61011 70.7358 7.17773 71.2124 6.87946 71.7717C6.58115 72.3311 6.42624 72.9556 6.42859 73.5895L6.42859 75.8571C6.42859 76.1981 6.56406 76.5251 6.80518 76.7662C7.0463 77.0073 7.37332 77.1428 7.71432 77.1428L36 77.1428C36.341 77.1428 36.668 77.0073 36.9091 76.7662C37.1503 76.5251 37.2857 76.1981 37.2857 75.8571L37.2857 73.853C37.2863 73.0837 37.0566 72.3319 36.6263 71.6943C36.1959 71.0568 35.5845 70.5626 34.8708 70.2755L36 69.4286C37.2549 68.4823 38.1216 67.111 38.4376 65.5714L41.4643 65.5714C41.72 65.5717 41.9651 65.6733 42.1459 65.8541C42.3267 66.0349 42.4283 66.28 42.4286 66.5356L42.4286 72C42.4286 73.3639 42.9704 74.672 43.9349 75.6365C44.8994 76.601 46.2075 77.1428 47.5714 77.1428C48.9354 77.1428 50.2435 76.601 51.208 75.6365C52.1725 74.672 52.7143 73.3639 52.7143 72L52.7143 48.7285C54.1654 48.4303 55.4693 47.6407 56.4061 46.4932C57.343 45.3456 57.8554 43.91 57.8571 42.4286L57.8571 29.5714C57.8571 29.2304 57.7217 28.9034 57.4806 28.6623C57.2394 28.4211 56.9124 28.2857 56.5714 28.2857L52.7143 28.2857L52.7143 25.5515C53.8188 25.2668 54.7973 24.6231 55.4959 23.7216C56.1945 22.8201 56.5737 21.7119 56.5737 20.5714C56.5737 19.4308 56.1945 18.3226 55.4959 17.4211C54.7973 16.5195 53.8188 15.8759 52.7143 15.5912L52.7143 7.71429L60.4286 7.71429L60.4286 68.7405L60.3534 68.7906C59.189 69.5652 58.2343 70.6157 57.5744 71.8486C56.9145 73.0815 56.5699 74.4586 56.5714 75.8571C56.5714 76.1981 56.7069 76.5251 56.948 76.7662C57.1891 77.0073 57.5161 77.1428 57.8571 77.1428L70.7143 77.1428C71.0553 77.1428 71.3823 77.0073 71.6234 76.7662C71.8645 76.5251 72 76.1981 72 75.8571C72.0015 74.4586 71.6569 73.0815 70.997 71.8485C70.3372 70.6156 69.3825 69.5651 68.2181 68.7905L68.1429 68.7404L68.1429 1.28571C68.1429 0.944702 68.0074 0.617676 67.7663 0.376587C67.5251 0.135437 67.1981 0 66.8571 0L50.1429 0C49.1199 0 48.1388 0.406372 47.4155 1.12976C46.6921 1.85309 46.2857 2.83417 46.2857 3.85712C46.2857 4.88013 46.6921 5.86121 47.4155 6.58453C48.1388 7.30792 49.1199 7.71429 50.1429 7.71429L50.1429 16.7143C50.1429 17.0553 50.2783 17.3823 50.5194 17.6234C50.7606 17.8645 51.0876 18 51.4286 18C51.8575 18 52.2796 18.1074 52.6565 18.3122C53.0334 18.517 53.353 18.8129 53.5863 19.1729C53.8196 19.5328 53.9591 19.9454 53.9922 20.373C54.0253 20.8007 53.9509 21.2299 53.7757 21.6214C53.6006 22.013 53.3303 22.3545 52.9894 22.6149C52.6485 22.8752 52.2479 23.0462 51.8241 23.1122C51.4003 23.1782 50.9666 23.1371 50.5627 22.9927C50.1589 22.8483 49.7975 22.6052 49.5116 22.2855C49.399 22.1596 49.2627 22.0573 49.1105 21.9841C48.9583 21.9109 48.7932 21.8685 48.6246 21.8592C48.4561 21.8499 48.2873 21.8738 48.128 21.9297C47.9686 21.9856 47.8219 22.0723 47.6961 22.1849C47.5703 22.2975 47.4679 22.4338 47.3947 22.586C47.3216 22.7382 47.2791 22.9033 47.2698 23.0718C47.2605 23.2404 47.2844 23.4092 47.3403 23.5685C47.3962 23.7278 47.4829 23.8746 47.5956 24.0004C48.2734 24.7565 49.1596 25.2954 50.1429 25.5494L50.1429 28.2857L46.2857 28.2857C45.9447 28.2857 45.6177 28.4211 45.3766 28.6623C45.1355 28.9034 45 29.2304 45 29.5714L45 42.4286C45.0017 43.91 45.5142 45.3456 46.451 46.4932C47.3879 47.6407 48.6917 48.4303 50.1429 48.7285L50.1429 72C50.1429 72.682 49.8719 73.3361 49.3897 73.8182C48.9075 74.3005 48.2534 74.5714 47.5714 74.5714C46.8895 74.5714 46.2354 74.3005 45.7532 73.8182C45.2709 73.3361 45 72.682 45 72L45 66.5356C44.9989 65.5983 44.6261 64.6996 43.9633 64.0367C43.3004 63.3739 42.4017 63.001 41.4643 63L38.5714 63L38.5714 60.2084C38.5728 59.7014 38.4736 59.1992 38.2796 58.731C38.0855 58.2626 37.8006 57.8374 37.4411 57.48L34.5243 54.5625L32.2422 48.8572L34.6227 42.906C34.6833 42.7542 34.7144 42.592 34.7143 42.4286L34.7143 39.366L37.1927 38.1267C37.9952 37.7284 38.6702 37.1134 39.1411 36.3512C39.612 35.589 39.86 34.7102 39.8571 33.8142L39.8571 28.8182L41.6438 27.0321C42.3024 26.3771 42.8246 25.5979 43.1799 24.7396C43.5353 23.8814 43.717 22.9612 43.7143 22.0323L43.7143 16.9746C43.7144 16.4339 43.6079 15.8984 43.401 15.3989C43.1941 14.8993 42.8908 14.4453 42.5085 14.063C42.1261 13.6806 41.6721 13.3773 41.1726 13.1704C40.673 12.9636 40.1375 12.8571 39.5968 12.8571C38.634 12.8586 37.7018 13.1959 36.9611 13.811L31.4233 18.4259C30.8429 18.9078 30.376 19.5118 30.0559 20.1949C29.7357 20.8781 29.5703 21.6234 29.5714 22.3779L29.5714 24.2357C29.5343 24.2297 29.4973 24.2227 29.4602 24.2175L29.3109 24.1947C24.3625 23.4891 19.3389 23.4897 14.3907 24.1967L14.2693 24.2151C14.2269 24.2213 14.185 24.2289 14.1429 24.2358L14.1429 22.3779C14.144 21.6236 13.9786 20.8784 13.6586 20.1954C13.3386 19.5124 12.8719 18.9084 12.2916 18.4265L6.75131 13.809C6.01083 13.1951 5.07947 12.8584 4.11752 12.8571C3.57678 12.8571 3.04135 12.9636 2.54175 13.1704C2.04218 13.3773 1.58823 13.6806 1.20587 14.063C0.823547 14.4453 0.520203 14.8993 0.313354 15.3989C0.106445 15.8984 -6.10352e-05 16.4339 0 16.9746L0 22.0323C-0.00262451 22.9612 0.178955 23.8814 0.534363 24.7396C0.889771 25.5979 1.4119 26.3771 2.0705 27.0321L3.85718 28.8182ZM66.7917 70.9301C68.0631 71.7758 68.9577 73.0807 69.2881 74.5714L59.2833 74.5714C59.6136 73.0807 60.5083 71.7758 61.7797 70.9303L62.1035 70.7142L66.4679 70.7142L66.7917 70.9301ZM63 68.1428L63 7.71429L65.5714 7.71429L65.5714 68.1428L63 68.1428ZM50.1429 5.14288C49.8019 5.14288 49.4749 5.00739 49.2337 4.7663C48.9926 4.52515 48.8571 4.19812 48.8571 3.85712C48.8571 3.51617 48.9926 3.18915 49.2337 2.948C49.4749 2.70691 49.8019 2.57141 50.1429 2.57141L65.5714 2.57141L65.5714 5.14288L50.1429 5.14288ZM47.5714 30.8571L55.2857 30.8571L55.2857 33.4286L47.5714 33.4286L47.5714 30.8571ZM47.5714 42.4286L47.5714 36L55.2857 36L55.2857 42.4286C55.2857 43.4515 54.8793 44.4326 54.156 45.156C53.4326 45.8793 52.4515 46.2856 51.4286 46.2856C50.4056 46.2856 49.4245 45.8793 48.7012 45.156C47.9778 44.4326 47.5714 43.4515 47.5714 42.4286ZM11.5714 74.5714L9.00003 74.5714L9.00003 73.5895C8.99911 73.3506 9.06516 73.1162 9.19061 72.913C9.31607 72.7097 9.49597 72.5458 9.7099 72.4396L10.8608 71.8641C10.9947 71.797 11.1159 71.707 11.2188 71.5981L11.5714 72.3036L11.5714 74.5714ZM30.8571 69.125L29.7072 71.4249C29.6179 71.6035 29.5714 71.8003 29.5714 72L29.5714 74.5714L27 74.5714L27 72C27 71.8003 26.9536 71.6035 26.8642 71.4249L25.7143 69.125L25.7143 68.1428L30.8571 68.1428L30.8571 69.125ZM30.8571 65.5714L25.7143 65.5714L25.7143 63L30.8571 63L30.8571 65.5714ZM34.7143 74.5714L32.1429 74.5714L32.1429 72.3036L32.2432 72.1028L33.8342 72.6332C34.0904 72.7184 34.3133 72.8821 34.4713 73.101C34.6292 73.3199 34.7143 73.583 34.7143 73.853L34.7143 74.5714ZM34.4572 67.3713L33.4286 68.1428L33.4286 65.5714L35.7768 65.5714C35.5234 66.2881 35.0645 66.9142 34.4572 67.3713ZM32.5194 56.1948L35.6228 59.2982C35.7428 59.4175 35.8379 59.5593 35.9026 59.7155C35.9674 59.8717 36.0005 60.0393 36 60.2084L36 63L33.4286 63L33.4286 61.7142C33.4286 61.3733 33.2931 61.0463 33.052 60.8052C32.8109 60.564 32.4839 60.4286 32.1429 60.4286L24.4286 60.4286C24.0876 60.4286 23.7606 60.564 23.5194 60.8052C23.2783 61.0463 23.1429 61.3733 23.1429 61.7142L23.1429 69.4286C23.1429 69.6282 23.1894 69.8251 23.2787 70.0035L24.4286 72.3036L24.4286 74.5714L19.2857 74.5714L19.2857 72.3036L20.4356 70.0035C20.525 69.8251 20.5715 69.6282 20.5714 69.4286L20.5714 63C20.5714 62.6589 20.436 62.3319 20.1949 62.0908C19.9538 61.8497 19.6267 61.7142 19.2857 61.7142C18.9447 61.7142 18.6177 61.8497 18.3766 62.0908C18.1355 62.3319 18 62.6589 18 63L18 69.125L16.8501 71.4249C16.7608 71.6035 16.7143 71.8003 16.7143 72L16.7143 74.5714L14.1429 74.5714L14.1429 72C14.1429 71.8003 14.0964 71.6035 14.0071 71.4249L12.8572 69.125L12.8572 63C12.8572 62.6589 12.7217 62.3319 12.4806 62.0908C12.2395 61.8497 11.9124 61.7142 11.5714 61.7142C11.2305 61.7142 10.9034 61.8497 10.6623 62.0908C10.4212 62.3319 10.2857 62.6589 10.2857 63L10.2857 68.8961L8.84366 67.4539C8.12305 66.7292 7.71725 65.7496 7.71432 64.7277L7.71432 60.2084C7.71384 60.0393 7.74695 59.8717 7.81171 59.7155C7.87643 59.5593 7.97156 59.4175 8.09152 59.2982L11.1949 56.1948C11.318 56.0717 11.4148 55.9248 11.4795 55.7632L12.9319 52.1322C13.485 52.7644 14.1763 53.2607 14.9522 53.5826C15.7281 53.9044 16.5677 54.0432 17.4059 53.9882C18.2441 53.9331 19.0583 53.6857 19.7854 53.265C20.5125 52.8444 21.133 52.262 21.5986 51.5627L21.8572 51.1749L22.1156 51.5627C22.5812 52.262 23.2017 52.8444 23.9288 53.265C24.6559 53.6857 25.4702 53.9331 26.3083 53.9882C27.1466 54.0432 27.9862 53.9044 28.7621 53.5826C29.538 53.2607 30.2293 52.7644 30.7824 52.1322L32.2348 55.7632C32.2995 55.9248 32.3963 56.0717 32.5194 56.1948ZM20.4819 48.6027L19.4593 50.1364C19.1139 50.6548 18.6109 51.0482 18.0246 51.2585C17.4383 51.469 16.7999 51.4851 16.2037 51.3046C15.6075 51.124 15.0853 50.7565 14.7141 50.2562C14.343 49.756 14.1427 49.1495 14.1429 48.5267L14.1429 46.6161C14.1438 45.8468 14.4498 45.1093 14.9938 44.5652C15.5378 44.0212 16.2754 43.7152 17.0447 43.7142L18.2212 43.7142C17.8852 44.663 17.9336 45.7053 18.3559 46.6188C18.7783 47.5322 19.5412 48.2443 20.4816 48.6027L20.4819 48.6027ZM20.5714 45C20.5714 44.7457 20.6469 44.4971 20.7881 44.2856C20.9294 44.0742 21.1302 43.9094 21.3651 43.8121C21.6001 43.7148 21.8586 43.6893 22.108 43.739C22.3574 43.7886 22.5865 43.911 22.7663 44.0908C22.9461 44.2706 23.0686 44.4998 23.1182 44.7491C23.1678 44.9985 23.1423 45.2571 23.045 45.4919C22.9477 45.7269 22.7829 45.9277 22.5715 46.069C22.36 46.2103 22.1115 46.2856 21.8572 46.2856C21.5163 46.2853 21.1895 46.1498 20.9485 45.9087C20.7074 45.6676 20.5718 45.3408 20.5714 45ZM25.4932 43.7142L26.6696 43.7142C27.4389 43.7152 28.1765 44.0212 28.7205 44.5652C29.2645 45.1093 29.5706 45.8468 29.5714 46.6161L29.5714 48.5267C29.5714 49.1495 29.3711 49.7557 28.9999 50.2559C28.6288 50.756 28.1066 51.1235 27.5105 51.304C26.9145 51.4845 26.2762 51.4684 25.6899 51.2581C25.1037 51.0479 24.6007 50.6545 24.2552 50.1364L23.2327 48.6027C24.1731 48.2443 24.936 47.5322 25.3584 46.6188C25.7808 45.7053 25.8291 44.663 25.4932 43.7142ZM32.1429 22.3779C32.1422 22.0005 32.2249 21.6277 32.3849 21.2859C32.545 20.9443 32.7786 20.6421 33.0689 20.4011L38.6049 15.7873C38.8837 15.556 39.2345 15.4291 39.5968 15.4286C39.7998 15.4285 40.0009 15.4685 40.1885 15.5461C40.3761 15.6238 40.5465 15.7377 40.6901 15.8813C40.8337 16.0249 40.9476 16.1953 41.0253 16.3829C41.1029 16.5706 41.1429 16.7716 41.1429 16.9746L41.1429 22.0323C41.1445 22.6234 41.0288 23.2088 40.8026 23.7548C40.5764 24.3008 40.2441 24.7966 39.825 25.2133L37.6618 27.3765C37.4209 27.6177 37.2856 27.9448 37.2857 28.2857L37.2857 33.8142C37.287 34.2324 37.1713 34.6426 36.9515 34.9984C36.7317 35.3541 36.4167 35.6412 36.0421 35.8273L34.7143 36.4911L34.7143 30.2834C34.7141 29.8244 34.6624 29.3669 34.5605 28.9194L38.3143 23.9142C38.4812 23.6917 38.5714 23.421 38.5714 23.1428L38.5714 20.5714C38.5714 20.2304 38.436 19.9034 38.1949 19.6623C37.9537 19.4211 37.6267 19.2857 37.2857 19.2857C36.9447 19.2857 36.6177 19.4211 36.3766 19.6623C36.1355 19.9034 36 20.2304 36 20.5714L36 22.7142L33.2754 26.3464C33.1642 26.2149 33.0482 26.0865 32.9251 25.9632L32.9026 25.9407C32.6671 25.7068 32.4131 25.4926 32.1429 25.2999L32.1429 22.3779ZM12.6076 27.7822L12.6301 27.7597C13.1743 27.2162 13.8806 26.8647 14.6424 26.7586L14.7663 26.7396C19.4655 26.0689 24.236 26.0682 28.9353 26.7377L29.0872 26.7609C29.8432 26.8696 30.5438 27.22 31.0843 27.7597L31.1068 27.7822C31.4362 28.1099 31.6975 28.4997 31.8753 28.929C32.0532 29.3583 32.1441 29.8187 32.1429 30.2834L32.1429 42.1809L31.4401 43.9379C30.9644 43.0906 30.2718 42.3853 29.4335 41.894C28.5952 41.4028 27.6412 41.1436 26.6696 41.1428L17.0447 41.1428C16.0731 41.1436 15.1192 41.4028 14.2808 41.894C13.4425 42.3853 12.7499 43.0906 12.2743 43.9379L11.5714 42.1809L11.5714 30.2834C11.5702 29.8187 11.6611 29.3583 11.839 28.929C12.0168 28.4997 12.2781 28.1099 12.6076 27.7822ZM2.57144 16.9746C2.57141 16.7716 2.61139 16.5706 2.68906 16.3829C2.76675 16.1953 2.88062 16.0249 3.0242 15.8813C3.16779 15.7377 3.33823 15.6238 3.52582 15.5461C3.71341 15.4685 3.91449 15.4285 4.11752 15.4286C4.47897 15.4291 4.82892 15.5557 5.10721 15.7863L10.6462 20.4025C10.9362 20.6434 11.1696 20.9454 11.3295 21.2868C11.4894 21.6283 11.572 22.0008 11.5714 22.3779L11.5714 25.3001C11.3012 25.4929 11.0471 25.7073 10.8118 25.9413L10.7892 25.9639C10.6661 26.0872 10.5501 26.2155 10.4389 26.347L7.71432 22.7142L7.71432 20.5714C7.71432 20.2304 7.57886 19.9034 7.33774 19.6623C7.09662 19.4211 6.76959 19.2857 6.42859 19.2857C6.08762 19.2857 5.76059 19.4211 5.51947 19.6623C5.27835 19.9034 5.14288 20.2304 5.14288 20.5714L5.14288 23.1428C5.14288 23.421 5.23312 23.6917 5.40002 23.9142L9.15384 28.9194C9.05188 29.3669 9.00027 29.8244 9.00003 30.2834L9.00003 36.4911L7.67285 35.8275C7.29813 35.6416 6.98297 35.3545 6.76306 34.9987C6.54315 34.6428 6.42728 34.2325 6.42859 33.8142L6.42859 28.2857C6.42859 28.1169 6.39536 27.9496 6.33075 27.7937C6.26614 27.6377 6.17142 27.4959 6.05203 27.3765L3.88931 25.2133C3.47021 24.7966 3.13794 24.3008 2.91174 23.7548C2.68552 23.2088 2.56985 22.6234 2.57144 22.0323L2.57144 16.9746Z" fill="#000000" fill-opacity="1.000000" fill-rule="nonzero"/>
	<path id="Vector" d="M52.7143 43.7142L52.7143 42.4286L54 42.4286L54 39.8572L52.7143 39.8572L52.7143 38.5714L50.1429 38.5714L50.1429 39.8572L48.8572 39.8572L48.8572 42.4286L50.1429 42.4286L50.1429 43.7142L52.7143 43.7142Z" fill="#000000" fill-opacity="1.000000" fill-rule="nonzero"/>
	<path id="Vector" d="M45 51.4286L47.5714 51.4286L47.5714 54L45 54L45 51.4286Z" fill="#000000" fill-opacity="1.000000" fill-rule="nonzero"/>
	<path id="Vector" d="M45 56.5714L47.5714 56.5714L47.5714 61.7142L45 61.7142L45 56.5714Z" fill="#000000" fill-opacity="1.000000" fill-rule="nonzero"/>
</svg>
