<svg width="61.399963" height="76.753052" viewBox="0 0 61.4 76.7531" fill="none" xmlns="http://www.w3.org/2000/svg" xmlns:xlink="http://www.w3.org/1999/xlink">
	<desc>
			Created with Pixso.
	</desc>
	<defs/>
	<path id="Vector" d="M52.4454 67.7985L52.4454 56.2855L60.1207 56.2855L60.1207 70.3569C60.1207 71.714 59.5817 73.0155 58.6221 73.9751C57.6624 74.9347 56.361 75.4738 55.0038 75.4738L52.4454 75.4738L52.4454 67.7985Z" fill="#F6BB92" fill-opacity="1.000000" fill-rule="nonzero"/>
	<path id="Vector" d="M56.2831 44.7726L57.3629 42.2142L58.3207 39.9451C58.8339 38.7249 58.9719 37.3795 58.7172 36.0806C58.4625 34.7816 57.8267 33.588 56.8907 32.652C55.6415 31.4026 54.9399 29.7081 54.9399 27.9413L54.9399 21.7467L26.8611 21.7467L26.8611 27.9418C26.8612 29.7086 26.1595 31.4031 24.9103 32.6525C23.9744 33.5884 23.3384 34.782 23.0837 36.0807C22.8289 37.3795 22.9667 38.7249 23.4797 39.9451L24.4934 42.3564L56.2831 44.7726Z" fill="#834B10" fill-opacity="1.000000" fill-rule="nonzero"/>
	<path id="Vector" d="M60.1206 49.9954C60.1206 48.1785 59.4761 46.4205 58.3017 45.0342C57.1273 43.6479 55.4993 42.7231 53.7071 42.4244L52.4453 42.2142L45.8389 41.1132L40.9324 46.0519L35.9741 41.0751L26.861 42.2142L26.861 75.4739L52.4453 75.4739L52.4453 65.2401C53.6024 64.0825 54.333 62.5669 54.5178 60.9406C54.7025 59.3142 54.3306 57.6733 53.4626 56.2856L60.1206 56.2856L60.1206 49.9954Z" fill="#85BC94" fill-opacity="1.000000" fill-rule="nonzero"/>
	<path id="Vector" d="M55.0037 23.026L26.861 23.026L26.861 15.3507C26.861 11.6187 28.3435 8.03961 30.9824 5.4007C33.6213 2.76184 37.2004 1.2793 40.9324 1.2793C44.6643 1.2793 48.2434 2.76184 50.8823 5.4007C53.5212 8.03961 55.0037 11.6187 55.0037 15.3507L55.0037 23.026Z" fill="#834B10" fill-opacity="1.000000" fill-rule="nonzero"/>
	<path id="Vector" d="M51.1661 19.1882L49.8869 19.1882L49.8869 11.5129L31.9778 11.5129L31.9778 19.1882L30.6986 19.1882C29.6808 19.1882 28.7047 19.5926 27.985 20.3123C27.2653 21.032 26.861 22.0081 26.861 23.0259C26.861 24.0437 27.2653 25.0198 27.985 25.7395C28.7047 26.4592 29.6808 26.8635 30.6986 26.8635L31.9778 26.8635L31.9778 28.1428C31.9778 30.5176 32.9213 32.7953 34.6005 34.4746C36.2798 36.1538 38.5575 37.0973 40.9324 37.0973C43.3073 37.0973 45.5848 36.1538 47.2642 34.4746C48.9435 32.7953 49.8869 30.5176 49.8869 28.1428L49.8869 26.8635L51.1661 26.8635C52.1839 26.8635 53.16 26.4592 53.8797 25.7395C54.5994 25.0198 55.0037 24.0437 55.0037 23.0259C55.0037 22.0081 54.5994 21.032 53.8797 20.3123C53.16 19.5926 52.1839 19.1882 51.1661 19.1882Z" fill="#F6BB92" fill-opacity="1.000000" fill-rule="nonzero"/>
	<path id="Vector" d="M39.6532 50.9369L39.6532 75.4739L11.0307 75.4739C11.9849 73.9884 13.0956 72.6096 14.3439 71.3611L14.4382 71.2668C16.7255 68.9834 18.5551 66.2838 19.8285 63.3132C20.3306 62.1428 20.8311 60.9723 21.1957 60.1232C21.5267 59.3508 21.7441 58.844 21.7441 58.844L18.0632 58.844C16.9224 58.843 15.8145 58.4612 14.9153 57.759C14.0162 57.0569 13.3773 56.0746 13.0999 54.968L12.4698 52.4479L12.3051 51.7891C12.2109 51.412 12.2037 51.0183 12.2844 50.6379C12.3651 50.2577 12.5313 49.9008 12.7705 49.5944C13.0098 49.2878 13.3157 49.04 13.665 48.8695C14.0144 48.699 14.3981 48.6104 14.7868 48.6102L19.1857 48.6102C20.0105 46.1334 21.6946 44.0336 23.9332 42.6907L24.4929 42.3564C25.9316 41.4937 27.5646 41.0074 29.241 40.943C30.9174 40.8784 32.5829 41.2375 34.0838 41.9871L34.1398 42.0159C35.7964 42.8444 37.1898 44.1177 38.1635 45.6932C39.1373 47.2689 39.6531 49.0846 39.6532 50.9369Z" fill="#BD9070" fill-opacity="1.000000" fill-rule="nonzero"/>
	<path id="Vector" d="M39.6532 51.1687L39.6532 54.7985C39.6532 55.6039 39.3997 56.3889 38.9288 57.0424C38.4578 57.6958 37.7932 58.1844 37.0291 58.4391C36.2413 58.7017 35.3898 58.7017 34.6021 58.4391C33.838 58.1844 33.1733 57.6958 32.7023 57.0424C32.2314 56.3889 31.9779 55.6039 31.9779 54.7985L31.9779 48.6102L37.0948 48.6102L39.6532 51.1687Z" fill="#9E785D" fill-opacity="1.000000" fill-rule="nonzero"/>
	<path id="Vector" d="M27.7661 57.1906L25.2077 59.749C24.9675 59.9888 24.642 60.1233 24.3027 60.1232L21.1957 60.1232C21.5267 59.3508 21.7442 58.844 21.7442 58.844L18.0633 58.844C16.8175 58.8452 15.6144 58.3901 14.6813 57.5648L23.7734 57.5648L25.9561 55.3805C26.196 55.1405 26.5216 55.0056 26.8611 55.0056C27.2006 55.0056 27.5261 55.1405 27.7661 55.3805C28.0062 55.6205 28.141 55.946 28.141 56.2855C28.141 56.625 28.0062 56.9506 27.7661 57.1906Z" fill="#9E785D" fill-opacity="1.000000" fill-rule="nonzero"/>
	<path id="Vector" d="M16.6273 48.6102L16.6273 50.1564C16.6273 50.764 16.3859 51.3469 15.9561 51.7767C15.5264 52.2064 14.9435 52.4479 14.3358 52.4479L12.4698 52.4479L12.3051 51.7891C12.2109 51.412 12.2038 51.0183 12.2844 50.6379C12.3651 50.2577 12.5313 49.9008 12.7705 49.5942C13.0098 49.2878 13.3157 49.0399 13.665 48.8695C14.0144 48.699 14.3981 48.6102 14.7868 48.6102L16.6273 48.6102Z" fill="#9E785D" fill-opacity="1.000000" fill-rule="nonzero"/>
	<path id="Vector" d="M20.5953 72.3141C20.3578 72.3138 20.1251 72.2476 19.9231 72.1227C19.7211 71.9977 19.558 71.819 19.4518 71.6064C19.3457 71.394 19.3008 71.1562 19.3222 70.9197C19.3436 70.6832 19.4304 70.4573 19.5729 70.2673C21.0986 68.2343 22.2859 65.9681 23.0891 63.5564C23.141 63.3955 23.2242 63.2465 23.3341 63.1179C23.4439 62.9895 23.5781 62.884 23.7289 62.8076C23.8798 62.7313 24.0443 62.6857 24.2128 62.6732C24.3814 62.6609 24.5508 62.682 24.7112 62.7355C24.8715 62.7889 25.0197 62.8737 25.1472 62.9847C25.2746 63.0958 25.3787 63.2311 25.4536 63.3826C25.5284 63.5342 25.5725 63.6991 25.5833 63.8678C25.5939 64.0365 25.5712 64.2057 25.5161 64.3655C24.6261 67.0381 23.3104 69.5493 21.6196 71.8024C21.5005 71.9615 21.3458 72.0906 21.168 72.1794C20.9902 72.2683 20.7941 72.3143 20.5953 72.3141Z" fill="#9E785D" fill-opacity="1.000000" fill-rule="nonzero"/>
	<path id="Vector" d="M30.6987 19.1883C31.9013 18.7875 33.0021 18.1294 33.9244 17.2598C34.8468 16.3903 35.5685 15.3301 36.0394 14.1531L37.0948 11.513L30.6987 10.2338L30.6987 19.1883Z" fill="#834B10" fill-opacity="1.000000" fill-rule="nonzero"/>
	<path id="Vector" d="M37.0947 11.513L37.2446 11.7377C38.7725 14.0295 40.8426 15.9088 43.2711 17.2085C45.6997 18.5082 48.4116 19.1883 51.1661 19.1883L51.1661 10.2338L37.0947 11.513Z" fill="#834B10" fill-opacity="1.000000" fill-rule="nonzero"/>
	<path id="Vector" d="M37.7344 21.7467C37.7344 22.6298 37.0184 23.3458 36.1353 23.3458C35.2522 23.3458 34.5363 22.6298 34.5363 21.7467C34.5363 20.8636 35.2522 20.1477 36.1353 20.1477C37.0184 20.1477 37.7344 20.8636 37.7344 21.7467Z" fill="#834B10" fill-opacity="1.000000" fill-rule="evenodd"/>
	<path id="Vector" d="M47.3286 21.7467C47.3286 22.6298 46.6126 23.3458 45.7295 23.3458C44.8464 23.3458 44.1305 22.6298 44.1305 21.7467C44.1305 20.8636 44.8464 20.1477 45.7295 20.1477C46.6126 20.1477 47.3286 20.8636 47.3286 21.7467Z" fill="#834B10" fill-opacity="1.000000" fill-rule="evenodd"/>
	<path id="Vector" d="M40.9325 28.1427L38.374 28.1427C38.1559 28.1427 37.9415 28.087 37.7511 27.9808C37.5607 27.8746 37.4005 27.7215 37.2859 27.536C37.1713 27.3505 37.106 27.1388 37.0961 26.921C37.0864 26.7031 37.1324 26.4864 37.2299 26.2914L39.7884 21.1745C39.8627 21.0229 39.9663 20.8876 40.0932 20.7762C40.2201 20.6649 40.3678 20.5797 40.5278 20.5257C40.6877 20.4717 40.8568 20.4499 41.0252 20.4615C41.1936 20.4732 41.3581 20.5181 41.5091 20.5936C41.6601 20.6691 41.7946 20.7737 41.905 20.9015C42.0154 21.0293 42.0994 21.1776 42.1521 21.338C42.2048 21.4984 42.2253 21.6676 42.2124 21.8359C42.1994 22.0043 42.1533 22.1683 42.0766 22.3188L40.4438 25.5843L40.9325 25.5843C41.2717 25.5843 41.5971 25.7191 41.837 25.959C42.0769 26.1989 42.2117 26.5242 42.2117 26.8635C42.2117 27.2028 42.0769 27.5281 41.837 27.7681C41.5971 28.0079 41.2717 28.1427 40.9325 28.1427Z" fill="#834B10" fill-opacity="1.000000" fill-rule="nonzero"/>
	<path id="Vector" d="M48.6078 52.4479C48.2685 52.4479 47.9431 52.3131 47.7032 52.0732C47.4633 51.8334 47.3286 51.5079 47.3286 51.1687L47.3286 42.2141C47.3286 41.8749 47.4633 41.5496 47.7032 41.3096C47.9431 41.0697 48.2685 40.9349 48.6078 40.9349C48.947 40.9349 49.2724 41.0697 49.5123 41.3096C49.7522 41.5496 49.887 41.8749 49.887 42.2141L49.887 51.1687C49.887 51.5079 49.7522 51.8334 49.5123 52.0732C49.2724 52.3131 48.947 52.4479 48.6078 52.4479Z" fill="#C3C3C3" fill-opacity="1.000000" fill-rule="nonzero"/>
	<path id="Vector" d="M52.4453 55.0063C52.4453 57.1259 50.7272 58.844 48.6077 58.844C46.4882 58.844 44.77 57.1259 44.77 55.0063C44.77 52.8868 46.4882 51.1687 48.6077 51.1687C50.7272 51.1687 52.4453 52.8868 52.4453 55.0063Z" fill="#E4E4E2" fill-opacity="1.000000" fill-rule="evenodd"/>
	<path id="Vector" d="M49.887 55.0063C49.887 55.7129 49.3143 56.2856 48.6078 56.2856C47.9013 56.2856 47.3286 55.7129 47.3286 55.0063C47.3286 54.2999 47.9013 53.7272 48.6078 53.7272C49.3143 53.7272 49.887 54.2999 49.887 55.0063Z" fill="#C3C3C3" fill-opacity="1.000000" fill-rule="evenodd"/>
	<path id="Vector" d="M53.7246 75.4738L34.5363 75.4738C33.5185 75.4738 32.5424 75.0695 31.8227 74.3497C31.103 73.63 30.6987 72.6539 30.6987 71.6361C30.6987 70.6183 31.103 69.6421 31.8227 68.9225C32.5424 68.2028 33.5185 67.7985 34.5363 67.7985L35.8156 67.7985C35.8156 67.1199 36.0851 66.4691 36.5649 65.9894C37.0447 65.5095 37.6954 65.24 38.374 65.24L38.5935 65.24C39.272 65.24 39.9227 65.5095 40.4025 65.9893L42.2116 67.7985L53.7246 67.7985L53.7246 75.4738Z" fill="#F6BB92" fill-opacity="1.000000" fill-rule="nonzero"/>
	<path id="Vector" d="M11.1733 69.5353C10.9843 69.954 10.8878 70.4084 10.8906 70.8678C10.8933 71.3271 10.9952 71.7805 11.1892 72.1969C11.3832 72.6133 11.6649 72.9829 12.0148 73.2804C12.3648 73.5779 12.7748 73.7964 13.217 73.9209L18.1411 75.3121C19.1205 75.5889 20.1697 75.4652 21.058 74.9684C21.9463 74.4716 22.6008 73.6422 22.8777 72.6628C23.1544 71.6835 23.0307 70.6343 22.5339 69.7461C22.037 68.8578 21.2078 68.2034 20.2284 67.9265L18.9971 67.5787C19.0886 67.2554 19.1154 66.9172 19.076 66.5836C19.0367 66.2499 18.9321 65.9272 18.7681 65.634C18.6041 65.3408 18.384 65.0828 18.1202 64.8745C17.8565 64.6664 17.5544 64.5122 17.231 64.4209L17.0198 64.3612C16.6965 64.2698 16.3583 64.243 16.0247 64.2823C15.691 64.3217 15.3683 64.4263 15.0751 64.5903C13.6249 65.4016 12.4731 66.6566 11.7892 68.171L11.1733 69.5353Z" fill="#F6BB92" fill-opacity="1.000000" fill-rule="nonzero"/>
	<path id="Vector" d="M4.50977 34.3479C5.36139 34.348 6.1781 34.6863 6.78033 35.2885L8.39825 36.9064L10.016 35.2885C10.6182 34.6863 11.4349 34.348 12.2866 34.3479C13.0028 34.3479 13.6984 34.5873 14.2629 35.0281C14.8275 35.4689 15.2285 36.0857 15.4021 36.7805C15.5985 37.566 15.5472 38.3932 15.2552 39.1484C14.9633 39.9038 14.4449 40.5503 13.7711 40.9995L8.39838 44.5813L3.0257 40.9995C2.35193 40.5503 1.8335 39.9038 1.5415 39.1486C1.24951 38.3932 1.19824 37.566 1.39465 36.7805C1.56836 36.0857 1.96924 35.469 2.53363 35.0282C3.09808 34.5874 3.79364 34.348 4.50977 34.3479Z" fill="#DC4D41" fill-opacity="1.000000" fill-rule="nonzero"/>
	<path id="Vector" d="M30.6987 19.1882L31.9779 19.1882L31.9779 26.8635L30.6987 26.8635L30.6987 19.1882Z" fill="#EEB58E" fill-opacity="1.000000" fill-rule="nonzero"/>
	<path id="Vector" d="M49.8869 19.1882L51.1661 19.1882L51.1661 26.8635L49.8869 26.8635L49.8869 19.1882Z" fill="#EEB58E" fill-opacity="1.000000" fill-rule="nonzero"/>
	<path id="Vector" d="M35.9741 41.0751L40.9324 46.0519L45.839 41.1132C45.5403 41.0634 45.2689 40.9092 45.0732 40.6782C44.8774 40.4471 44.77 40.1542 44.77 39.8513L44.77 35.8181L37.0947 35.8181L37.0947 39.8058C37.0947 40.1176 36.9808 40.4186 36.7745 40.6523C36.5681 40.8861 36.2835 41.0364 35.9741 41.0751Z" fill="#F6BB92" fill-opacity="1.000000" fill-rule="nonzero"/>
	<path id="Vector" d="M40.9324 37.0974C38.5576 37.0974 36.2799 36.1539 34.6006 34.4746C32.9213 32.7954 31.9779 30.5178 31.9779 28.1429L31.9779 26.8636L49.887 26.8636L49.887 28.1429C49.887 30.5178 48.9435 32.7954 47.2642 34.4746C45.585 36.1539 43.3073 37.0974 40.9324 37.0974Z" fill="#85BC94" fill-opacity="1.000000" fill-rule="nonzero"/>
	<path id="Vector" d="M26.861 49.8894C26.861 50.5959 26.2883 51.1687 25.5818 51.1687C24.8753 51.1687 24.3026 50.5959 24.3026 49.8894C24.3026 49.183 24.8753 48.6102 25.5818 48.6102C26.2883 48.6102 26.861 49.183 26.861 49.8894Z" fill="#9E785D" fill-opacity="1.000000" fill-rule="evenodd"/>
	<path id="Vector" d="M37.7344 21.7467C37.7344 22.6298 37.0184 23.3458 36.1353 23.3458C35.2522 23.3458 34.5363 22.6298 34.5363 21.7467C34.5363 20.8636 35.2522 20.1477 36.1353 20.1477C37.0184 20.1477 37.7344 20.8636 37.7344 21.7467Z" fill="#000000" fill-opacity="1.000000" fill-rule="evenodd"/>
	<path id="Vector" d="M47.3286 21.7467C47.3286 22.6298 46.6126 23.3458 45.7295 23.3458C44.8464 23.3458 44.1305 22.6298 44.1305 21.7467C44.1305 20.8636 44.8464 20.1477 45.7295 20.1477C46.6126 20.1477 47.3286 20.8636 47.3286 21.7467Z" fill="#000000" fill-opacity="1.000000" fill-rule="evenodd"/>
	<path id="Vector" d="M49.887 55.0063C49.887 55.7129 49.3143 56.2856 48.6078 56.2856C47.9013 56.2856 47.3286 55.7129 47.3286 55.0063C47.3286 54.2999 47.9013 53.7272 48.6078 53.7272C49.3143 53.7272 49.887 54.2999 49.887 55.0063Z" fill="#000000" fill-opacity="1.000000" fill-rule="evenodd"/>
	<path id="Vector" d="M58.319 43.2375L59.4997 40.4412C60.1152 38.9872 60.2817 37.3823 59.9778 35.833C59.6738 34.2837 58.9134 32.8606 57.7942 31.7469C57.2941 31.2474 56.8975 30.6541 56.627 30.0011C56.3564 29.3481 56.2173 28.6481 56.2175 27.9413L56.2831 15.3506C56.2831 11.2794 54.6658 7.37488 51.787 4.49609C48.9082 1.61731 45.0037 0 40.9325 0C36.8613 0 32.9568 1.61731 30.0779 4.49609C27.1992 7.37488 25.5818 11.2794 25.5818 15.3506L25.5818 27.9413C25.5777 29.3679 25.0114 30.7352 24.0057 31.7469C22.8895 32.8624 22.131 34.2852 21.8272 35.8336C21.5234 37.3821 21.6879 38.9861 22.2999 40.4406L22.8873 41.8378C20.8436 43.1691 19.2461 45.0825 18.301 47.3311L14.7869 47.3311C14.2037 47.3292 13.6278 47.4612 13.1036 47.7169C12.5794 47.9725 12.1208 48.3451 11.7633 48.8058C11.6721 48.9222 11.5877 49.0438 11.5105 49.1699C11.1301 49.7888 10.9349 50.5037 10.9481 51.23C10.9536 51.5234 10.9923 51.8154 11.0635 52.1001L11.2283 52.7589L11.8581 55.2781C12.2023 56.6626 13.0003 57.8921 14.1248 58.7703C15.2493 59.6484 16.6356 60.1248 18.0623 60.123L19.8032 60.123L18.6519 62.8104C18.5535 63.0405 18.4493 63.2699 18.3426 63.4988C18.0998 63.3688 17.8438 63.2651 17.5789 63.1895L17.3674 63.1298C16.8826 62.9913 16.3752 62.9504 15.8745 63.0094C15.3738 63.0685 14.8898 63.2262 14.4504 63.4735C12.764 64.4218 11.4234 65.8826 10.6234 67.6443L10.0073 69.0087C9.65967 69.778 9.53711 70.63 9.65369 71.4662C9.77026 72.3022 10.1213 73.0883 10.666 73.7332C10.4197 74.0784 10.1824 74.428 9.95428 74.7817C9.82996 74.9751 9.76001 75.1982 9.75177 75.428C9.74353 75.6576 9.7973 75.8853 9.90741 76.0869C10.0176 76.2886 10.18 76.4569 10.3777 76.5741C10.5754 76.6914 10.801 76.7532 11.0308 76.7531L55.0038 76.7531C56.6996 76.7512 58.3254 76.0767 59.5245 74.8776C60.7236 73.6785 61.3981 72.0527 61.4 70.3569L61.4 49.995C61.4001 48.7137 61.1251 47.4474 60.5936 46.2816C60.0621 45.1157 59.2864 44.0776 58.319 43.2375ZM58.8416 49.995L58.8416 55.0063L54.1323 55.0063C53.9936 54.8226 53.8499 54.6426 53.6964 54.4701C53.5855 53.4337 53.1616 52.4558 52.4811 51.6664C51.8005 50.8771 50.8957 50.3137 49.887 50.0515L49.887 43.0845L52.235 43.476L52.2363 43.476L53.4969 43.6869C54.9907 43.9348 56.3478 44.7051 57.3267 45.8604C58.3055 47.0156 58.8423 48.4808 58.8416 49.995ZM51.4568 64.4285C51.4512 64.4353 51.4462 64.4429 51.4408 64.4498C51.4205 64.4758 51.4005 64.5017 51.3821 64.5298C51.3776 64.5367 51.374 64.5439 51.3694 64.5508C51.3512 64.5791 51.3336 64.6077 51.3176 64.6375C51.3149 64.6423 51.3129 64.6478 51.3101 64.6534C51.2941 64.6854 51.2781 64.7174 51.2639 64.7511C51.2625 64.7545 51.2615 64.7582 51.2601 64.7615C51.2458 64.7965 51.2329 64.8322 51.2217 64.8687C51.2206 64.8724 51.22 64.8765 51.2188 64.8801C51.2083 64.9161 51.1987 64.9524 51.1913 64.9897C51.1893 64.9998 51.1885 65.0104 51.1865 65.0204C51.1813 65.0513 51.1758 65.0822 51.1726 65.1136C51.1685 65.1559 51.1662 65.1985 51.1662 65.2416L51.1662 66.5208L42.7416 66.5208L41.3077 65.0869C41.1898 64.9701 41.0645 64.8611 40.9325 64.7604L40.9325 50.9369C40.9327 49.6456 40.7109 48.364 40.2769 47.1479C40.5476 47.3113 40.8694 47.368 41.1797 47.3073C41.49 47.2466 41.7666 47.0726 41.9559 46.8193L45.3398 42.3074C45.4344 42.3352 45.5306 42.3574 45.6277 42.3743L47.3286 42.6577L47.3286 50.0515C46.5267 50.2581 45.7869 50.6562 45.1728 51.2118C44.5587 51.7673 44.0886 52.4636 43.8028 53.2408C43.517 54.0181 43.4242 54.853 43.5322 55.6741C43.6403 56.495 43.9459 57.2776 44.423 57.9545C44.9001 58.6312 45.5344 59.1823 46.2712 59.5599C47.0082 59.9377 47.8257 60.131 48.6538 60.1232C49.4819 60.1152 50.2957 59.9066 51.0253 59.5149C51.7549 59.1233 52.3786 58.5604 52.8428 57.8746C53.2861 58.96 53.399 60.152 53.1675 61.3013C52.936 62.4504 52.3703 63.5057 51.5414 64.3347C51.5116 64.3647 51.4835 64.396 51.4568 64.4285ZM30.6962 20.4675L30.6987 20.4675L30.6987 25.5844C30.3627 25.5845 30.03 25.5185 29.7195 25.3901C29.4091 25.2617 29.127 25.0734 28.8893 24.8359C28.4092 24.3563 28.1393 23.7057 28.139 23.0272C28.1387 22.3486 28.4079 21.6978 28.8875 21.2177C29.367 20.7377 30.0176 20.4678 30.6962 20.4675ZM53.7247 23.0259C53.7239 23.7042 53.454 24.3545 52.9744 24.8341C52.4948 25.3137 51.8445 25.5836 51.1662 25.5844L51.1662 20.4675C51.8445 20.4683 52.4948 20.7381 52.9744 21.2177C53.454 21.6973 53.7239 22.3477 53.7247 23.0259ZM48.6078 25.5844L40.4438 25.5844L42.0766 22.3188C42.1533 22.1684 42.1994 22.0043 42.2124 21.836C42.2253 21.6677 42.2048 21.4984 42.1521 21.3381C42.0994 21.1777 42.0154 21.0294 41.905 20.9016C41.7947 20.7738 41.6601 20.6691 41.5091 20.5936C41.3581 20.5181 41.1936 20.4733 41.0252 20.4616C40.8568 20.45 40.6877 20.4717 40.5278 20.5258C40.3678 20.5798 40.2201 20.6649 40.0932 20.7762C39.9663 20.8876 39.8627 21.023 39.7884 21.1746L37.5835 25.5844L33.2572 25.5844L33.2572 19.3827C35.0506 18.2581 36.4407 16.5931 37.2272 14.6277L37.4327 14.114C40.2698 17.4779 44.2495 19.6753 48.6078 20.2842L48.6078 25.5844ZM38.3675 28.1428L38.3731 28.1428L38.3776 28.1428L48.6078 28.1428C48.6078 30.1784 47.7991 32.1306 46.3597 33.5701C44.9203 35.0094 42.9681 35.8181 40.9325 35.8181C38.8969 35.8181 36.9446 35.0094 35.5052 33.5701C34.0658 32.1306 33.2572 30.1784 33.2572 28.1428L38.3675 28.1428ZM40.9325 38.3766C41.7955 38.3771 42.6552 38.2682 43.4909 38.0527L43.4909 39.8508C43.4916 40.0427 43.5136 40.2339 43.5566 40.4209L40.9325 43.9198L38.2994 40.4091C38.3482 40.2118 38.3733 40.0093 38.374 39.806L38.374 38.0527C39.2098 38.2682 40.0694 38.3771 40.9325 38.3766ZM38.374 54.7985C38.374 55.4771 38.1045 56.1278 37.6247 56.6075C37.1449 57.0874 36.4941 57.3569 35.8156 57.3569C35.1371 57.3569 34.4863 57.0874 34.0065 56.6075C33.5267 56.1278 33.2572 55.4771 33.2572 54.7985L33.2572 49.8895L36.5651 49.8895L38.374 51.6985L38.374 54.7985ZM51.1662 55.0063C51.1662 55.5123 51.0162 56.007 50.735 56.4277C50.4539 56.8485 50.0543 57.1764 49.5869 57.37C49.1194 57.5637 48.6049 57.6144 48.1086 57.5156C47.6124 57.4169 47.1565 57.1732 46.7987 56.8154C46.4409 56.4576 46.1972 56.0018 46.0985 55.5055C45.9998 55.0092 46.0505 54.4948 46.2441 54.0273C46.4377 53.5598 46.7657 53.1603 47.1864 52.8792C47.6071 52.598 48.1017 52.4479 48.6078 52.4479C49.2861 52.4487 49.9364 52.7185 50.416 53.1981C50.8956 53.6777 51.1655 54.328 51.1662 55.0063ZM57.1418 39.4479L56.1334 41.8361C55.4274 41.5166 54.6826 41.2905 53.9182 41.1636L52.6568 40.9528L52.6559 40.9528L46.0494 39.8508L46.0494 36.9998C47.604 36.1018 48.8951 34.8107 49.7932 33.2561C50.6913 31.7015 51.1649 29.9382 51.1662 28.1428C52.0392 28.1435 52.8978 27.9194 53.6591 27.4921L53.6591 27.9413C53.6589 28.9843 53.8643 30.0171 54.2636 30.9806C54.6629 31.9441 55.2483 32.8195 55.9861 33.5566C56.7444 34.3113 57.2596 35.2756 57.4655 36.3254C57.6714 37.3752 57.5587 38.4626 57.1418 39.4479ZM40.9325 2.55841C44.325 2.55914 47.5782 3.9071 49.9771 6.30597C52.376 8.70483 53.7239 11.9581 53.7247 15.3506L53.7247 18.5974C52.9477 18.1459 52.0649 17.9083 51.1662 17.9091C50.7665 17.9091 50.3698 17.8931 49.9846 17.8632C47.6458 17.6916 45.3775 16.9863 43.3538 15.8016C41.33 14.6169 39.6046 12.9843 38.3101 11.0289L38.1598 10.8035C38.0305 10.6095 37.8506 10.4545 37.6397 10.3553C37.4287 10.2562 37.1947 10.2165 36.9628 10.2407C36.731 10.2648 36.5101 10.3518 36.3242 10.4924C36.1381 10.6329 35.9941 10.8216 35.9075 11.038L34.8522 13.678C34.4622 14.6551 33.8691 15.5381 33.1121 16.2686C32.3552 16.9991 31.4516 17.5605 30.4613 17.9155C29.644 17.9525 28.8478 18.1865 28.1403 18.5974L28.1403 15.3506C28.1442 11.9591 29.4932 8.70758 31.8913 6.30945C34.2895 3.91125 37.541 2.56232 40.9325 2.55841ZM25.8148 33.5566C26.5545 32.8209 27.1409 31.9458 27.54 30.9819C27.9392 30.018 28.1432 28.9846 28.1403 27.9413L28.1403 27.4552C28.9174 27.9065 29.8002 28.1437 30.6987 28.1428C30.7001 29.9381 31.1736 31.7015 32.0718 33.2561C32.9698 34.8107 34.261 36.1018 35.8156 36.9998L35.8156 39.8063L32.9543 40.1636C32.7122 40.0885 32.4651 40.0176 32.2109 39.9573C29.8469 39.3986 27.3654 39.6202 25.1378 40.5894L24.6581 39.4495C24.2431 38.4636 24.1315 37.3763 24.3375 36.3267C24.5435 35.277 25.0577 34.3125 25.8145 33.5566L25.8148 33.5566ZM14.7869 49.8895L15.3481 49.8895L15.3481 50.1564C15.3478 50.4248 15.2411 50.6821 15.0513 50.8718C14.8615 51.0616 14.6042 51.1685 14.3358 51.1687L13.5093 51.1687C13.5093 51.1609 13.5093 51.1527 13.5102 51.1454C13.5112 51.0918 13.5156 51.0385 13.5232 50.9855C13.5254 50.9695 13.5275 50.9535 13.5303 50.9375C13.5411 50.8765 13.5563 50.8164 13.5759 50.7576C13.578 50.7513 13.5811 50.7455 13.5831 50.7393C13.6025 50.6859 13.6254 50.6339 13.6516 50.5836C13.6591 50.5688 13.667 50.5543 13.675 50.5399C13.7061 50.4841 13.7412 50.4307 13.7802 50.3801C13.8993 50.2268 14.052 50.1029 14.2265 50.0178C14.4011 49.9329 14.5927 49.8889 14.7869 49.8895ZM24.3027 60.1233C24.4706 60.1233 24.637 60.0902 24.7922 60.0259C24.9474 59.9615 25.0884 59.8673 25.2072 59.7485L27.7656 57.1902C27.8845 57.0714 27.9787 56.9303 28.043 56.7751C28.1072 56.6199 28.1403 56.4536 28.1403 56.2855C28.1403 56.1176 28.1072 55.9513 28.043 55.796C27.9787 55.6409 27.8845 55.4998 27.7656 55.381C27.6469 55.2622 27.5059 55.168 27.3506 55.1038C27.1954 55.0394 27.0291 55.0063 26.8611 55.0063C26.6931 55.0063 26.5267 55.0394 26.3715 55.1038C26.2163 55.168 26.0753 55.2622 25.9565 55.381L23.7729 57.5648L18.0633 57.5648C17.2072 57.5658 16.3754 57.28 15.7007 56.7531C15.026 56.2262 14.5472 55.4884 14.3408 54.6576L14.1083 53.7272L14.3358 53.7272C15.2825 53.7261 16.1901 53.3495 16.8595 52.6801C17.5289 52.0106 17.9055 51.103 17.9066 50.1564L17.9066 49.8895L19.1858 49.8895C19.4542 49.8895 19.7159 49.8049 19.9337 49.6481C20.1515 49.4911 20.3144 49.2695 20.3993 49.0148C21.1271 46.8286 22.6132 44.975 24.5887 43.7891L25.1512 43.4532C27.0939 42.2874 29.415 41.9263 31.6201 42.4468C31.898 42.5127 32.1667 42.5902 32.4263 42.6793C32.7936 42.8038 33.1521 42.9528 33.4995 43.1252L33.5674 43.1602C34.1478 43.4502 34.6935 43.8049 35.1942 44.2177C35.2075 44.2286 35.2211 44.2395 35.2349 44.2496C36.2794 45.1157 37.106 46.215 37.6481 47.459C37.4756 47.3754 37.2865 47.3317 37.0948 47.3311L31.978 47.3311C31.6387 47.3311 31.3133 47.4658 31.0734 47.7057C30.8335 47.9457 30.6987 48.271 30.6987 48.6102L30.6987 54.7985C30.6962 55.6976 30.931 56.5815 31.3796 57.3607C31.8282 58.14 32.4746 58.787 33.2534 59.2363C34.0323 59.6855 34.916 59.9213 35.8151 59.9194C36.7142 59.9177 37.597 59.6786 38.374 59.2262L38.374 63.9609C37.5801 63.9606 36.8056 64.2065 36.1572 64.6647C35.5088 65.1229 35.0184 65.7709 34.7535 66.5193L34.5364 66.5193C33.638 66.5187 32.7552 66.7548 31.9771 67.2037C31.199 67.6527 30.5529 68.299 30.1039 69.077C29.6548 69.8552 29.4188 70.738 29.4196 71.6364C29.4203 72.5348 29.6577 73.4171 30.1079 74.1946L23.6082 74.1946C24.0775 73.3864 24.3166 72.4651 24.2997 71.5306C24.2828 70.5962 24.0104 69.6841 23.5123 68.8934C24.3211 67.4504 24.9922 65.9346 25.5166 64.3657C25.624 64.0439 25.5991 63.6926 25.4475 63.3892C25.2958 63.0856 25.0298 62.8547 24.708 62.7474C24.3862 62.64 24.0349 62.6649 23.7313 62.8165C23.4279 62.9681 23.197 63.2341 23.0897 63.556C22.6822 64.7751 22.1765 65.9592 21.5775 67.0966C21.259 66.9279 20.9236 66.7933 20.5769 66.6952L20.3678 66.636C20.3453 66.2856 20.2744 65.9399 20.1569 65.609C20.4633 65.0198 20.7476 64.4192 21.0043 63.817L22.5874 60.1233L24.3027 60.1233ZM12.3394 70.0616L12.9555 68.6971C13.5293 67.4342 14.4905 66.3868 15.6998 65.707C15.8463 65.6248 16.0075 65.5721 16.1744 65.5525C16.3412 65.5328 16.5104 65.5464 16.6719 65.5924L16.8834 65.6522C17.2097 65.7448 17.4859 65.9629 17.6514 66.2589C17.817 66.5549 17.8584 66.9045 17.7665 67.2311C17.6742 67.5575 17.7154 67.9072 17.881 68.2034C18.0466 68.4994 18.323 68.7177 18.6495 68.8099L19.8807 69.1578C20.5299 69.3456 21.0784 69.7826 21.4065 70.3734C21.7346 70.9642 21.8156 71.6608 21.6319 72.3112C21.4482 72.9614 21.0146 73.5127 20.4258 73.8445C19.8371 74.1763 19.1411 74.2616 18.4896 74.0819L13.5646 72.6908C13.2996 72.6161 13.054 72.4852 12.8442 72.3069C12.6346 72.1287 12.4658 71.9072 12.3496 71.6577C12.2333 71.4082 12.1723 71.1366 12.1707 70.8613C12.1691 70.5861 12.2269 70.3137 12.3402 70.0629L12.3394 70.0616ZM58.8416 70.3569C58.8403 71.3744 58.4356 72.3499 57.7162 73.0693C56.9968 73.7887 56.0213 74.1935 55.0038 74.1946L34.5364 74.1946C33.8578 74.1946 33.2071 73.925 32.7273 73.4453C32.2475 72.9655 31.978 72.3147 31.978 71.6362C31.978 70.9576 32.2475 70.3069 32.7273 69.8271C33.2071 69.3473 33.8578 69.0778 34.5364 69.0778L35.8156 69.0778C36.1549 69.0778 36.4802 68.943 36.7202 68.7031C36.96 68.4631 37.0948 68.1378 37.0948 67.7986C37.0944 67.6305 37.1273 67.4639 37.1914 67.3085C37.2556 67.1532 37.3497 67.012 37.4686 66.8931C37.5875 66.7742 37.7286 66.6801 37.884 66.6158C38.0394 66.5518 38.2059 66.5189 38.374 66.5193L38.5931 66.5193C38.9323 66.5219 39.2571 66.6565 39.4987 66.8947L41.3071 68.7031C41.4259 68.8219 41.567 68.9161 41.7222 68.9803C41.8774 69.0447 42.0437 69.0778 42.2117 69.0778L52.4454 69.0778C52.7847 69.0778 53.1101 68.943 53.35 68.7031C53.5899 68.4631 53.7247 68.1378 53.7247 67.7986L53.7247 65.7457C54.6911 64.6453 55.3577 63.3145 55.6602 61.8816C55.9626 60.4486 55.8908 58.9619 55.4516 57.5648L58.8416 57.5648L58.8416 70.3569Z" fill="#000000" fill-opacity="1.000000" fill-rule="nonzero"/>
	<path id="Vector" d="M16.6433 36.4703C16.4505 35.6995 16.0566 34.9937 15.5018 34.4247C14.9471 33.8558 14.2513 33.4443 13.4856 33.2323C12.7198 33.0201 11.9116 33.015 11.1431 33.2173C10.3748 33.4197 9.67383 33.8223 9.11188 34.384L8.39874 35.0973L7.68542 34.384C7.12347 33.8223 6.42255 33.4196 5.65417 33.2172C4.8858 33.0148 4.07745 33.0199 3.31171 33.2321C2.54596 33.4441 1.85016 33.8556 1.29541 34.4246C0.740662 34.9934 0.346802 35.6993 0.153992 36.4702C-0.104858 37.5117 -0.0361328 38.6078 0.350769 39.6089C0.737671 40.61 1.42395 41.4673 2.31604 42.064L7.68878 45.6459C7.89886 45.7859 8.14575 45.8607 8.39832 45.8607C8.65088 45.8607 8.89777 45.7859 9.10791 45.6459L14.4806 42.064C15.3727 41.4674 16.0592 40.6101 16.4462 39.609C16.8333 38.608 16.9021 37.512 16.6433 36.4703ZM13.0615 39.9352L8.39795 43.0442L3.73486 39.9352C3.28119 39.6318 2.93213 39.1958 2.73535 38.6868C2.53857 38.1776 2.5036 37.6202 2.63519 37.0906C2.7182 36.7589 2.8877 36.4552 3.12646 36.2103C3.36517 35.9656 3.66455 35.7886 3.99408 35.6973C4.32361 35.6061 4.67145 35.6039 5.00208 35.6909C5.3327 35.7781 5.63428 35.9513 5.8761 36.193L7.49384 37.8109C7.61261 37.9297 7.75366 38.0239 7.90887 38.0883C8.06409 38.1526 8.23041 38.1857 8.39838 38.1857C8.56641 38.1857 8.73273 38.1526 8.88794 38.0883C9.04315 38.0239 9.1842 37.9297 9.30298 37.8109L10.9207 36.193C11.1625 35.9513 11.4641 35.778 11.7947 35.6908C12.1254 35.6038 12.4733 35.606 12.8028 35.6973C13.1323 35.7885 13.4318 35.9656 13.6705 36.2104C13.9092 36.4552 14.0787 36.759 14.1616 37.0907C14.2932 37.6205 14.2581 38.1779 14.0612 38.6869C13.8643 39.1959 13.5152 39.6318 13.0615 39.9352Z" fill="#000000" fill-opacity="1.000000" fill-rule="nonzero"/>
	<path id="Vector" d="M26.861 49.8894C26.861 50.5959 26.2883 51.1687 25.5818 51.1687C24.8753 51.1687 24.3026 50.5959 24.3026 49.8894C24.3026 49.183 24.8753 48.6102 25.5818 48.6102C26.2883 48.6102 26.861 49.183 26.861 49.8894Z" fill="#000000" fill-opacity="1.000000" fill-rule="evenodd"/>
</svg>
