<svg width="75.937500" height="75.937500" viewBox="0 0 75.9375 75.9375" fill="none" xmlns="http://www.w3.org/2000/svg" xmlns:xlink="http://www.w3.org/1999/xlink">
	<desc>
			Created with Pixso.
	</desc>
	<defs/>
	<path id="Vector" d="M74.6719 18.9844L74.6719 56.9531L56.9531 56.9531L56.9531 74.6719L18.9844 74.6719L18.9844 56.9531L1.26562 56.9531L1.26562 18.9844L18.9844 18.9844L18.9844 1.26562L56.9531 1.26562L56.9531 18.9844L74.6719 18.9844Z" fill="#6B9777" fill-opacity="1.000000" fill-rule="nonzero"/>
	<path id="Vector" d="M72.1406 18.9844L72.1406 56.9531L54.4219 56.9531L54.4219 74.6719L18.9844 74.6719L18.9844 56.9531L1.26562 56.9531L1.26562 18.9844L18.9844 18.9844L18.9844 1.26562L54.4219 1.26562L54.4219 18.9844L72.1406 18.9844Z" fill="#85BC94" fill-opacity="1.000000" fill-rule="nonzero"/>
	<path id="Vector" d="M20.25 50.625L18.9844 50.625C17.8999 50.625 16.8465 50.2625 15.9917 49.5951C15.1369 48.9276 14.5297 47.9937 14.2666 46.9415L12.6563 40.5L11.8178 41.3385C10.899 42.2572 10.2068 43.3772 9.79592 44.6099C9.38505 45.8424 9.26682 47.1538 9.45059 48.4401C9.88205 51.4602 11.4955 54.1852 13.9361 56.0157C14.7483 56.6245 15.7359 56.9534 16.7509 56.9531L20.25 56.9531L20.25 50.625Z" fill="#744630" fill-opacity="1.000000" fill-rule="nonzero"/>
	<path id="Vector" d="M53.1562 72.1406L51.8906 74.6719L18.9844 74.6719L18.9844 55.9564C18.9843 53.2637 19.418 50.5885 20.269 48.0337L20.9587 45.9659C22.1551 42.373 24.1722 39.1084 26.8502 36.431L26.9436 36.3376C29.2065 34.0786 31.0167 31.4076 32.2766 28.4687C32.7734 27.3106 33.2685 26.1526 33.6292 25.3125C33.9567 24.5484 34.1719 24.0469 34.1719 24.0469L30.53 24.0469C29.4014 24.0457 28.3054 23.6678 27.4159 22.9731C26.5263 22.2785 25.8941 21.3068 25.6194 20.212L24.9961 17.7188L24.8331 17.067C24.7399 16.6938 24.7329 16.3043 24.8127 15.9281C24.8924 15.5518 25.0569 15.1987 25.2936 14.8955C25.5303 14.5923 25.833 14.347 26.1786 14.1783C26.5243 14.0096 26.9038 13.9219 27.2885 13.9219L31.6406 13.9219C32.4567 11.4714 34.1228 9.39386 36.3377 8.06525L36.8914 7.73456C38.3148 6.88092 39.9305 6.3999 41.5891 6.33606C43.2476 6.27216 44.8955 6.6275 46.3804 7.36914L46.4358 7.39758C48.0749 8.21722 49.4534 9.47705 50.4168 11.0359C51.3802 12.5948 51.8906 14.3912 51.8906 16.2238L51.8906 70.875L53.1562 72.1406Z" fill="#F3AF3E" fill-opacity="1.000000" fill-rule="nonzero"/>
	<path id="Vector" d="M25.9453 74.6719C24.4353 74.6702 22.9877 74.0696 21.92 73.002C20.8522 71.9342 20.2517 70.4866 20.25 68.9766L20.25 68.0273C20.2521 67.1436 20.4589 66.2722 20.8542 65.4818C21.2494 64.6913 21.8224 64.0031 22.5281 63.4711C23.3908 62.8209 24.0911 61.9799 24.5742 61.0137C25.0573 60.0475 25.31 58.9825 25.3125 57.9023L25.3125 56.9531C25.3125 56.6174 25.4458 56.2955 25.6832 56.0582C25.9205 55.8208 26.2425 55.6875 26.5781 55.6875C26.9138 55.6875 27.2357 55.8208 27.4731 56.0582C27.7104 56.2955 27.8438 56.6174 27.8438 56.9531L27.8438 57.9023C27.8402 59.3754 27.4956 60.8275 26.8369 62.145C26.1781 63.4625 25.2232 64.6095 24.0469 65.4961C23.6548 65.7916 23.3365 66.174 23.117 66.6132C22.8974 67.0524 22.7825 67.5364 22.7812 68.0273L22.7812 68.9766C22.7812 69.8157 23.1146 70.6205 23.708 71.2139C24.3014 71.8073 25.1062 72.1406 25.9453 72.1406C26.7845 72.1406 27.5893 71.8073 28.1826 71.2139C28.776 70.6205 29.1094 69.8157 29.1094 68.9766L29.1094 68.3438C29.1105 67.3372 29.511 66.3721 30.2227 65.6603C30.9345 64.9485 31.8996 64.5481 32.9062 64.5469C33.2419 64.5469 33.5638 64.6802 33.8012 64.9176C34.0385 65.1549 34.1719 65.4768 34.1719 65.8125C34.1719 66.1482 34.0385 66.4701 33.8012 66.7074C33.5638 66.9448 33.2419 67.0781 32.9062 67.0781C32.5707 67.0785 32.249 67.2119 32.0117 67.4492C31.7745 67.6865 31.641 68.0082 31.6406 68.3438L31.6406 68.9766C31.6389 70.4866 31.0384 71.9342 29.9707 73.002C28.9029 74.0696 27.4553 74.6702 25.9453 74.6719Z" fill="#CD761F" fill-opacity="1.000000" fill-rule="nonzero"/>
	<path id="Vector" d="M53.1562 72.1406L51.8906 74.6719L38.3532 74.6719C37.3055 74.6719 36.268 74.4656 35.3 74.0647C34.332 73.6637 33.4525 73.076 32.7117 72.3352C31.9708 71.5944 31.3831 70.7148 30.9822 69.7468C30.5813 68.7789 30.375 67.7415 30.375 66.6937C30.3746 65.2693 30.5733 63.8518 30.9651 62.4823L31.1534 61.8242C32.279 57.8812 34.862 54.5138 38.3785 52.4048C38.9372 52.0691 39.3888 51.5813 39.6805 50.9984L41.7656 46.8281L37.4799 46.8281C37.0455 46.8281 36.6153 46.7426 36.2139 46.5764C35.8126 46.4102 35.4479 46.1665 35.1407 45.8593C34.8335 45.5521 34.5899 45.1874 34.4236 44.786C34.2574 44.3846 34.1719 43.9545 34.1719 43.5201L34.1719 40.5L37.9688 40.5L38.2836 39.5555C38.5747 38.6812 39.0818 37.8944 39.758 37.2683C40.4342 36.6422 41.2575 36.1969 42.1516 35.9738L44.2969 35.4375L44.2969 31.6406L47.9941 34.4139C48.8931 35.0858 49.6219 35.9594 50.1219 36.9641C51.2848 39.2894 51.8903 41.8536 51.8906 44.4535L51.8906 70.875L53.1562 72.1406Z" fill="#E08122" fill-opacity="1.000000" fill-rule="nonzero"/>
	<path id="Vector" d="M43.9267 46.4579L42.661 47.7235C42.4234 47.9607 42.1013 48.0939 41.7656 48.0938L41.1328 48.0938L41.7656 46.8281L37.4799 46.8281C36.9991 46.8289 36.524 46.7245 36.0878 46.5222C35.6517 46.3199 35.265 46.0248 34.955 45.6573C35.108 45.5942 35.272 45.562 35.4375 45.5625L41.242 45.5625L42.1358 44.667C42.3733 44.4296 42.6954 44.2961 43.0312 44.2961C43.3671 44.2961 43.6892 44.4296 43.9267 44.667C44.1642 44.9045 44.2976 45.2266 44.2976 45.5625C44.2976 45.8983 44.1642 46.2205 43.9267 46.4579Z" fill="#CD761F" fill-opacity="1.000000" fill-rule="nonzero"/>
	<path id="Vector" d="M46.8281 58.2188C46.4925 58.2188 46.1705 58.3521 45.9332 58.5895C45.6958 58.8268 45.5625 59.1487 45.5625 59.4844L45.5625 68.6403C45.0802 68.4441 44.5644 68.3435 44.0437 68.3438L42.8651 68.3438L43.0376 68.0844C43.593 67.2511 43.9119 66.2828 43.9602 65.2827C44.0085 64.2826 43.7844 63.2881 43.3118 62.4053C42.8392 61.5226 42.1359 60.7845 41.2768 60.2701C40.4178 59.7557 39.4352 59.4841 38.4339 59.4844L37.9688 59.4844C37.6331 59.4844 37.3112 59.6177 37.0738 59.8551C36.8365 60.0924 36.7031 60.4143 36.7031 60.75C36.7031 61.0857 36.8365 61.4076 37.0738 61.6449C37.3112 61.8823 37.6331 62.0156 37.9688 62.0156L38.4339 62.0156C38.9771 62.0154 39.5103 62.1626 39.9764 62.4417C40.4425 62.7207 40.8241 63.121 41.0806 63.6C41.337 64.0789 41.4586 64.6184 41.4324 65.161C41.4062 65.7037 41.2333 66.229 40.9319 66.681L39.4464 68.907C39.3197 69.0977 39.247 69.3192 39.2362 69.548C39.2254 69.7767 39.2767 70.0042 39.3848 70.2059C39.4929 70.4078 39.6537 70.5767 39.85 70.6945C40.0464 70.8123 40.271 70.8746 40.5 70.875L44.0437 70.875C44.4464 70.8756 44.8323 71.0359 45.117 71.3206C45.4017 71.6052 45.5619 71.9911 45.5625 72.3938L45.5625 74.6719L48.0938 74.6719L48.0938 59.4844C48.0938 59.1487 47.9604 58.8268 47.7231 58.5895C47.4857 58.3521 47.1638 58.2188 46.8281 58.2188Z" fill="#CD761F" fill-opacity="1.000000" fill-rule="nonzero"/>
	<path id="Vector" d="M51.8906 16.4531L51.8906 20.0443C51.8906 20.8412 51.6399 21.6179 51.1739 22.2644C50.7079 22.9108 50.0504 23.3943 49.2944 23.6463C48.515 23.9061 47.6725 23.9061 46.8931 23.6463C46.1371 23.3943 45.4796 22.9108 45.0136 22.2644C44.5476 21.6179 44.2969 20.8412 44.2969 20.0443L44.2969 13.9219L49.3594 13.9219L51.8906 16.4531Z" fill="#744630" fill-opacity="1.000000" fill-rule="nonzero"/>
	<path id="Vector" d="M40.1298 22.411L37.5985 24.9423C37.3609 25.1794 37.0388 25.3126 36.7031 25.3125L33.6292 25.3125C33.9567 24.5483 34.1718 24.0469 34.1718 24.0469L30.53 24.0469C29.3582 24.0479 28.2226 23.6406 27.3185 22.8951C27.4834 22.8201 27.6625 22.7812 27.8437 22.7812L36.1794 22.7812L38.3389 20.6202C38.4565 20.5026 38.5961 20.4093 38.7497 20.3456C38.9034 20.282 39.068 20.2493 39.2343 20.2493C39.4006 20.2493 39.5653 20.282 39.7189 20.3456C39.8726 20.4093 40.0122 20.5026 40.1298 20.6202C40.2474 20.7377 40.3406 20.8774 40.4043 21.031C40.4679 21.1846 40.5007 21.3493 40.5007 21.5156C40.5007 21.6819 40.4679 21.8466 40.4043 22.0002C40.3406 22.1538 40.2474 22.2935 40.1298 22.411Z" fill="#D18D28" fill-opacity="1.000000" fill-rule="nonzero"/>
	<path id="Vector" d="M29.1094 13.9219L29.1094 16.4531C29.1094 16.7888 28.976 17.1107 28.7387 17.3481C28.5013 17.5854 28.1794 17.7188 27.8437 17.7188L24.9961 17.7188L24.8331 17.067C24.7399 16.6938 24.7328 16.3043 24.8126 15.928C24.8924 15.5518 25.0569 15.1987 25.2936 14.8955C25.5303 14.5923 25.8329 14.347 26.1786 14.1783C26.5242 14.0096 26.9038 13.9219 27.2884 13.9219L29.1094 13.9219Z" fill="#D18D28" fill-opacity="1.000000" fill-rule="nonzero"/>
	<path id="Vector" d="M33.0351 37.3737C32.8002 37.3734 32.5699 37.3079 32.3702 37.1842C32.1704 37.0605 32.009 36.8838 31.904 36.6736C31.799 36.4634 31.7546 36.2281 31.7758 35.9941C31.7969 35.7601 31.8828 35.5366 32.0238 35.3486C33.5332 33.3373 34.7078 31.0952 35.5023 28.7092C35.6085 28.3907 35.8368 28.1275 36.137 27.9774C36.4373 27.8273 36.7849 27.8026 37.1033 27.9087C37.4218 28.0148 37.685 28.2432 37.8352 28.5434C37.9853 28.8437 38.01 29.1913 37.9038 29.5097C37.0233 32.1538 35.7214 34.6384 34.0486 36.8674C33.9307 37.0249 33.7777 37.1526 33.6018 37.2405C33.4258 37.3284 33.2318 37.374 33.0351 37.3737Z" fill="#D18D28" fill-opacity="1.000000" fill-rule="nonzero"/>
	<path id="Vector" d="M24.0469 55.6875C23.7112 55.6875 23.3893 55.5542 23.1519 55.3168C22.9146 55.0795 22.7812 54.7576 22.7812 54.4219C22.7903 50.0419 24.2105 45.7814 26.8313 42.2719C27.0327 42.0033 27.3325 41.8258 27.6648 41.7783C27.9971 41.7308 28.3346 41.8174 28.6031 42.0188C28.8717 42.2201 29.0492 42.52 29.0967 42.8523C29.1441 43.1846 29.0576 43.5221 28.8563 43.7906C26.5631 46.8615 25.3204 50.5894 25.3125 54.4219C25.3125 54.7576 25.1792 55.0795 24.9418 55.3168C24.7045 55.5542 24.3825 55.6875 24.0469 55.6875Z" fill="#D18D28" fill-opacity="1.000000" fill-rule="nonzero"/>
	<path id="Vector" d="M39.2344 15.1875C39.2344 15.8865 38.6677 16.4531 37.9688 16.4531C37.2698 16.4531 36.7031 15.8865 36.7031 15.1875C36.7031 14.4885 37.2698 13.9219 37.9688 13.9219C38.6677 13.9219 39.2344 14.4885 39.2344 15.1875Z" fill="#D18D28" fill-opacity="1.000000" fill-rule="evenodd"/>
	<path id="Vector" d="M44.2969 40.5C44.2969 41.199 43.7302 41.7656 43.0312 41.7656C42.3323 41.7656 41.7656 41.199 41.7656 40.5C41.7656 39.801 42.3323 39.2344 43.0312 39.2344C43.7302 39.2344 44.2969 39.801 44.2969 40.5Z" fill="#CD761F" fill-opacity="1.000000" fill-rule="evenodd"/>
	<path id="Vector" d="M74.6719 17.7188L58.2188 17.7188L58.2188 1.26562C58.2188 0.929932 58.0854 0.608032 57.8481 0.370667C57.6107 0.133362 57.2888 0 56.9531 0L18.9844 0C18.6487 0 18.3268 0.133362 18.0894 0.370667C17.8521 0.608032 17.7188 0.929932 17.7188 1.26562L17.7188 17.7188L1.26562 17.7188C0.929962 17.7188 0.60804 17.8521 0.370689 18.0894C0.133339 18.3268 0 18.6487 0 18.9844L0 56.9531C0 57.2888 0.133339 57.6107 0.370689 57.848C0.60804 58.0854 0.929962 58.2188 1.26562 58.2188L17.7188 58.2188L17.7188 74.6719C17.7188 75.0076 17.8521 75.3295 18.0894 75.5668C18.3268 75.8042 18.6487 75.9375 18.9844 75.9375L56.9531 75.9375C57.2888 75.9375 57.6107 75.8042 57.8481 75.5668C58.0854 75.3295 58.2188 75.0076 58.2188 74.6719L58.2188 58.2188L74.6719 58.2188C75.0075 58.2188 75.3295 58.0854 75.5668 57.848C75.8042 57.6107 75.9375 57.2888 75.9375 56.9531L75.9375 18.9844C75.9375 18.6487 75.8042 18.3268 75.5668 18.0894C75.3295 17.8521 75.0075 17.7188 74.6719 17.7188ZM17.7214 55.6875L16.7505 55.6875C16.0097 55.6876 15.2888 55.4474 14.6961 55.0029C12.5245 53.373 11.0887 50.9478 10.704 48.2599C10.4474 46.4293 10.9101 44.5706 11.9951 43.0741L13.0393 47.2489C13.3306 48.4192 13.9613 49.4773 14.8521 50.2903C15.743 51.1031 16.8542 51.6346 18.0462 51.8179C17.8428 53.098 17.7343 54.3914 17.7214 55.6875ZM20.25 73.4062L20.25 68.9766C20.2482 69.725 20.3948 70.4663 20.6812 71.1577C20.9676 71.8491 21.3882 72.4768 21.9187 73.0048C22.0607 73.1462 22.2099 73.2803 22.3658 73.4062L20.25 73.4062ZM29.1094 68.3438L29.1094 68.9766C29.1094 69.8157 28.776 70.6205 28.1826 71.2139C27.5893 71.8073 26.7845 72.1406 25.9453 72.1406C25.1062 72.1406 24.3014 71.8073 23.708 71.2139C23.1146 70.6205 22.7812 69.8157 22.7812 68.9766L22.7812 68.0273C22.7825 67.5364 22.8974 67.0524 23.117 66.6132C23.3365 66.174 23.6548 65.7916 24.0469 65.4961C25.2259 64.6121 26.1828 63.4656 26.8419 62.1475C27.5009 60.8295 27.8439 59.376 27.8438 57.9023L27.8438 56.9531C27.8438 56.6174 27.7104 56.2955 27.4731 56.0582C27.2357 55.8208 26.9138 55.6875 26.5781 55.6875C26.2425 55.6875 25.9205 55.8208 25.6832 56.0582C25.4458 56.2955 25.3125 56.6174 25.3125 56.9531L25.3125 57.9023C25.3127 58.983 25.0612 60.049 24.5779 61.0155C24.0946 61.9821 23.3928 62.8229 22.5281 63.4711C21.8224 64.0032 21.2495 64.6914 20.8543 65.4818C20.459 66.2723 20.2522 67.1436 20.25 68.0273L20.25 55.9564C20.2499 54.2543 20.4325 52.5571 20.7949 50.8939C20.7966 50.8859 20.7985 50.8782 20.8001 50.8699C20.98 50.0465 21.2035 49.2333 21.4696 48.4336L22.1597 46.3651C23.2977 42.9607 25.2096 39.8666 27.7452 37.3257L27.8387 37.2322C30.2167 34.8602 32.118 32.0546 33.4399 28.967L35.0061 25.3125L36.7031 25.3125C36.8693 25.3125 37.0339 25.2798 37.1875 25.2162C37.341 25.1526 37.4805 25.0593 37.5981 24.9418L40.1293 22.4106C40.3667 22.1732 40.5 21.8513 40.5 21.5156C40.5 21.1799 40.3667 20.858 40.1293 20.6207C39.892 20.3833 39.5701 20.2499 39.2344 20.2499C38.8987 20.2499 38.5768 20.3833 38.3394 20.6207L36.179 22.7812L30.53 22.7812C29.6831 22.7822 28.8602 22.4994 28.1927 21.9781C27.5251 21.4568 27.0514 20.7269 26.8471 19.905L26.6169 18.9844L27.8438 18.9844C28.5148 18.9836 29.1582 18.7166 29.6327 18.2421C30.1073 17.7676 30.3742 17.1242 30.375 16.4531L30.375 15.1875L31.6406 15.1875C31.9063 15.1875 32.1652 15.1039 32.3807 14.9487C32.5962 14.7933 32.7574 14.5742 32.8414 14.3221C33.5616 12.1593 35.0319 10.3254 36.9863 9.15204L37.5429 8.81982C38.7816 8.07721 40.1873 7.6582 41.6304 7.60144C43.0736 7.54468 44.5078 7.85193 45.8011 8.49487L45.8686 8.52954C47.6767 9.42755 49.1096 10.9352 49.9145 12.7866C49.7418 12.7015 49.5519 12.6569 49.3594 12.6562L44.2969 12.6562C43.9612 12.6562 43.6393 12.7896 43.4019 13.0269C43.1646 13.2643 43.0312 13.5862 43.0312 13.9219L43.0312 20.0443C43.0286 20.934 43.261 21.8085 43.7048 22.5795C44.1486 23.3505 44.7881 23.9906 45.5587 24.4351C46.3293 24.8796 47.2036 25.1128 48.0932 25.111C48.9828 25.1093 49.8562 24.8726 50.625 24.425L50.625 35.3461C50.1085 34.6022 49.4768 33.9453 48.7536 33.4001L45.0562 30.6282C44.8682 30.4871 44.6446 30.4012 44.4105 30.3801C44.1764 30.359 43.9411 30.4034 43.7309 30.5087C43.5206 30.6138 43.3438 30.7753 43.2203 30.9752C43.0967 31.1752 43.0312 31.4056 43.0312 31.6406L43.0312 34.4493L41.8447 34.7461C40.7429 35.0184 39.7282 35.5658 38.8954 36.3368C38.0626 37.1079 37.4389 38.0776 37.0828 39.1553L37.0564 39.2344L34.1719 39.2344C33.8362 39.2344 33.5143 39.3677 33.2769 39.6051C33.0396 39.8424 32.9062 40.1643 32.9062 40.5L32.9062 43.5217C32.9078 44.7339 33.3902 45.896 34.2474 46.7532C35.1047 47.6102 36.2669 48.0924 37.4791 48.0938L39.7178 48.0938L38.5487 50.4319C38.3651 50.7997 38.0802 51.1075 37.7275 51.3188C33.9321 53.5891 31.1455 57.2216 29.9361 61.4755L29.7479 62.1342C29.3242 63.6171 29.1093 65.1517 29.1094 66.694C29.1098 67.0294 29.1283 67.3646 29.1649 67.6981C29.1281 67.9114 29.1096 68.1273 29.1094 68.3438ZM26.0244 16.4531C26.0244 16.4459 26.0244 16.4386 26.0244 16.4313C26.0254 16.378 26.0297 16.3248 26.0374 16.272C26.0396 16.2562 26.0417 16.2404 26.0445 16.2255C26.0552 16.1652 26.0702 16.1057 26.0894 16.0475C26.0916 16.0411 26.0947 16.035 26.097 16.0287C26.116 15.9761 26.1384 15.925 26.1643 15.8755C26.1719 15.8608 26.1801 15.8463 26.1877 15.8318C26.2184 15.7767 26.2531 15.7238 26.2915 15.6736C26.4094 15.5219 26.5606 15.3991 26.7333 15.3149C26.9061 15.2307 27.0959 15.1871 27.2881 15.1877L27.8438 15.1877L27.8438 16.4533L26.0244 16.4531ZM50.625 16.9772L50.625 20.0443C50.625 20.7156 50.3583 21.3595 49.8836 21.8342C49.4089 22.3089 48.7651 22.5756 48.0938 22.5756C47.4224 22.5756 46.7786 22.3089 46.3039 21.8342C45.8292 21.3595 45.5625 20.7156 45.5625 20.0443L45.5625 15.1875L48.8353 15.1875L50.625 16.9772ZM29.5196 73.4062C30.0155 73.0052 30.4412 72.5243 30.7791 71.9834C31.1395 72.4979 31.5512 72.9746 32.0077 73.4062L29.5196 73.4062ZM51.1085 73.4062L48.0938 73.4062L48.0938 59.4844C48.0938 59.1487 47.9604 58.8268 47.7231 58.5895C47.4857 58.3521 47.1638 58.2188 46.8281 58.2188C46.4925 58.2188 46.1705 58.3521 45.9332 58.5895C45.6958 58.8268 45.5625 59.1487 45.5625 59.4844L45.5625 68.6404C45.0802 68.4442 44.5644 68.3435 44.0437 68.3438L42.8651 68.3438L43.0377 68.085C43.5931 67.2518 43.912 66.2834 43.9603 65.2833C44.0086 64.2832 43.7846 63.2887 43.3121 62.4059C42.8396 61.5231 42.1364 60.7852 41.2773 60.2706C40.4184 59.7561 39.4358 59.4844 38.4345 59.4844L37.9688 59.4844C37.6331 59.4844 37.3112 59.6177 37.0738 59.8551C36.8365 60.0924 36.7031 60.4143 36.7031 60.75C36.7031 61.0857 36.8365 61.4076 37.0738 61.6449C37.3112 61.8823 37.6331 62.0156 37.9688 62.0156L38.4345 62.0156C38.9776 62.0156 39.5106 62.163 39.9765 62.442C40.4425 62.7211 40.824 63.1215 41.0803 63.6003C41.3366 64.0791 41.4581 64.6185 41.4319 65.1611C41.4057 65.7036 41.2327 66.2288 40.9314 66.6807L39.447 68.9072C39.3199 69.0979 39.2469 69.3193 39.2359 69.5482C39.2248 69.777 39.276 70.0045 39.3841 70.2065C39.4922 70.4084 39.6531 70.5774 39.8496 70.6951C40.0461 70.8129 40.2709 70.875 40.5 70.875L44.0437 70.875C44.4464 70.8756 44.8323 71.0358 45.117 71.3204C45.4017 71.6052 45.5619 71.9911 45.5625 72.3938L45.5625 73.4062L38.3529 73.4062C36.5733 73.4043 34.8672 72.6964 33.6088 71.4381C32.3505 70.1797 31.6426 68.4736 31.6406 66.694C31.6406 65.3871 31.8228 64.0865 32.1818 62.83L32.3699 62.1713C33.4038 58.5349 35.7858 55.4298 39.0303 53.4893C39.796 53.0305 40.4146 52.3625 40.8134 51.5641L42.8068 47.5774L43.9273 46.4568C44.1647 46.2195 44.298 45.8976 44.298 45.5619C44.298 45.2262 44.1647 44.9043 43.9273 44.6669C43.69 44.4296 43.368 44.2963 43.0323 44.2963C42.6967 44.2963 42.3748 44.4296 42.1374 44.6669L41.2415 45.5625L37.4791 45.5625C36.938 45.5619 36.4191 45.3467 36.0364 44.9641C35.6537 44.5815 35.4383 44.0629 35.4375 43.5217L35.4375 41.7656L37.9688 41.7656C38.2344 41.7656 38.4933 41.6821 38.7088 41.5267C38.9243 41.3715 39.0855 41.1522 39.1695 40.9003L39.4843 39.9559C39.7068 39.2828 40.0963 38.6771 40.6164 38.1954C41.1366 37.7137 41.7704 37.3718 42.4586 37.2017L44.6039 36.6653C44.8777 36.5968 45.1208 36.4388 45.2945 36.2163C45.4682 35.9939 45.5625 35.7197 45.5625 35.4375L45.5625 34.1719L47.2349 35.4263C47.9749 35.9825 48.576 36.7028 48.9909 37.5304C50.063 39.6809 50.6223 42.0507 50.625 44.4536L50.625 70.875C50.625 71.0413 50.6577 71.2058 50.7213 71.3594C50.7849 71.5129 50.8781 71.6525 50.9957 71.77L51.6163 72.3906L51.1085 73.4062ZM73.4062 55.6875L56.9531 55.6875C56.6175 55.6875 56.2955 55.8208 56.0582 56.0582C55.8208 56.2955 55.6875 56.6174 55.6875 56.9531L55.6875 73.4062L53.9384 73.4062L54.2882 72.7067C54.407 72.469 54.448 72.2001 54.4054 71.9379C54.3628 71.6757 54.2388 71.4335 54.0509 71.2456L53.1562 70.3508L53.1562 16.2238C53.1635 14.157 52.5921 12.1296 51.5066 10.371C50.4211 8.61237 48.865 7.19269 47.0143 6.27277L46.9454 6.23749C45.2706 5.4007 43.4119 4.99969 41.5412 5.07159C39.6704 5.14349 37.848 5.68591 36.2424 6.6488L35.6865 6.98102C33.4847 8.3017 31.7609 10.2896 30.7653 12.6562L27.2885 12.6562C26.7115 12.6563 26.1422 12.7878 25.6236 13.0409C25.1051 13.2939 24.6511 13.6618 24.2961 14.1166C23.941 14.5714 23.6943 15.1011 23.5746 15.6655C23.4549 16.2299 23.4654 16.8141 23.6053 17.3738L24.3914 20.5188C24.7321 21.8887 25.5216 23.105 26.6342 23.9738C27.7467 24.8427 29.1181 25.3138 30.5297 25.3123L32.2521 25.3123L31.113 27.9702C29.918 30.7617 28.1987 33.2982 26.0485 35.4424L25.955 35.5359C23.1419 38.3553 21.0208 41.7886 19.7581 45.566L19.0681 47.6342C18.8811 48.1957 18.7137 48.7618 18.5661 49.3328C17.8404 49.2491 17.1575 48.9462 16.6087 48.4641C16.0598 47.9822 15.671 47.3442 15.4943 46.6354L13.8841 40.1931C13.8298 39.9758 13.7188 39.7769 13.5624 39.6165C13.406 39.4561 13.2099 39.3401 12.9941 39.2803C12.7782 39.2205 12.5504 39.2191 12.3338 39.2761C12.1172 39.3331 11.9197 39.4467 11.7613 39.6051L10.9228 40.4435C9.86849 41.5031 9.07384 42.7924 8.60112 44.2104C8.1284 45.6284 7.99045 47.1367 8.19809 48.6169C8.57771 51.28 9.78987 53.7549 11.6612 55.6875L2.53125 55.6875L2.53125 20.25L18.9844 20.25C19.32 20.25 19.642 20.1166 19.8793 19.8793C20.1167 19.642 20.25 19.3201 20.25 18.9844L20.25 2.53125L55.6875 2.53125L55.6875 18.9844C55.6875 19.3201 55.8208 19.642 56.0582 19.8793C56.2955 20.1166 56.6175 20.25 56.9531 20.25L73.4062 20.25L73.4062 55.6875Z" fill="#000000" fill-opacity="1.000000" fill-rule="nonzero"/>
	<path id="Vector" d="M32.2768 37.1206C32.4097 37.2203 32.5611 37.2928 32.7221 37.3341C32.8831 37.3754 33.0506 37.3845 33.2151 37.361C33.3797 37.3374 33.538 37.2817 33.681 37.1971C33.824 37.1124 33.9489 37.0004 34.0487 36.8674C35.7215 34.6384 37.0233 32.1538 37.9039 29.5097C38.0101 29.1913 37.9854 28.8437 37.8352 28.5434C37.6851 28.2432 37.4219 28.0148 37.1034 27.9087C36.7849 27.8026 36.4373 27.8273 36.1371 27.9774C35.8369 28.1275 35.6085 28.3907 35.5024 28.7092C34.7079 31.0952 33.5332 33.3373 32.0238 35.3486C31.8224 35.6172 31.7359 35.9547 31.7833 36.287C31.8308 36.6193 32.0083 36.9192 32.2768 37.1206Z" fill="#000000" fill-opacity="1.000000" fill-rule="nonzero"/>
	<path id="Vector" d="M28.6031 42.0188C28.3346 41.8174 27.9971 41.7308 27.6648 41.7783C27.3325 41.8258 27.0327 42.0033 26.8313 42.2719C24.2105 45.7814 22.7903 50.0419 22.7812 54.4219C22.7812 54.7576 22.9146 55.0795 23.1519 55.3168C23.3893 55.5542 23.7112 55.6875 24.0469 55.6875C24.3825 55.6875 24.7045 55.5542 24.9418 55.3168C25.1792 55.0795 25.3125 54.7576 25.3125 54.4219C25.3204 50.5894 26.5631 46.8615 28.8563 43.7906C29.0576 43.5221 29.1441 43.1846 29.0967 42.8523C29.0492 42.52 28.8717 42.2201 28.6031 42.0188Z" fill="#000000" fill-opacity="1.000000" fill-rule="nonzero"/>
	<path id="Vector" d="M39.2344 15.1875C39.2344 15.8865 38.6677 16.4531 37.9688 16.4531C37.2698 16.4531 36.7031 15.8865 36.7031 15.1875C36.7031 14.4885 37.2698 13.9219 37.9688 13.9219C38.6677 13.9219 39.2344 14.4885 39.2344 15.1875Z" fill="#000000" fill-opacity="1.000000" fill-rule="evenodd"/>
	<path id="Vector" d="M44.2969 40.5C44.2969 41.199 43.7302 41.7656 43.0312 41.7656C42.3323 41.7656 41.7656 41.199 41.7656 40.5C41.7656 39.801 42.3323 39.2344 43.0312 39.2344C43.7302 39.2344 44.2969 39.801 44.2969 40.5Z" fill="#000000" fill-opacity="1.000000" fill-rule="evenodd"/>
</svg>
