<svg width="75.937683" height="75.939941" viewBox="0 0 75.9377 75.9399" fill="none" xmlns="http://www.w3.org/2000/svg" xmlns:xlink="http://www.w3.org/1999/xlink">
	<desc>
			Created with Pixso.
	</desc>
	<defs/>
	<path id="Vector" d="M74.6721 60.7524L74.6721 74.6743L21.5158 74.6743L19.687 71.9312C19.5946 71.7928 19.5305 71.6376 19.4981 71.4745C19.4658 71.3113 19.4659 71.1434 19.4986 70.9803C19.5312 70.8173 19.5956 70.6621 19.6882 70.5239C19.7808 70.3859 19.8997 70.2672 20.0381 70.175L22.7814 68.3462L22.7814 63.2837L18.7693 53.2552L17.7189 50.6274L16.295 47.7798L14.096 43.3833C12.3174 39.8243 11.3913 35.9003 11.3907 31.9215L11.3907 23.4956L5.1449 21.7111C4.36948 21.4897 3.6763 21.0452 3.15167 20.4328C2.62704 19.8204 2.29416 19.0672 2.1944 18.267L1.87958 15.7484L1.26575 10.8394L10.1251 10.8394L11.7625 7.56458C12.7752 5.53955 14.3683 3.86224 16.3385 2.74664C18.3087 1.6311 20.5667 1.12787 22.8241 1.30127L27.6477 1.67303C28.8916 1.76868 30.0975 2.14594 31.1741 2.77631C32.2507 3.40674 33.1699 4.27374 33.8619 5.31177L39.2345 13.3706L42.666 18.9789C46.2538 24.8391 50.8982 29.9824 56.3632 34.1475L64.6056 40.4265C67.7348 42.8112 70.2713 45.886 72.0173 49.4115C73.7634 52.9371 74.6719 56.8182 74.6721 60.7524Z" fill="#F3AF3E" fill-opacity="1.000000" fill-rule="nonzero"/>
	<path id="Vector" d="M24.8586 9.99396L23.7565 17.1572C23.4733 18.9982 23.7817 20.8816 24.6373 22.5361C25.4929 24.1906 26.8515 25.5309 28.5175 26.3639C29.7391 26.9747 31.0862 27.2927 32.452 27.2927L34.172 27.2927L34.172 10.3561C34.172 9.84174 34.0522 9.33441 33.8222 8.87433C33.5471 8.32391 33.1241 7.86096 32.6006 7.53735C32.0772 7.21381 31.474 7.04242 30.8586 7.04236L28.2986 7.04236C27.4672 7.04236 26.6632 7.34003 26.0322 7.88141C25.4012 8.42279 24.9849 9.17218 24.8586 9.99396Z" fill="#C38325" fill-opacity="1.000000" fill-rule="nonzero"/>
	<path id="Vector" d="M60.6315 67.6169C60.5291 67.8347 60.367 68.0189 60.1639 68.1481C59.9608 68.2772 59.7252 68.3459 59.4845 68.3462L49.0921 68.3462C48.1564 68.3474 47.2593 68.7196 46.5977 69.3812C45.936 70.043 45.5638 70.9399 45.5626 71.8757L45.5626 74.6743L43.0314 74.6743L43.0314 71.8757C43.0329 70.2688 43.6719 68.728 44.8082 67.5918C45.9445 66.4554 47.4852 65.8164 49.0921 65.8149L56.7871 65.8149C53.6209 61.8654 51.894 56.9552 51.8907 51.8931C51.8907 51.5574 52.0241 51.2355 52.2614 50.9982C52.4988 50.7607 52.8207 50.6274 53.1564 50.6274C53.492 50.6274 53.814 50.7607 54.0513 50.9982C54.2887 51.2355 54.422 51.5574 54.422 51.8931C54.4249 56.5029 56.0407 60.9663 58.9893 64.5098L60.4575 66.2706C60.611 66.4554 60.7089 66.6802 60.7397 66.9185C60.7705 67.1569 60.733 67.399 60.6315 67.6169Z" fill="#C38325" fill-opacity="1.000000" fill-rule="nonzero"/>
	<path id="Vector" d="M68.3439 32.9087C68.3439 33.3342 68.3313 33.755 68.3044 34.1743C68.2775 34.5999 68.2374 35.0217 68.1841 35.4399C67.9102 37.6582 67.2663 39.8148 66.2794 41.8203C64.9927 44.4419 63.155 46.7549 60.8921 48.601C58.6291 50.4469 55.9942 51.7826 53.1675 52.5164C53.164 52.5182 53.1602 52.5193 53.1564 52.5195C50.3711 53.2388 47.4644 53.3562 44.6302 52.8641C41.7959 52.3721 39.099 51.2816 36.7191 49.6656C34.3392 48.0496 32.331 45.9451 30.8282 43.4921C29.3254 41.0392 28.3625 38.2942 28.0037 35.4399C27.9499 35.0222 27.9098 34.6003 27.8834 34.1743C27.8565 33.755 27.8439 33.3342 27.8439 32.9087C27.8442 28.5406 29.2568 24.2899 31.8709 20.7904C34.485 17.291 38.1605 14.7306 42.3489 13.4911C46.5374 12.2516 51.0143 12.3997 55.1118 13.913C59.2092 15.4263 62.7076 18.2238 65.0849 21.8882C65.376 22.3359 65.6497 22.7958 65.906 23.2678C67.511 26.2274 68.3492 29.5419 68.3439 32.9087Z" fill="#C0F5F9" fill-opacity="1.000000" fill-rule="nonzero"/>
	<path id="Vector" d="M6.32825 10.8392L6.32825 11.9182C6.3284 12.6945 6.06909 13.4485 5.59152 14.0605C5.11398 14.6724 4.44559 15.1072 3.6926 15.2958L1.87958 15.7483L1.26575 10.8392L6.32825 10.8392Z" fill="#C38325" fill-opacity="1.000000" fill-rule="nonzero"/>
	<path id="Vector" d="M20.2501 9.57397C20.2501 10.9719 19.1169 12.1052 17.7189 12.1052C16.3209 12.1052 15.1876 10.9719 15.1876 9.57397C15.1876 8.17603 16.3209 7.04272 17.7189 7.04272C19.1169 7.04272 20.2501 8.17603 20.2501 9.57397Z" fill="#C38325" fill-opacity="1.000000" fill-rule="evenodd"/>
	<path id="Vector" d="M44.2971 59.4868L51.8908 59.4868L51.8908 74.6743L44.2971 74.6743L44.2971 59.4868Z" fill="#428DC5" fill-opacity="1.000000" fill-rule="nonzero"/>
	<path id="Vector" d="M68.3044 34.1742C68.2775 34.5997 68.2374 35.0216 68.1841 35.4398C67.9102 37.6581 67.2663 39.8147 66.2794 41.8202C64.9927 44.4419 63.155 46.7548 60.8921 48.6008C58.6291 50.4469 55.9942 51.7825 53.1675 52.5162C53.164 52.5181 53.1602 52.5192 53.1564 52.5194C50.3711 53.2386 47.4644 53.3561 44.6302 52.864C41.7959 52.3719 39.099 51.2816 36.7191 49.6655C34.3392 48.0496 32.331 45.9449 30.8282 43.4919C29.3254 41.0391 28.3625 38.2941 28.0037 35.4398C27.9499 35.0222 27.9098 34.6003 27.8834 34.1742L68.3044 34.1742Z" fill="#EEB58E" fill-opacity="1.000000" fill-rule="nonzero"/>
	<path id="Vector" d="M40.5001 37.9712L43.0314 37.9712L43.0314 40.5024L40.5001 40.5024L40.5001 37.9712Z" fill="#F55648" fill-opacity="1.000000" fill-rule="nonzero"/>
	<path id="Vector" d="M40.5001 44.2993L43.0314 44.2993L43.0314 46.8306L40.5001 46.8306L40.5001 44.2993Z" fill="#B94137" fill-opacity="1.000000" fill-rule="nonzero"/>
	<path id="Vector" d="M51.8907 44.2993L54.422 44.2993L54.422 46.8306L51.8907 46.8306L51.8907 44.2993Z" fill="#F55648" fill-opacity="1.000000" fill-rule="nonzero"/>
	<path id="Vector" d="M56.9533 44.2993L59.4846 44.2993L59.4846 46.8306L56.9533 46.8306L56.9533 44.2993Z" fill="#F55648" fill-opacity="1.000000" fill-rule="nonzero"/>
	<path id="Vector" d="M54.4221 40.5024L56.9533 40.5024L56.9533 43.0337L54.4221 43.0337L54.4221 40.5024Z" fill="#B94137" fill-opacity="1.000000" fill-rule="nonzero"/>
	<path id="Vector" d="M30.0049 69.2417L28.2062 71.0388L30.1631 73.9719C30.3018 74.1799 30.3755 74.4244 30.3752 74.6743L27.5876 74.6743L26.1005 72.4421C25.7776 71.9548 25.6327 71.3711 25.6903 70.7896C25.748 70.2079 26.0046 69.6639 26.4169 69.2495L27.8439 67.8225L27.8439 61.3204L18.7693 53.2552L17.7189 50.6274L16.295 47.7798C16.4394 47.834 16.5724 47.9144 16.6874 48.0171L29.9496 59.8064C30.0833 59.925 30.1905 60.0707 30.2638 60.2338C30.3372 60.3969 30.3751 60.5736 30.3752 60.7524L30.3752 68.3462C30.3753 68.682 30.2421 69.004 30.0049 69.2417Z" fill="#C38325" fill-opacity="1.000000" fill-rule="nonzero"/>
	<path id="Vector" d="M37.9689 58.2212L37.9689 74.6743L35.4377 74.6743L35.4377 58.604L33.1184 55.1267C32.9321 54.8473 32.8644 54.5052 32.9303 54.1759C32.9962 53.8466 33.1902 53.5569 33.4696 53.3706C33.749 53.1843 34.091 53.1167 34.4203 53.1825C34.7497 53.2484 35.0394 53.4424 35.2256 53.7218L37.7569 57.5187C37.8948 57.7271 37.9685 57.9713 37.9689 58.2212Z" fill="#C38325" fill-opacity="1.000000" fill-rule="nonzero"/>
	<path id="Vector" d="M68.3044 34.1742C68.2775 34.5997 68.2374 35.0216 68.1841 35.4398L28.0037 35.4398L27.8834 34.1742L68.3044 34.1742Z" fill="#BD9070" fill-opacity="1.000000" fill-rule="nonzero"/>
	<path id="Vector" d="M54.3195 18.9868C50.1731 24.7919 47.618 31.5811 46.9082 38.6794L46.8403 39.3572C46.8045 39.7152 46.8487 40.0767 46.9697 40.4154C47.0906 40.7542 47.2853 41.0619 47.5397 41.3163C47.7652 41.5417 48.033 41.7207 48.3276 41.8428C48.6223 41.9648 48.9381 42.0277 49.2571 42.0277C49.576 42.0277 49.8919 41.9648 50.1865 41.8428C50.4812 41.7207 50.7489 41.5417 50.9745 41.3163L51.077 41.2139C51.3026 40.9884 51.4816 40.7207 51.6038 40.426C51.7259 40.1313 51.7888 39.8154 51.7889 39.4965L51.7889 34.1443C51.7889 30.8019 52.1988 27.4722 53.0094 24.2297L54.3195 18.9868Z" fill="#744630" fill-opacity="1.000000" fill-rule="nonzero"/>
	<path id="Vector" d="M65.906 23.2677L65.6655 24.2296C64.8542 27.472 64.444 30.8018 64.4442 34.1442L64.4442 39.4962C64.4438 40.1403 64.1884 40.7581 63.7339 41.2144L63.631 41.3156C63.2768 41.6698 62.8217 41.9058 62.3282 41.9912C61.8346 42.0768 61.3266 42.0074 60.8739 41.793C60.4212 41.5785 60.0459 41.2294 59.7995 40.7932C59.553 40.3571 59.4474 39.8555 59.4972 39.3569L59.5636 38.6799C60.1566 32.7468 62.0412 27.0154 65.0849 21.8882C65.376 22.3359 65.6497 22.7957 65.906 23.2677Z" fill="#744630" fill-opacity="1.000000" fill-rule="nonzero"/>
	<path id="Vector" d="M39.132 18.9868C34.9856 24.7919 32.4305 31.5811 31.7207 38.6794L31.6528 39.3572C31.617 39.7152 31.6612 40.0767 31.7822 40.4154C31.9031 40.7542 32.0978 41.0619 32.3522 41.3163C32.5777 41.5417 32.8455 41.7207 33.1401 41.8428C33.4348 41.9648 33.7506 42.0277 34.0696 42.0277C34.3885 42.0277 34.7044 41.9648 34.999 41.8428C35.2937 41.7207 35.5614 41.5417 35.787 41.3163L35.8895 41.2139C36.1151 40.9884 36.2941 40.7207 36.4163 40.426C36.5384 40.1313 36.6013 39.8154 36.6014 39.4965L36.6014 34.1443C36.6014 30.8019 37.0113 27.4722 37.8219 24.2297L39.132 18.9868Z" fill="#744630" fill-opacity="1.000000" fill-rule="nonzero"/>
	<path id="Vector" d="M69.6095 32.9086C69.6095 21.0447 59.9576 11.3929 48.0939 11.3929C36.2302 11.3929 26.5782 21.0447 26.5782 32.9086C26.5782 43.0291 33.6025 51.5383 43.0314 53.8212L43.0314 59.4867L53.1564 59.4867L53.1564 53.8212C62.5853 51.5383 69.6095 43.0291 69.6095 32.9086ZM48.0939 51.8929C44.3391 51.8929 40.6687 50.7795 37.5467 48.6935C34.4248 46.6075 31.9915 43.6426 30.5546 40.1736C29.1177 36.7047 28.7418 32.8876 29.4743 29.2049C30.2068 25.5223 32.0149 22.1396 34.6699 19.4846C37.3249 16.8296 40.7076 15.0215 44.3902 14.289C48.0728 13.5565 51.89 13.9324 55.3589 15.3693C58.8279 16.8062 61.7928 19.2394 63.8788 22.3615C65.9649 25.4834 67.0783 29.1538 67.0783 32.9086C67.0726 37.9418 65.0706 42.7672 61.5116 46.3263C57.9526 49.8854 53.1271 51.8873 48.0939 51.8929Z" fill="#428DC5" fill-opacity="1.000000" fill-rule="nonzero"/>
	<path id="Vector" d="M44.2971 59.4868L51.8908 59.4868L51.8908 62.0181L44.2971 62.0181L44.2971 59.4868Z" fill="#3775A4" fill-opacity="1.000000" fill-rule="nonzero"/>
	<path id="Vector" d="M20.2501 9.57397C20.2501 10.9719 19.1169 12.1052 17.7189 12.1052C16.3209 12.1052 15.1876 10.9719 15.1876 9.57397C15.1876 8.17603 16.3209 7.04272 17.7189 7.04272C19.1169 7.04272 20.2501 8.17603 20.2501 9.57397Z" fill="#000000" fill-opacity="1.000000" fill-rule="evenodd"/>
	<path id="Vector" d="M40.5001 37.9712L43.0314 37.9712L43.0314 40.5024L40.5001 40.5024L40.5001 37.9712Z" fill="#000000" fill-opacity="1.000000" fill-rule="nonzero"/>
	<path id="Vector" d="M40.5001 44.2993L43.0314 44.2993L43.0314 46.8306L40.5001 46.8306L40.5001 44.2993Z" fill="#000000" fill-opacity="1.000000" fill-rule="nonzero"/>
	<path id="Vector" d="M51.8907 44.2993L54.422 44.2993L54.422 46.8306L51.8907 46.8306L51.8907 44.2993Z" fill="#000000" fill-opacity="1.000000" fill-rule="nonzero"/>
	<path id="Vector" d="M56.9533 44.2993L59.4846 44.2993L59.4846 46.8306L56.9533 46.8306L56.9533 44.2993Z" fill="#000000" fill-opacity="1.000000" fill-rule="nonzero"/>
	<path id="Vector" d="M54.4221 40.5024L56.9533 40.5024L56.9533 43.0337L54.4221 43.0337L54.4221 40.5024Z" fill="#000000" fill-opacity="1.000000" fill-rule="nonzero"/>
	<path id="Vector" d="M0.938568 18.4238C1.06799 19.4707 1.50296 20.4563 2.18921 21.2574C2.87546 22.0585 3.78253 22.6397 4.79715 22.9283L10.1251 24.4506L10.1251 31.9209C10.1301 36.0956 11.1019 40.2123 12.9644 43.9485L16.5632 51.1467L21.5157 63.5275L21.5157 67.6688L19.3356 69.1223C19.059 69.3066 18.8214 69.5437 18.6364 69.8199C18.4515 70.0961 18.3227 70.406 18.2575 70.7319C18.1923 71.0579 18.192 71.3936 18.2565 71.7196C18.321 72.0457 18.4491 72.356 18.6335 72.6324L20.4628 75.3763C20.5783 75.5497 20.7349 75.6919 20.9186 75.7902C21.1023 75.8884 21.3074 75.9399 21.5157 75.9399L74.6721 75.9399C75.0077 75.9399 75.3296 75.8065 75.567 75.5692C75.8044 75.3318 75.9377 75.0099 75.9377 74.6743L75.9377 60.7523C75.935 57.1665 75.2143 53.6174 73.8181 50.3145C72.4219 47.0116 70.3785 44.0216 67.8084 41.521C68.7752 39.318 69.3628 36.9674 69.5463 34.5686C69.6147 34.3613 69.628 34.1399 69.585 33.9258C69.6009 33.5887 69.6097 33.2496 69.6097 32.9086C69.6138 29.5025 68.8043 26.1447 67.2485 23.1147L68.2038 19.2936C68.2751 19.0078 68.2445 18.706 68.1172 18.4402C67.9899 18.1746 67.7739 17.9615 67.5064 17.838C67.239 17.7145 66.9368 17.6882 66.6519 17.7635C66.3671 17.839 66.1175 18.0114 65.9462 18.251C65.6236 18.7028 65.3107 19.1605 65.0076 19.6241C62.1701 16.0059 58.2473 13.3929 53.8152 12.1688C49.383 10.9446 44.6752 11.1738 40.3829 12.8228L40.314 12.7101C40.3056 12.6962 40.2967 12.6823 40.2875 12.6687L34.9156 4.60999C34.1203 3.40912 33.0606 2.40637 31.8178 1.67859C30.5749 0.950745 29.1819 0.517273 27.7455 0.411255L22.9216 0.0396729C20.4122 -0.15979 17.9006 0.396423 15.7101 1.63666C13.5196 2.87695 11.7504 4.74445 10.6304 6.99884L9.34296 9.57361L1.26575 9.57361C1.08618 9.57361 0.908661 9.61182 0.744995 9.68567C0.581299 9.75952 0.435242 9.86737 0.316437 10.0021C0.197662 10.1367 0.108887 10.2952 0.0560608 10.4667C0.00320435 10.6384 -0.0125122 10.8193 0.00991821 10.9974L0.938568 18.4238ZM27.8439 67.822L26.4169 69.2488C26.0043 69.6633 25.7475 70.2075 25.6898 70.7894C25.6322 71.3715 25.7772 71.9554 26.1005 72.4427L26.7447 73.4087L22.193 73.4087L20.7396 71.2284L23.4835 69.3992C23.6568 69.2836 23.799 69.127 23.8973 68.9432C23.9956 68.7596 24.047 68.5544 24.047 68.3462L24.047 63.2836C24.047 63.1227 24.0163 62.9631 23.9565 62.8136L20.8852 55.135L27.8439 61.3208L27.8439 67.822ZM50.6252 73.4087L45.5627 73.4087L45.5627 60.7523L50.6252 60.7523L50.6252 73.4087ZM51.8908 58.2211L44.297 58.2211L44.297 54.0887C46.8085 54.5361 49.3793 54.5361 51.8908 54.0887L51.8908 58.2211ZM66.2792 27.4571C66.8102 29.2255 67.0794 31.0621 67.0783 32.9086L65.7298 32.9086C65.7871 31.0809 65.9706 29.2594 66.2792 27.4571ZM65.7097 39.4963L65.7097 35.4398L66.9085 35.4398C66.6941 37.0427 66.2741 38.6113 65.6588 40.1068C65.6927 39.9052 65.7099 39.7009 65.7103 39.4963L65.7097 39.4963ZM66.5912 43.8853C70.9588 48.4147 73.4016 54.4602 73.4064 60.7523L73.4064 73.4087L53.1564 73.4087L53.1564 68.3462L59.4845 68.3462C59.7251 68.3462 59.9607 68.2776 60.1637 68.1486C60.3667 68.0194 60.5287 67.8352 60.6308 67.6173C60.7328 67.3994 60.7707 67.157 60.7399 66.9185C60.709 66.6798 60.6109 66.455 60.4569 66.2701L58.99 64.5101C56.3744 61.3838 54.8003 57.5187 54.4877 53.4545C59.5621 51.8622 63.8715 48.4552 66.5918 43.8853L66.5912 43.8853ZM53.1564 65.8149L53.1564 60.7523C53.3355 60.7523 53.5126 60.714 53.6758 60.64C54.4725 62.4985 55.5193 64.2395 56.787 65.8149L53.1564 65.8149ZM64.6281 42.1088C64.6858 42.051 64.7408 41.9908 64.7942 41.9299C63.1894 44.903 60.82 47.3937 57.9308 49.1449C55.0415 50.896 51.7372 51.844 48.359 51.8911C44.9808 51.9382 41.6513 51.0825 38.7144 49.4126C35.7775 47.7427 33.3396 45.319 31.6526 42.3917C32.3585 43.0032 33.2698 43.3245 34.203 43.2909C35.1363 43.2573 36.0221 42.8713 36.6823 42.2108L36.7843 42.1088C37.1284 41.7665 37.4013 41.3594 37.5871 40.911C37.7729 40.4625 37.8679 39.9817 37.8665 39.4963L37.8665 35.4398L46.0798 35.4398C45.8982 36.4703 45.7545 37.5082 45.6489 38.5533L45.581 39.2312C45.5051 39.9895 45.6656 40.7528 46.0405 41.4164C46.4154 42.08 46.9864 42.6113 47.6751 42.9376C48.3639 43.2639 49.1367 43.3693 49.8876 43.2393C50.6386 43.1091 51.3309 42.75 51.8698 42.2109L51.9718 42.1089C52.3159 41.7666 52.5888 41.3595 52.7746 40.9111C52.9604 40.4626 53.0554 39.9819 53.054 39.4965L53.054 35.4398L58.7361 35.4398C58.5545 36.4703 58.4108 37.5082 58.3051 38.5533L58.2373 39.2312C58.1614 39.9895 58.3219 40.7528 58.6968 41.4164C59.0717 42.08 59.6426 42.6113 60.3314 42.9376C61.0201 43.2639 61.7929 43.3693 62.5439 43.2393C63.2948 43.1091 63.9872 42.75 64.526 42.2109L64.6281 42.1088ZM32.9121 39.4825L32.9799 38.8047C33.3736 34.8812 34.3504 31.0383 35.8781 27.4031C35.517 29.6321 35.3354 31.8866 35.3353 34.1447L35.3353 39.4968C35.3357 39.6497 35.3057 39.8011 35.2472 39.9424C35.1886 40.0836 35.1025 40.2118 34.994 40.3195L34.892 40.4216C34.7223 40.5913 34.5044 40.7042 34.268 40.7451C34.0316 40.7861 33.7883 40.7529 33.5715 40.6501C33.3547 40.5475 33.175 40.3802 33.0569 40.1714C32.9389 39.9625 32.8883 39.7223 32.9121 39.4835L32.9121 39.4825ZM48.0996 39.4825L48.1675 38.8047C48.5611 34.8812 49.5379 31.0383 51.0656 27.4031C50.7045 29.6321 50.5229 31.8866 50.5228 34.1447L50.5228 39.4968C50.5232 39.6497 50.4933 39.8011 50.4347 39.9424C50.3761 40.0836 50.2901 40.2118 50.1815 40.3195L50.0795 40.4216C49.9099 40.5913 49.6919 40.7042 49.4555 40.7451C49.2191 40.7861 48.9758 40.7529 48.759 40.6501C48.5422 40.5475 48.3625 40.3802 48.2444 40.1714C48.1264 39.9625 48.0758 39.7223 48.0996 39.4835L48.0996 39.4825ZM63.1791 34.1436L63.1791 39.4957C63.1795 39.6486 63.1495 39.8 63.0909 39.9413C63.0323 40.0825 62.9463 40.2107 62.8378 40.3184L62.7358 40.4205C62.5661 40.5902 62.3481 40.7031 62.1117 40.744C61.8754 40.785 61.6321 40.7518 61.4153 40.649C61.1985 40.5464 61.0188 40.3792 60.9007 40.1703C60.7827 39.9614 60.7321 39.7212 60.7559 39.4824L60.8237 38.8046C61.2174 34.8811 62.1942 31.0383 63.7219 27.4031C63.3608 29.632 63.1793 31.8862 63.1791 34.1442L63.1791 34.1436ZM38.0553 13.8834C37.1447 14.3659 36.27 14.913 35.4377 15.5206L35.4377 10.3561C35.4377 10.2117 35.429 10.0672 35.415 9.92322L38.0553 13.8834ZM48.0939 13.9242C51.1301 13.9247 54.1219 14.6539 56.8179 16.0504C59.5139 17.4468 61.8354 19.47 63.5874 21.9497C61.6412 25.3828 60.1857 29.0716 59.2631 32.9086L53.0735 32.9086C53.1619 30.0845 53.5518 27.2779 54.2366 24.5366L55.5473 19.2936C55.6187 19.0078 55.5881 18.706 55.4608 18.4402C55.3335 18.1746 55.1175 17.9615 54.85 17.838C54.5826 17.7145 54.2803 17.6882 53.9955 17.7635C53.7107 17.839 53.4611 18.0114 53.2898 18.251C50.1418 22.6626 47.8728 27.639 46.6068 32.9086L37.886 32.9086C37.9744 30.0845 38.3643 27.2779 39.0491 24.5366L40.3598 19.2936C40.4312 19.0078 40.4006 18.706 40.2733 18.4402C40.146 18.1746 39.93 17.9615 39.6625 17.838C39.395 17.7145 39.0928 17.6882 38.808 17.7635C38.5232 17.839 38.2736 18.0114 38.1023 18.251C34.9543 22.6626 32.6853 27.639 31.4193 32.9086L29.1095 32.9086C29.1152 27.8754 31.1172 23.0499 34.6762 19.4909C38.2352 15.9319 43.0607 13.9299 48.0939 13.9242ZM30.3785 39.7317C29.8442 38.3494 29.4751 36.9088 29.2786 35.4398L30.8923 35.4398C30.7107 36.4703 30.567 37.5082 30.4614 38.5533L30.3935 39.2312C30.3773 39.3975 30.3723 39.5647 30.3785 39.7317ZM28.2018 24.7137C27.0269 23.9146 26.1031 22.7983 25.5377 21.4949C24.9722 20.1914 24.7884 18.7543 25.0075 17.3504L26.1095 10.1873C26.1874 9.66315 26.4516 9.18463 26.8536 8.83948C27.2557 8.49432 27.7687 8.3056 28.2986 8.30798L30.8586 8.30798C31.2392 8.3067 31.6125 8.41211 31.9363 8.61218C32.26 8.81232 32.5212 9.09912 32.6903 9.44006C32.8321 9.72467 32.906 10.0381 32.9064 10.3561L32.9064 17.6831C30.8899 19.6935 29.291 22.0828 28.2018 24.7137ZM7.58597 12.1049L10.1251 12.1049C10.3602 12.1049 10.5905 12.0394 10.7905 11.9158C10.9904 11.7923 11.1519 11.6155 11.2571 11.4053L12.8945 8.13049C13.7904 6.32709 15.2056 4.83307 16.9579 3.84088C18.7102 2.84869 20.7194 2.40369 22.7268 2.56317L27.5509 2.93494C28.6043 3.01257 29.6259 3.33044 30.5373 3.8642C31.4487 4.39795 32.2258 5.13336 32.809 6.01404L33.0035 6.30591C32.3424 5.95715 31.606 5.77551 30.8586 5.77673L28.2986 5.77673C27.1634 5.77142 26.0644 6.17542 25.2028 6.91461C24.3413 7.65375 23.775 8.67865 23.6077 9.80145L22.5056 16.9648C22.1948 18.9565 22.4914 20.9956 23.3566 22.8162C24.2218 24.6368 25.6156 26.1545 27.3561 27.1712C26.839 29.0397 26.5773 30.9698 26.5783 32.9086C26.5783 33.2496 26.5871 33.5889 26.6029 33.9258C26.5599 34.1399 26.5733 34.3613 26.6417 34.5686C26.9814 38.8715 28.6044 42.9734 31.3007 46.3438C33.997 49.7142 37.6426 52.198 41.7659 53.4739L41.7659 59.4867C41.7659 59.8224 41.8993 60.1443 42.1366 60.3817C42.374 60.619 42.6959 60.7523 43.0316 60.7523L43.0316 73.4087L37.9689 73.4087L37.9689 58.2211C37.9689 57.9712 37.8949 57.7269 37.7563 57.519L35.225 53.7222C35.1332 53.5829 35.0149 53.4631 34.8766 53.3699C34.7384 53.2765 34.5832 53.2113 34.4197 53.1782C34.2563 53.1451 34.0879 53.1445 33.9242 53.1768C33.7606 53.2089 33.6049 53.2731 33.4662 53.3656C33.3274 53.4581 33.2083 53.5771 33.1157 53.7158C33.0231 53.8546 32.9588 54.0103 32.9265 54.1738C32.8943 54.3374 32.8947 54.5059 32.9277 54.6693C32.9608 54.8328 33.0258 54.988 33.119 55.1263L35.4377 58.6042L35.4377 73.4087L29.7868 73.4087L28.2078 71.0386L30.0053 69.2411C30.2423 69.0037 30.3754 68.6816 30.3752 68.3462L30.3752 60.7523C30.3751 60.5736 30.3372 60.397 30.264 60.2339C30.1908 60.0709 30.0838 59.9252 29.9502 59.8065L18.7418 49.8433L15.2285 42.8165C13.5413 39.432 12.6609 35.7026 12.6564 31.9209L12.6564 23.4955C12.6564 23.2205 12.5669 22.953 12.4013 22.7335C12.2357 22.5139 12.0032 22.3542 11.7388 22.2786L5.49216 20.4943C4.95517 20.3415 4.47516 20.0339 4.112 19.6098C3.74887 19.1858 3.51874 18.6642 3.45038 18.1101L3.27493 16.705L4.00012 16.524C4.99588 16.2753 5.88394 15.7099 6.53064 14.9129C7.17734 14.116 7.5477 13.1305 7.58597 12.1049ZM5.05472 12.1049C5.01651 12.5655 4.83499 13.0026 4.53561 13.3547C4.23627 13.7068 3.83411 13.9563 3.38568 14.0682L2.95853 14.1749L2.69937 12.1049L5.05472 12.1049Z" fill="#000000" fill-opacity="1.000000" fill-rule="nonzero"/>
</svg>
