<svg width="78.000000" height="78.000000" viewBox="0 0 78 78" fill="none" xmlns="http://www.w3.org/2000/svg" xmlns:xlink="http://www.w3.org/1999/xlink">
	<desc>
			Created with Pixso.
	</desc>
	<defs/>
	<path id="Vector" d="M39.6124 5.71289L26.2061 5.71289C24.9439 5.71289 23.921 4.68994 23.921 3.42773C23.921 2.16553 24.9439 1.14258 26.2061 1.14258L39.6124 1.14258C40.8746 1.14258 41.8975 2.16553 41.8975 3.42773C41.8975 4.68994 40.8746 5.71289 39.6124 5.71289Z" fill="#716680" fill-opacity="1.000000" fill-rule="nonzero"/>
	<path id="Vector" d="M27.5772 51.6445L38.2413 51.6445L38.2413 56.2148L27.5772 56.2148L27.5772 51.6445Z" fill="#716680" fill-opacity="1.000000" fill-rule="nonzero"/>
	<path id="Vector" d="M26.8155 5.71289L39.003 5.71289L39.003 12.0352L26.8155 12.0352L26.8155 5.71289Z" fill="#D6CFC4" fill-opacity="1.000000" fill-rule="nonzero"/>
	<path id="Vector" d="M34.4326 5.71289L39.0029 5.71289L39.0029 12.0352L34.4326 12.0352L34.4326 5.71289Z" fill="#C4BEB4" fill-opacity="1.000000" fill-rule="nonzero"/>
	<path id="Vector" d="M68.8611 30.6223L68.8611 63.2227L59.7193 63.2227L59.7193 30.9269C59.7193 27.8973 57.2633 25.442 54.2337 25.442L45.0955 25.442L45.0955 16.3008L54.5384 16.3008C62.4484 16.3008 68.8611 22.7129 68.8611 30.6223Z" fill="#716680" fill-opacity="1.000000" fill-rule="nonzero"/>
	<path id="Vector" d="M54.5385 16.3008L49.9681 16.3008C57.8781 16.3008 64.2908 22.7129 64.2908 30.6223L64.2908 63.2227L68.8611 63.2227L68.8611 30.6223C68.8611 22.7129 62.4484 16.3008 54.5385 16.3008Z" fill="#635870" fill-opacity="1.000000" fill-rule="nonzero"/>
	<path id="Vector" d="M55.834 76.8574L22.166 76.8574C17.1601 76.8574 13.1016 72.799 13.1016 67.793L64.8984 67.793C64.8984 72.799 60.8399 76.8574 55.834 76.8574Z" fill="#716680" fill-opacity="1.000000" fill-rule="nonzero"/>
	<path id="Vector" d="M60.3281 67.793C60.3281 72.799 56.2696 76.8574 51.2637 76.8574L55.834 76.8574C60.8399 76.8574 64.8984 72.799 64.8984 67.793L60.3281 67.793Z" fill="#635870" fill-opacity="1.000000" fill-rule="nonzero"/>
	<path id="Vector" d="M42.0499 51.6445L23.7686 51.6445C22.0857 51.6445 20.7217 50.2805 20.7217 48.5977L20.7217 15.082C20.7217 13.3991 22.0857 12.0352 23.7686 12.0352L42.0499 12.0352C43.7328 12.0352 45.0967 13.3991 45.0967 15.082L45.0967 48.5977C45.0967 50.2805 43.7328 51.6445 42.0499 51.6445Z" fill="#E8E1D5" fill-opacity="1.000000" fill-rule="nonzero"/>
	<path id="Vector" d="M42.0498 12.0352L37.4783 12.0352C39.1606 12.0352 40.5251 13.3991 40.5251 15.082L40.5251 48.5977C40.5251 50.2805 39.1606 51.6445 37.4783 51.6445L42.0498 51.6445C43.7327 51.6445 45.0966 50.2805 45.0966 48.5977L45.0966 15.082C45.0966 13.3991 43.7327 12.0352 42.0498 12.0352Z" fill="#D6CFC4" fill-opacity="1.000000" fill-rule="nonzero"/>
	<path id="Vector" d="M51.1892 20.8003C51.1892 24.1655 48.4607 26.894 45.0955 26.894C41.7296 26.894 39.0017 24.1655 39.0017 20.8003C39.0017 17.4351 41.7296 14.7065 45.0955 14.7065C48.4607 14.7065 51.1892 17.4351 51.1892 20.8003Z" fill="#FFBD54" fill-opacity="1.000000" fill-rule="nonzero"/>
	<path id="Vector" d="M47.3806 20.8003C47.3806 22.0625 46.3571 23.0854 45.0955 23.0854C43.8333 23.0854 42.8103 22.0625 42.8103 20.8003C42.8103 19.5381 43.8333 18.5151 45.0955 18.5151C46.3571 18.5151 47.3806 19.5381 47.3806 20.8003Z" fill="#FF573D" fill-opacity="1.000000" fill-rule="nonzero"/>
	<path id="Vector" d="M74.5723 67.793L3.42773 67.793C2.16554 67.793 1.14258 66.77 1.14258 65.5078C1.14258 64.2456 2.16554 63.2227 3.42773 63.2227L74.5723 63.2227C75.8345 63.2227 76.8574 64.2456 76.8574 65.5078C76.8574 66.77 75.8345 67.793 74.5723 67.793Z" fill="#E8E1D5" fill-opacity="1.000000" fill-rule="nonzero"/>
	<path id="Vector" d="M74.5723 63.2227L70.002 63.2227C71.2641 63.2227 72.2871 64.2456 72.2871 65.5078C72.2871 66.77 71.2641 67.793 70.002 67.793L74.5723 67.793C75.8345 67.793 76.8574 66.77 76.8574 65.5078C76.8574 64.2456 75.8345 63.2227 74.5723 63.2227Z" fill="#D6CFC4" fill-opacity="1.000000" fill-rule="nonzero"/>
	<path id="Vector" d="M45.0955 24.228C46.9855 24.228 48.5232 22.6903 48.5232 20.8003C48.5232 18.9103 46.9849 17.3726 45.0955 17.3726C43.2054 17.3726 41.6677 18.9103 41.6677 20.8003C41.6677 22.6903 43.2048 24.228 45.0955 24.228ZM45.0955 19.6577C45.7251 19.6577 46.238 20.1701 46.238 20.8003C46.238 21.4305 45.7251 21.9429 45.0955 21.9429C44.4653 21.9429 43.9529 21.4305 43.9529 20.8003C43.9529 20.1701 44.4653 19.6577 45.0955 19.6577Z" fill="#000000" fill-opacity="1.000000" fill-rule="nonzero"/>
	<path id="Vector" d="M74.5723 62.0801L70.0037 62.0801L70.0037 61.4963C70.0037 60.8649 69.492 60.3538 68.8612 60.3538C68.2298 60.3538 67.7186 60.8649 67.7186 61.4963L67.7186 62.0801L60.8613 62.0801L60.8613 30.9276C60.8613 27.2725 57.8882 24.2988 54.2344 24.2988L51.4267 24.2988C52.0028 23.261 52.3313 22.0684 52.3313 20.8003C52.3313 19.5892 52.0307 18.4473 51.5029 17.4434L54.5391 17.4434C61.8063 17.4434 67.7186 23.3556 67.7186 30.6229L67.7186 56.6462C67.7186 57.2777 68.2298 57.7888 68.8612 57.7888C69.492 57.7888 70.0037 57.2777 70.0037 56.6462L70.0037 30.6229C70.0037 22.0952 63.0661 15.1582 54.5391 15.1582L49.6188 15.1582C48.5953 14.3358 47.3438 13.7865 45.9757 13.6193C45.3788 12.0137 43.8298 10.8926 42.0499 10.8926L40.1456 10.8926L40.1456 6.81384C41.7832 6.55676 43.0401 5.13623 43.0401 3.42773C43.0401 1.53772 41.5024 0 39.6124 0L26.2061 0C24.3161 0 22.7784 1.53772 22.7784 3.42773C22.7784 5.13623 24.0352 6.55676 25.6729 6.81384L25.6729 10.8926L23.7686 10.8926C21.4585 10.8926 19.5791 12.7719 19.5791 15.082L19.5791 19.4875C19.5791 20.1183 20.0909 20.6301 20.7217 20.6301C21.3525 20.6301 21.8643 20.1183 21.8643 19.4875L21.8643 15.082C21.8643 14.0317 22.7189 13.1777 23.7686 13.1777L42.0499 13.1777C42.5848 13.1777 43.0728 13.4003 43.4209 13.7615C40.236 14.519 37.8592 17.3862 37.8592 20.8003C37.8592 24.4023 40.5044 27.3969 43.9541 27.9456L43.9541 48.5977C43.9541 49.6479 43.1002 50.502 42.0499 50.502L23.7686 50.502C22.7189 50.502 21.8643 49.6479 21.8643 48.5977L21.8643 24.356C21.8643 23.7245 21.3525 23.2134 20.7217 23.2134C20.0909 23.2134 19.5791 23.7245 19.5791 24.356L19.5791 48.5977C19.5791 50.9078 21.4585 52.7871 23.7686 52.7871L26.4346 52.7871L26.4346 56.2148C26.4346 56.8462 26.9464 57.3574 27.5772 57.3574L38.2413 57.3574C38.8721 57.3574 39.3838 56.8462 39.3838 56.2148L39.3838 52.7871L42.0499 52.7871C44.36 52.7871 46.2393 50.9078 46.2393 48.5977L46.2393 27.9456C47.4259 27.7557 48.5179 27.2778 49.4385 26.584L54.2344 26.584C56.6284 26.584 58.5762 28.5323 58.5762 30.9276L58.5762 62.0801L3.42773 62.0801C1.53772 62.0801 0 63.6178 0 65.5078C0 67.3978 1.53772 68.9355 3.42773 68.9355L12.0244 68.9355C12.5945 74.0277 16.9244 78 22.166 78L55.834 78C61.0756 78 65.4055 74.0277 65.9756 68.9355L74.5723 68.9355C76.4623 68.9355 78 67.3978 78 65.5078C78 63.6178 76.4623 62.0801 74.5723 62.0801ZM25.0635 3.42773C25.0635 2.79755 25.5759 2.28516 26.2061 2.28516L39.6124 2.28516C40.2426 2.28516 40.7549 2.79755 40.7549 3.42773C40.7549 4.05792 40.2426 4.57031 39.6124 4.57031L26.2061 4.57031C25.5759 4.57031 25.0635 4.05792 25.0635 3.42773ZM27.9581 10.8926L27.9581 6.85547L37.8604 6.85547L37.8604 10.8926L27.9581 10.8926ZM37.0987 55.0723L28.7198 55.0723L28.7198 52.7871L37.0987 52.7871L37.0987 55.0723ZM40.1444 20.8003C40.1444 18.07 42.3652 15.8491 45.0955 15.8491C47.8252 15.8491 50.0467 18.07 50.0467 20.8003C50.0467 23.527 47.8312 25.7449 45.1062 25.7509C45.1027 25.7509 45.0997 25.7509 45.0967 25.7509C45.0932 25.7509 45.0902 25.7509 45.0866 25.7509C42.3605 25.7467 40.1444 23.5276 40.1444 20.8003ZM74.5723 66.6504L20.7188 66.6504C20.088 66.6504 19.5762 67.1616 19.5762 67.793C19.5762 68.4243 20.088 68.9355 20.7188 68.9355L63.6725 68.9355C63.1167 72.7644 59.814 75.7148 55.834 75.7148L22.166 75.7148C18.186 75.7148 14.8833 72.7644 14.3275 68.9355L15.8687 68.9355C16.5001 68.9355 17.0113 68.4243 17.0113 67.793C17.0113 67.1616 16.5001 66.6504 15.8687 66.6504L3.42773 66.6504C2.79753 66.6504 2.28516 66.1381 2.28516 65.5078C2.28516 64.8776 2.79753 64.3652 3.42773 64.3652L74.5723 64.3652C75.2025 64.3652 75.7148 64.8776 75.7148 65.5078C75.7148 66.1381 75.2025 66.6504 74.5723 66.6504Z" fill="#000000" fill-opacity="1.000000" fill-rule="nonzero"/>
	<path id="Vector" d="M24.6827 48.3691L41.1358 48.3691C41.7666 48.3691 42.2784 47.8579 42.2784 47.2266C42.2784 46.5952 41.7666 46.084 41.1358 46.084L24.6827 46.084C24.0519 46.084 23.5401 46.5952 23.5401 47.2266C23.5401 47.8579 24.0519 48.3691 24.6827 48.3691Z" fill="#000000" fill-opacity="1.000000" fill-rule="nonzero"/>
	<path id="Vector" d="M24.6827 44.1035L41.1358 44.1035C41.7666 44.1035 42.2784 43.5923 42.2784 42.9609C42.2784 42.3296 41.7666 41.8184 41.1358 41.8184L24.6827 41.8184C24.0519 41.8184 23.5401 42.3296 23.5401 42.9609C23.5401 43.5923 24.0519 44.1035 24.6827 44.1035Z" fill="#000000" fill-opacity="1.000000" fill-rule="nonzero"/>
</svg>
