<svg width="20.856567" height="20.856567" viewBox="0 0 20.8566 20.8566" fill="none" xmlns="http://www.w3.org/2000/svg" xmlns:xlink="http://www.w3.org/1999/xlink">
	<desc>
			Created with Pixso.
	</desc>
	<defs/>
	<path id="Vector" d="M6.70074 12.9129C6.40051 13.5284 6.27295 14.0436 6.26477 14.0774C6.2204 14.2606 6.2998 14.45 6.4588 14.5475C6.54578 14.601 8.60986 15.8473 10.3237 15.14C10.4608 15.0834 10.5947 15.0214 10.7245 14.9546C9.26312 14.5898 7.89337 13.8237 6.70074 12.9129Z" fill="#78C0DE" fill-opacity="1.000000" fill-rule="nonzero"/>
	<path id="Vector" d="M6.73889 7.3425C6.74225 7.34512 6.89062 7.46527 7.0871 7.65872C8.68378 6.52145 10.5585 5.67389 12.5195 5.67389C12.9522 5.67383 13.3884 5.69983 13.8265 5.75119C13.6021 5.34781 13.2287 4.92679 12.6282 4.52652C11.4501 3.74112 9.92975 4.33868 8.73505 5.09094C7.60669 5.80136 6.73993 6.66327 6.70361 6.69962C6.52283 6.88043 6.53729 7.18002 6.73889 7.3425Z" fill="#78C0DE" fill-opacity="1.000000" fill-rule="nonzero"/>
	<path id="Vector" d="M5.51276 11.9073C5.33057 11.7362 5.06903 11.48 4.90192 11.2932C4.46075 10.8002 4.46069 10.0566 4.9024 9.56314C5.01672 9.43558 5.24542 9.20032 5.51276 8.94952C5.04376 8.59448 4.4679 8.04797 3.92535 7.23413C3.77429 7.00769 3.45319 6.97516 3.26007 7.16827C2.61511 7.81323 2.26025 8.59067 2.28656 9.30112C2.31427 10.0494 2.31427 10.8079 2.28656 11.5557C2.26025 12.2661 2.61511 13.0435 3.26007 13.6885C3.45288 13.8813 3.77417 13.8494 3.92535 13.6226C4.4679 12.8088 5.04376 12.2623 5.51276 11.9073Z" fill="#78C0DE" fill-opacity="1.000000" fill-rule="nonzero"/>
	<path id="Vector" d="M15.3494 13.6751C14.0412 12.1703 14.0386 8.6973 15.3458 7.18567C15.361 7.16818 15.3516 7.17838 15.5494 6.98047C14.5327 6.68713 13.5149 6.53821 12.5197 6.53839C10.3065 6.53836 8.14246 7.78952 6.49103 9.2301C6.07715 9.59131 5.71759 9.94885 5.54608 10.1401C5.39923 10.3043 5.39923 10.5526 5.54614 10.7166C5.91406 11.1281 6.67694 11.8334 7.49768 12.4288C8.75262 13.3381 10.202 14.0715 11.7327 14.2671C11.7396 14.2609 12.0088 14.3119 12.5485 14.3181C13.5305 14.3153 14.5439 14.169 15.5311 13.8848L15.3494 13.6751Z" fill="#78C0DE" fill-opacity="1.000000" fill-rule="nonzero"/>
	<path id="Vector" d="M19.8427 11.4044C20.0468 11.147 20.2306 10.8153 20.2546 10.4848C20.3083 9.75839 19.5006 9.01459 18.9138 8.58188C18.1848 8.04425 17.3079 7.60269 16.4671 7.28537L15.9901 7.76239C14.974 8.95731 14.9816 11.9345 16.0023 13.1085L16.421 13.5917C17.585 13.158 19.0792 12.3796 19.8427 11.4044ZM16.7023 10.0649C16.6335 9.84589 16.7548 9.59766 16.9901 9.52615C17.213 9.45209 17.4843 9.58875 17.5394 9.85504C17.5615 9.96289 17.5406 10.0792 17.475 10.1794C17.2635 10.4881 16.8051 10.4054 16.7023 10.0649Z" fill="#78C0DE" fill-opacity="1.000000" fill-rule="nonzero"/>
</svg>
