<svg width="14.000000" height="14.000000" viewBox="0 0 14 14" fill="none" xmlns="http://www.w3.org/2000/svg" xmlns:xlink="http://www.w3.org/1999/xlink">
	<desc>
			Created with Pixso.
	</desc>
	<defs/>
	<path id="Vector" d="M11.6667 1.75C11.6667 1.42783 11.4055 1.16669 11.0834 1.16669L9.33335 1.16669L9.33335 0L8.16668 0L8.16668 1.16669L6.41668 1.16669L6.41668 0L5.25 0L5.25 1.16669L3.5 1.16669L3.5 0L2.33332 0L2.33332 1.16669L0.583324 1.16669C0.26116 1.16669 0 1.42783 0 1.75L0 2.91669L11.6667 2.91669L11.6667 1.75Z" fill="#FFBD54" fill-opacity="1.000000" fill-rule="nonzero"/>
	<path id="Vector" d="M9.32291 6.58865C9.70476 6.47409 10.1014 6.41617 10.5 6.41666C10.8952 6.41699 11.2882 6.47498 11.6667 6.58871L11.6667 3.5L0 3.5L0 11.0833C0 11.4055 0.26116 11.6667 0.583324 11.6667L6.58875 11.6667C5.94152 9.50943 7.16565 7.23593 9.32291 6.58865ZM8.16668 4.66669L9.33335 4.66669L9.33335 5.83334L8.16668 5.83334L8.16668 4.66669ZM5.25 4.66669L6.41668 4.66669L6.41668 5.83334L5.25 5.83334L5.25 4.66669ZM3.5 10.5L2.33332 10.5L2.33332 9.33331L3.5 9.33331L3.5 10.5ZM3.5 8.16669L2.33332 8.16669L2.33332 7L3.5 7L3.5 8.16669ZM3.5 5.83331L2.33332 5.83331L2.33332 4.66666L3.5 4.66666L3.5 5.83331ZM5.25 7L6.41668 7L6.41668 8.16669L5.25 8.16669L5.25 7Z" fill="#FFBD54" fill-opacity="1.000000" fill-rule="nonzero"/>
	<path id="Vector" d="M10.5 7C8.56702 7 7 8.56702 7 10.5C7 12.433 8.56702 14 10.5 14C12.433 14 14 12.433 14 10.5C13.9978 8.56793 12.4321 7.00223 10.5 7ZM10.9124 10.9124C10.7558 11.0678 10.5253 11.1223 10.3157 11.0536L8.56568 10.4703L8.93493 9.36194L10.3425 9.82861L11.8376 8.33356L12.6624 9.15839L10.9124 10.9124Z" fill="#FFBD54" fill-opacity="1.000000" fill-rule="nonzero"/>
</svg>
