<svg width="177.554077" height="86.231750" viewBox="0 0 177.554 86.2318" fill="none" xmlns="http://www.w3.org/2000/svg" xmlns:xlink="http://www.w3.org/1999/xlink">
	<desc>
			Created with Pixso.
	</desc>
	<defs/>
	<path id="Vector" d="M10.95 37.8814L0 32.8363L11.8544 27.3617C12.1905 10.9838 28.0139 7.43341 34.5763 8.06897C41.1387 8.70526 60.2298 20.4143 52.5372 44.3313C49.9161 52.4819 50.5349 73.5703 81.1232 71.6227C78.8256 75.9526 68.0414 93.9121 32.9413 82.4872C23.2099 79.3196 9.34357 63.6387 10.95 37.8814Z" fill="#FFBD54" fill-opacity="1.000000" fill-rule="nonzero"/>
	<path id="Vector" d="M110.818 32.7034C111.778 21.1024 105.765 10.5871 102.242 8.16467C98.9545 5.90512 98.9428 15.66 96.0156 21.0104C91.6696 19.1994 86.8546 18.1825 81.7803 18.1825C76.7155 18.1825 71.9086 19.195 67.5699 21.0002C64.6478 15.6468 64.6332 5.90512 61.3487 8.16321C57.8289 10.5754 51.8276 21.0842 52.7714 32.6625C49.1487 37.7441 47.0345 43.8294 47.0345 50.3758C47.0345 68.1563 62.5913 81.3432 81.7796 81.3432C100.969 81.3432 116.525 68.1563 116.525 50.3758C116.525 43.847 114.421 37.7769 110.818 32.7034Z" fill="#78C0DE" fill-opacity="1.000000" fill-rule="nonzero"/>
	<path id="Vector" d="M109.119 52.411C110.017 36.4941 116.096 34.2938 116.894 24.5601C118 11.0817 127.285 1.28156 131.872 0.074707C136.459 -1.12921 130.608 12.5493 134.719 17.1919C143.319 14.2106 148.78 16.7492 153.093 21.4151C157.409 26.0825 151.776 30.5395 160.223 29.3444C163.698 28.8513 167.31 28.9674 170.333 29.7374C170.619 29.5482 170.928 29.3867 171.264 29.2706C173.642 28.4473 176.316 29.9325 177.239 32.5923C177.587 33.5997 177.632 34.6305 177.427 35.5685C177.532 36.0821 177.576 36.6271 177.543 37.2064C177.077 45.3884 166.994 56.6577 160.73 57.4788C154.466 58.3014 147.815 57.2194 147.645 69.7525C147.42 86.4453 110.469 93.0515 101.418 76.1045C108.042 71.3129 108.434 64.5672 109.119 52.411Z" fill="#000000" fill-opacity="1.000000" fill-rule="nonzero"/>
	<path id="Vector" d="M136.872 22.1398C141.197 22.5219 144.633 20.2244 147.978 17.6485C146.633 17.4827 145.147 17.4724 143.48 17.6624C140.973 13.1316 148.234 3.04581 144.274 3.19189C140.705 3.31903 131.571 8.20996 127.36 17.075C130.417 19.1286 132.848 22.3575 136.872 22.1398Z" fill="#000000" fill-opacity="1.000000" fill-rule="nonzero"/>
	<path id="Vector" d="M38.1417 34.4355C37.6252 34.2806 37.0927 34.239 36.563 34.3149C35.0164 34.5356 33.7095 35.7483 33.3187 37.3145L29.8494 50.2764L22.9312 38.7785C22.0633 37.3949 20.4568 36.611 18.9315 36.8287C18.4114 36.9032 17.9307 37.0873 17.5018 37.3781C16.5309 37.9771 15.8618 38.8793 15.6156 39.9225C15.3789 40.9146 15.5571 41.9498 16.0999 42.8147L27.8024 62.4625C27.8864 62.632 28.0172 62.8774 28.2451 63.0769C28.3247 63.166 28.4167 63.239 28.5205 63.2975C28.5205 63.299 28.5205 63.299 28.5212 63.2997L28.625 63.4487L28.7689 63.5576C28.8207 63.597 28.8799 63.6387 28.9471 63.6759L28.9749 63.8702L29.4688 64.0353L29.62 64.1478L30.7399 64.3896L31.073 64.4525L31.2396 64.4284C31.5245 64.443 31.7356 64.413 31.8576 64.3962C32.0242 64.3728 32.2418 64.3414 32.5114 64.2465L32.7634 64.2107L32.9695 64.0689L33.9747 63.4232L34.1807 63.1485C34.2406 63.082 34.3275 62.9863 34.4167 62.8489C34.4868 62.7671 34.5467 62.6765 34.5912 62.5779C34.6212 62.5304 34.6519 62.4815 34.6804 62.4311C34.6862 62.4216 34.6921 62.4128 34.6972 62.4033C34.7951 62.2981 34.8732 62.1761 34.9288 62.0439C35.0281 61.8576 35.1085 61.6363 35.1537 61.4251L41.0017 39.2899C41.2881 38.2825 41.169 37.2386 40.6664 36.3517C40.1339 35.41 39.2272 34.7262 38.1417 34.4355Z" fill="#FFFFFF" fill-opacity="1.000000" fill-rule="nonzero"/>
	<path id="Vector" d="M81.5787 34.2806C72.2607 34.4435 64.7589 42.3837 64.8568 51.9998C65.0963 61.6874 72.7042 69.2017 82.177 69.1053L82.1873 69.1053C87.1732 69.0176 91.2086 67.444 94.5179 64.2947C95.3237 63.5335 95.7635 62.5648 95.7883 61.4945C95.822 60.1197 95.1608 58.915 94.5194 58.2334C93.829 57.4423 92.6171 56.985 91.2634 57.0083C89.9039 57.0324 88.6489 57.5416 87.7977 58.4095C86.7056 59.2292 84.8055 59.7763 82.9214 59.8099C82.6555 59.8143 82.3925 59.8077 82.1405 59.7917C80.1732 59.658 77.9384 58.6725 76.8295 57.4481L76.7396 57.3575C76.2349 56.8965 75.7863 56.2427 75.4349 55.4684L94.027 55.144C96.4488 55.1016 98.316 53.5967 98.6229 51.4628C98.6952 51.1947 98.7083 50.9018 98.7025 50.5643L98.693 50.1632C97.9741 40.7992 90.7762 34.1199 81.5787 34.2806ZM89.2186 47.065L75.0419 47.3127C76.012 45.3935 78.1583 43.3458 81.7102 43.0858C85.3505 43.3422 87.9359 45.2306 89.2186 47.065Z" fill="#FFFFFF" fill-opacity="1.000000" fill-rule="nonzero"/>
	<path id="Vector" d="M138.074 49.6825C140.609 49.9469 142.971 48.0578 143.232 45.5572C143.496 43.0112 141.616 40.7232 139.038 40.4543L138.796 40.4288L139.581 32.8999C139.851 30.3123 138.036 28.0739 135.449 27.8036C132.827 27.5297 130.562 29.3429 130.292 31.9297L129.505 39.4579L129.02 39.4075C126.432 39.1379 124.193 40.9526 123.923 43.5409C123.658 46.0846 125.511 48.3705 128.056 48.6371L128.541 48.6875L126.906 64.3517C126.443 68.77 129.663 72.7411 134.083 73.2028C136.67 73.4731 138.908 71.6592 139.18 69.0702C139.407 66.8976 138.201 64.9711 136.31 64.2202L137.83 49.6562L138.074 49.6825Z" fill="#FFFFFF" fill-opacity="1.000000" fill-rule="nonzero"/>
</svg>
