<svg width="27.638031" height="26.187042" viewBox="0 0 27.638 26.187" fill="none" xmlns="http://www.w3.org/2000/svg" xmlns:xlink="http://www.w3.org/1999/xlink">
	<desc>
			Created with Pixso.
	</desc>
	<defs/>
	<path id="Vector" d="M23.5768 17.0502C21.3794 13.8373 19.0102 10.3118 13.4713 11.7959C11.0025 12.4574 9.35924 13.7306 8.44771 15.6883C7.64029 17.4223 7.49518 19.459 7.34697 21.399C7.16312 23.7769 9.63547 25.4663 11.7937 24.4196C13.5643 23.5604 15.9661 22.2685 19.8194 21.9914C21.3044 21.8846 21.4472 21.8926 21.8312 21.7897C23.837 21.2522 24.8075 18.8464 23.5768 17.0502Z" fill="#FBDD7B" fill-opacity="1.000000" fill-rule="nonzero"/>
	<path id="Vector" d="M21.8312 21.7897C23.837 21.2522 24.8075 18.8463 23.5767 17.0502C21.3794 13.8373 19.0102 10.3118 13.4713 11.7959L16.3589 22.5725C19.1333 21.8291 20.9282 22.0316 21.8312 21.7897Z" fill="#FECB3E" fill-opacity="1.000000" fill-rule="nonzero"/>
	<path id="Vector" d="M16.5662 16.4036L15.4815 16.6943L15.1908 15.6095C15.0945 15.2501 14.725 15.0367 14.3655 15.1331C14.0061 15.2294 13.7927 15.5989 13.8891 15.9583L14.1797 17.0431L13.0949 17.3338C12.7355 17.4301 12.5222 17.7996 12.6185 18.159C12.7148 18.5185 13.0843 18.7318 13.4437 18.6355L14.5285 18.3448L14.8192 19.4296C14.9155 19.7891 15.285 20.0024 15.6445 19.9061C16.0039 19.8098 16.2172 19.4403 16.1209 19.0808L15.8302 17.996L16.915 17.7054C17.2745 17.6091 17.4878 17.2396 17.3915 16.8801C17.2952 16.5207 16.9257 16.3073 16.5662 16.4036Z" fill="#FFF8E0" fill-opacity="1.000000" fill-rule="nonzero"/>
	<path id="Vector" d="M16.1209 19.0808L15.8302 17.996L16.915 17.7054C17.2744 17.6091 17.4878 17.2396 17.3915 16.8801C17.2952 16.5207 16.9256 16.3073 16.5662 16.4036L15.4814 16.6943L15.1908 15.6095C15.0944 15.2501 14.7249 15.0367 14.3655 15.1331L15.6444 19.9061C16.0039 19.8098 16.2172 19.4403 16.1209 19.0808Z" fill="#FFE799" fill-opacity="1.000000" fill-rule="nonzero"/>
	<path id="Vector" d="M21.2765 6.21228C19.9606 6.56488 19.1769 7.92233 19.5295 9.23825C19.8821 10.5542 21.2395 11.3379 22.5555 10.9853C23.8714 10.6327 24.6985 9.26364 24.3459 7.94769C23.9933 6.63177 22.5925 5.85968 21.2765 6.21228Z" fill="#FECB3E" fill-opacity="1.000000" fill-rule="nonzero"/>
	<path id="Vector" d="M18.2373 4.74783C18.7456 6.64493 17.9321 8.51123 16.4203 8.91635C14.9084 9.32144 13.2708 8.11191 12.7625 6.21481C12.2541 4.31769 13.0676 2.45139 14.5795 2.0463C16.0913 1.6412 17.729 2.85071 18.2373 4.74783Z" fill="#FECB3E" fill-opacity="1.000000" fill-rule="evenodd"/>
	<path id="Vector" d="M11.2947 6.60809C11.803 8.50519 10.9895 10.3715 9.47766 10.7766C7.96582 11.1817 6.32816 9.97217 5.81982 8.07507C5.31149 6.17795 6.125 4.31165 7.63684 3.90656C9.14867 3.50146 10.7863 4.71097 11.2947 6.60809Z" fill="#FBDD7B" fill-opacity="1.000000" fill-rule="evenodd"/>
	<path id="Vector" d="M3.92001 10.8629C2.6041 11.2155 1.77698 12.5846 2.12958 13.9005C2.48218 15.2165 3.88303 15.9886 5.19894 15.636C6.51488 15.2834 7.2986 13.9259 6.946 12.61C6.5934 11.2941 5.23595 10.5103 3.92001 10.8629Z" fill="#FBDD7B" fill-opacity="1.000000" fill-rule="nonzero"/>
</svg>
