<svg width="14.000000" height="13.000000" viewBox="0 0 14 13" fill="none" xmlns="http://www.w3.org/2000/svg" xmlns:xlink="http://www.w3.org/1999/xlink">
	<desc>
			Created with Pixso.
	</desc>
	<defs/>
	<path d="M13.7103 6.39349L7.3493 0.142365C7.30353 0.097229 7.24908 0.0614319 7.18921 0.0370178C7.12933 0.0125732 7.06512 0 7.00031 0C6.93542 0 6.87128 0.0125732 6.81134 0.0370178C6.75146 0.0614319 6.69708 0.097229 6.65131 0.142365L0.290344 6.39349C0.105042 6.57574 0 6.8233 0 7.08148C0 7.61758 0.443237 8.05347 0.988342 8.05347L1.65857 8.05347L1.65857 12.514C1.65857 12.7828 1.87939 13 2.15277 13L6.01196 13L6.01196 9.59802L7.74158 9.59802L7.74158 13L11.8478 13C12.1212 13 12.342 12.7828 12.342 12.514L12.342 8.05347L13.0122 8.05347C13.2748 8.05347 13.5265 7.95172 13.7118 7.76794C14.0963 7.38828 14.0963 6.77316 13.7103 6.39349Z" fill="#FFBD54" fill-opacity="1.000000" fill-rule="nonzero"/>
</svg>
