<svg width="21.000000" height="21.001465" viewBox="0 0 21 21.0015" fill="none" xmlns="http://www.w3.org/2000/svg" xmlns:xlink="http://www.w3.org/1999/xlink">
	<desc>
			Created with Pixso.
	</desc>
	<defs/>
	<path id="Vector" d="M20.4589 6.60913C19.7393 5.88953 18.5682 5.88953 17.8483 6.60938C17.6269 6.83093 16.2132 8.24585 15.9972 8.46204L15.9972 3.58606C15.9972 3.09302 15.8052 2.62952 15.4566 2.28088L13.7163 0.540649C13.3677 0.192017 12.9042 0 12.4111 0L1.84583 0C0.828041 0 0 0.828003 0 1.84583L0 19.1556C0 20.1735 0.828041 21.0015 1.84583 21.0015L14.1514 21.0015C15.1692 21.0015 15.9972 20.1735 15.9972 19.1556L15.9972 13.6851L20.4589 9.2196C21.1803 8.49829 21.1804 7.33057 20.4589 6.60913ZM12.3056 1.23059C12.4218 1.23059 12.6458 1.21045 12.8462 1.41077L14.5865 3.151C14.7817 3.34631 14.7667 3.5603 14.7667 3.69165L12.3056 3.69165L12.3056 1.23059ZM14.7667 19.1556C14.7667 19.4949 14.4907 19.7709 14.1514 19.7709L1.84583 19.7709C1.50657 19.7709 1.23055 19.4949 1.23055 19.1556L1.23055 1.84583C1.23055 1.50659 1.50657 1.23059 1.84583 1.23059L11.075 1.23059L11.075 4.30688C11.075 4.64673 11.3505 4.92224 11.6903 4.92224L14.7667 4.92224L14.7667 9.6936C14.7667 9.6936 12.9514 11.5104 12.9514 11.5105L12.0816 12.3802C12.0141 12.4478 11.9632 12.5302 11.933 12.6207L11.0628 15.2311C10.9891 15.4523 11.0467 15.6959 11.2115 15.8607C11.3765 16.0258 11.6203 16.083 11.8411 16.0094L14.4515 15.1393C14.5421 15.1091 14.6245 15.0582 14.692 14.9906L14.7667 14.916L14.7667 19.1556ZM13.3868 12.8153L14.2569 13.6854L13.9246 14.0178L12.6194 14.4529L13.0544 13.1476L13.3868 12.8153ZM15.1269 12.8151L14.2568 11.9449C14.7201 11.4812 16.778 9.42163 17.2144 8.98486L18.0845 9.85498L15.1269 12.8151ZM19.5886 8.34961L18.9543 8.9845L18.0842 8.11438L18.7187 7.47937C18.9587 7.23938 19.349 7.23938 19.5888 7.47937C19.8287 7.71924 19.83 8.10828 19.5886 8.34961Z" fill="#FFFFFF" fill-opacity="1.000000" fill-rule="nonzero"/>
</svg>
