<svg width="13.000000" height="13.000000" viewBox="0 0 13 13" fill="none" xmlns="http://www.w3.org/2000/svg" xmlns:xlink="http://www.w3.org/1999/xlink">
	<desc>
			Created with Pixso.
	</desc>
	<defs/>
	<path id="Vector" d="M12.7612 10.1832L9.7948 7.48611C9.65457 7.35867 9.47031 7.29071 9.28091 7.29657C9.09152 7.30243 8.9118 7.38165 8.77972 7.51752L7.03345 9.31339C6.61313 9.23312 5.76807 8.96967 4.89822 8.10202C4.02838 7.23145 3.76492 6.38422 3.68686 5.96683L5.48129 4.21982C5.61731 4.08783 5.69666 3.90811 5.70251 3.71866C5.70837 3.52921 5.64029 3.34491 5.51266 3.20477L2.81628 0.239136C2.6886 0.0985413 2.51117 0.0132751 2.32162 0.00143433C2.13208 -0.010437 1.9454 0.052063 1.80121 0.175629L0.217682 1.53369C0.0914917 1.66031 0.0162048 1.82883 0.00604248 2.00726C-0.00491333 2.1897 -0.213623 6.5112 3.13736 9.86359C6.0607 12.7862 9.72253 13 10.731 13C10.8784 13 10.9689 12.9956 10.993 12.9942C11.1714 12.9842 11.3399 12.9085 11.4659 12.7818L12.8232 11.1976C12.9473 11.0538 13.0102 10.8673 12.9987 10.6778C12.9871 10.4883 12.9018 10.3108 12.7612 10.1832Z" fill="#FFBD54" fill-opacity="1.000000" fill-rule="nonzero"/>
</svg>
