<svg width="21.249023" height="21.000000" viewBox="0 0 21.249 21" fill="none" xmlns="http://www.w3.org/2000/svg" xmlns:xlink="http://www.w3.org/1999/xlink">
	<desc>
			Created with Pixso.
	</desc>
	<defs/>
	<path id="Vector" d="M16.0782 7.14526C16.0277 7.0249 15.9658 6.9115 15.8938 6.80627L16.9743 6.80627C18.0269 6.80627 18.8834 5.94983 18.8834 4.89722C18.8834 3.8446 18.0269 2.98816 16.9743 2.98816L13.6508 2.98816C13.8621 2.68091 13.9861 2.30933 13.9861 1.90906C13.9861 0.856445 13.1297 0 12.0771 0L1.90909 0C0.856445 0 0 0.856445 0 1.90906C0 2.96179 0.856445 3.81812 1.90909 3.81812L5.23254 3.81812C5.02127 4.12537 4.89722 4.49707 4.89722 4.89722C4.89722 5.29749 5.02124 5.66907 5.23254 5.97632L4.15018 5.97632C3.09753 5.97632 2.24109 6.83276 2.24109 7.88538C2.24109 8.48987 2.5239 9.02942 2.96387 9.37939C2.5239 9.72949 2.24109 10.2689 2.24109 10.8735C2.24109 11.478 2.5239 12.0176 2.96387 12.3676C2.5239 12.7177 2.24109 13.2571 2.24109 13.8616C2.24109 14.4662 2.5239 15.0056 2.96387 15.3557C2.5239 15.7057 2.24109 16.2452 2.24109 16.8497C2.24109 17.9025 3.09753 18.7589 4.15018 18.7589L9.0412 18.7589C10.3297 20.137 12.1626 21 14.1937 21C18.084 21 21.249 17.835 21.249 13.9447C21.249 10.7068 19.0565 7.9718 16.0782 7.14526ZM16.9743 3.81812C17.5693 3.81812 18.0533 4.30225 18.0533 4.89722C18.0533 5.49219 17.5693 5.97632 16.9743 5.97632L14.3181 5.97632L6.8063 5.97632C6.2113 5.97632 5.72726 5.49219 5.72726 4.89722C5.72726 4.30225 6.2113 3.81812 6.8063 3.81812L16.9743 3.81812ZM1.90909 2.98816C1.31409 2.98816 0.830048 2.50403 0.830048 1.90906C0.830048 1.31409 1.31409 0.830078 1.90909 0.830078L12.0771 0.830078C12.6721 0.830078 13.1561 1.31409 13.1561 1.90906C13.1561 2.50403 12.6721 2.98816 12.0771 2.98816L1.90909 2.98816ZM4.15018 6.80627L14.3181 6.80627C14.4853 6.80627 14.6454 6.84521 14.789 6.91467C14.5927 6.89819 14.3942 6.8894 14.1937 6.8894C12.2454 6.8894 10.4791 7.68323 9.20105 8.96436L4.15018 8.96436C3.55521 8.96436 3.07114 8.48035 3.07114 7.88538C3.07114 7.29041 3.55521 6.80627 4.15018 6.80627ZM4.15018 9.79443L8.49191 9.79443C8.02078 10.4399 7.65652 11.168 7.4252 11.9525L4.15018 11.9525C3.55518 11.9525 3.07114 11.4685 3.07114 10.8735C3.07114 10.2786 3.55518 9.79443 4.15018 9.79443ZM4.15018 12.7826L7.23462 12.7826C7.17166 13.1608 7.13837 13.5488 7.13837 13.9447C7.13837 14.2827 7.16281 14.6152 7.20901 14.9407L4.15018 14.9407C3.55518 14.9407 3.07114 14.4567 3.07114 13.8616C3.07114 13.2666 3.55518 12.7826 4.15018 12.7826ZM4.15018 17.9288C3.55518 17.9288 3.07114 17.4448 3.07114 16.8497C3.07114 16.2548 3.55518 15.7708 4.15018 15.7708L7.37845 15.7708C7.58786 16.5515 7.92807 17.2792 8.37421 17.9288L4.15018 17.9288ZM14.1937 20.1699C10.7611 20.1699 7.96841 17.3773 7.96841 13.9447C7.96841 10.5121 10.7611 7.71936 14.1937 7.71936C17.6263 7.71936 20.419 10.5121 20.419 13.9447C20.419 17.3773 17.6263 20.1699 14.1937 20.1699Z" fill="#FFFFFF" fill-opacity="1.000000" fill-rule="nonzero"/>
	<path id="Vector" d="M16.0133 7.00635C16.0366 7.05151 16.0583 7.0979 16.0782 7.14526C19.0565 7.9718 21.249 10.7068 21.249 13.9447C21.249 17.835 18.084 21 14.1937 21C12.1626 21 10.3297 20.137 9.0412 18.7589L4.15018 18.7589C3.09753 18.7589 2.24109 17.9025 2.24109 16.8497C2.24109 16.318 2.4599 15.8365 2.81204 15.4901C2.86023 15.4427 2.91089 15.3978 2.96387 15.3557C2.91089 15.3136 2.8602 15.2687 2.81201 15.2213C2.4599 14.8749 2.24109 14.3934 2.24109 13.8616C2.24109 13.3298 2.4599 12.8484 2.81204 12.502C2.8602 12.4546 2.91089 12.4097 2.96387 12.3676C2.91089 12.3254 2.8602 12.2805 2.81201 12.2332C2.4599 11.8867 2.24109 11.4053 2.24109 10.8735C2.24109 10.3417 2.4599 9.86023 2.81204 9.51379C2.8602 9.46643 2.91089 9.42151 2.96387 9.37939C2.91089 9.33728 2.8602 9.29236 2.81204 9.245C2.4599 8.89856 2.24109 8.41711 2.24109 7.88538C2.24109 6.83276 3.09753 5.97632 4.15018 5.97632L5.23254 5.97632C5.18854 5.91235 5.14832 5.84546 5.11221 5.77625C4.97495 5.51306 4.89722 5.21411 4.89722 4.89722C4.89722 4.58032 4.97498 4.28137 5.11224 4.01819C5.14835 3.94897 5.18857 3.8822 5.23254 3.81812L1.90909 3.81812C0.856445 3.81812 0 2.96179 0 1.90906C0 0.856445 0.856445 0 1.90909 0L12.0771 0C13.1297 0 13.9861 0.856445 13.9861 1.90906C13.9861 2.22595 13.9084 2.5249 13.7711 2.78809C13.735 2.85742 13.6948 2.92419 13.6508 2.98816L16.9743 2.98816C18.0269 2.98816 18.8834 3.8446 18.8834 4.89722C18.8834 5.94983 18.0269 6.80627 16.9743 6.80627L15.8938 6.80627C15.9374 6.87012 15.9774 6.93677 16.0133 7.00635ZM16.9743 6.60632L15.5146 6.60632L15.7288 6.91931Q15.7475 6.94666 15.7651 6.97461Q15.8392 7.09253 15.8938 7.22266L15.9313 7.31213L16.0247 7.33801Q16.5127 7.47339 16.9705 7.67688Q17.5224 7.92224 18.0304 8.2666Q18.4803 8.57166 18.8726 8.93835Q19.2783 9.31763 19.6222 9.76294Q20.0004 10.2528 20.2813 10.7932Q20.5078 11.2292 20.671 11.6982Q20.8327 12.1631 20.9252 12.6412Q21.049 13.281 21.049 13.9447Q21.049 14.7009 20.8899 15.4221Q20.756 16.0286 20.5095 16.6102Q20.2686 17.179 19.936 17.6877Q19.5493 18.2793 19.0388 18.7898Q18.5282 19.3003 17.9367 19.687Q17.4279 20.0195 16.8593 20.2605Q16.2775 20.507 15.671 20.6409Q14.9499 20.8 14.1937 20.8Q13.4131 20.8 12.6711 20.6309Q12.0313 20.485 11.4202 20.2135Q10.8264 19.9496 10.3013 19.5863Q9.69907 19.1697 9.18729 18.6223L9.12799 18.5588L4.15018 18.5588Q3.96045 18.5588 3.77963 18.5187Q3.62967 18.4854 3.48584 18.4244Q3.34518 18.3649 3.21918 18.2827Q3.07053 18.1859 2.94232 18.0576Q2.81412 17.9294 2.71725 17.7808Q2.63513 17.6548 2.57553 17.5142Q2.51459 17.3702 2.48126 17.2203Q2.4411 17.0396 2.4411 16.8497Q2.4411 16.6396 2.48993 16.4415Q2.53372 16.2639 2.61676 16.0959Q2.69727 15.9331 2.80725 15.7937Q2.92957 15.6385 3.08838 15.5122L3.2851 15.3557L3.08838 15.1992Q2.92957 15.0729 2.80725 14.9177Q2.69727 14.7782 2.61676 14.6155Q2.53372 14.4475 2.48993 14.2699Q2.4411 14.0718 2.4411 13.8616Q2.4411 13.6515 2.48993 13.4534Q2.53372 13.2758 2.61676 13.1078Q2.69727 12.9451 2.80725 12.8055Q2.92957 12.6504 3.08838 12.524L3.2851 12.3676L3.08838 12.2111Q2.92957 12.0847 2.80725 11.9296Q2.69727 11.79 2.61676 11.6273Q2.53372 11.4594 2.48993 11.2817Q2.4411 11.0836 2.4411 10.8735Q2.4411 10.6633 2.48993 10.4652Q2.53372 10.2876 2.61676 10.1196Q2.69727 9.95691 2.80725 9.81738Q2.92957 9.66223 3.08838 9.53589L3.2851 9.37939L3.08838 9.2229Q2.92957 9.09656 2.80725 8.94141Q2.69727 8.802 2.61676 8.63916Q2.53372 8.47119 2.48993 8.29358Q2.4411 8.09546 2.4411 7.88538Q2.4411 7.69568 2.48126 7.51477Q2.51459 7.36487 2.57553 7.22095Q2.63516 7.0802 2.71735 6.95422Q2.81418 6.80566 2.94232 6.67749Q3.07047 6.54932 3.21902 6.45251Q3.34509 6.37036 3.48584 6.31067Q3.62967 6.24976 3.77963 6.21643Q3.96045 6.17627 4.15018 6.17627L5.61288 6.17627L5.39734 5.86292Q5.24716 5.64465 5.17212 5.40295Q5.09723 5.16174 5.09723 4.89722Q5.09723 4.6333 5.17184 4.39246Q5.24689 4.15027 5.39734 3.93152L5.61285 3.61816L1.90909 3.61816Q1.71936 3.61816 1.53857 3.578Q1.38858 3.54468 1.24472 3.48376Q1.10397 3.42407 0.977936 3.34192Q0.829376 3.24512 0.701233 3.11694Q0.573059 2.98877 0.476227 2.84021Q0.394043 2.71423 0.334412 2.57349Q0.273468 2.42957 0.240173 2.27966Q0.200012 2.09888 0.200012 1.90906Q0.200012 1.71936 0.240173 1.53857Q0.273468 1.38855 0.334412 1.24475Q0.394043 1.104 0.476227 0.977905Q0.573059 0.829346 0.701233 0.701172Q0.829376 0.57312 0.977936 0.476196Q1.104 0.394043 1.24472 0.334473Q1.38858 0.273438 1.53854 0.240112Q1.71936 0.199951 1.90909 0.199951L12.0771 0.199951Q12.2668 0.199951 12.4476 0.240112Q12.5976 0.273438 12.7414 0.334473Q12.8822 0.394043 13.0082 0.476196Q13.1568 0.57312 13.2849 0.701172Q13.4131 0.829346 13.5099 0.977905Q13.5921 1.104 13.6517 1.24475Q13.7127 1.38855 13.746 1.53857Q13.7861 1.71936 13.7861 1.90906Q13.7861 2.1731 13.7115 2.41394Q13.6365 2.65601 13.486 2.87476L13.2705 3.18811L16.9743 3.18811Q17.164 3.18811 17.3448 3.22827Q17.4948 3.2616 17.6386 3.32251Q17.7793 3.3822 17.9053 3.46436Q18.054 3.56116 18.1821 3.68933Q18.3103 3.8175 18.4072 3.96606Q18.4893 4.09216 18.549 4.23291Q18.6099 4.37671 18.6432 4.52673Q18.6833 4.70752 18.6833 4.89722Q18.6833 5.08691 18.6432 5.26782Q18.6099 5.41772 18.549 5.56152Q18.4893 5.70227 18.4072 5.82837Q18.3103 5.97693 18.1821 6.1051Q18.054 6.23328 17.9053 6.3302Q17.7793 6.41223 17.6386 6.47192Q17.4948 6.53284 17.3449 6.56616Q17.164 6.60632 16.9743 6.60632ZM0.658905 1.63733Q0.630035 1.77002 0.630035 1.90906Q0.630035 2.0481 0.658905 2.18091Q0.68399 2.29614 0.730804 2.40674Q0.776398 2.5144 0.839569 2.61047Q0.911041 2.71924 1.005 2.81311Q1.09897 2.9071 1.20773 2.97864Q1.30383 3.04175 1.41144 3.0874Q1.52194 3.13416 1.63721 3.1593Q1.76999 3.18811 1.90909 3.18811L12.0771 3.18811Q12.2161 3.18811 12.3489 3.1593Q12.4642 3.13416 12.5747 3.0874Q12.6823 3.04175 12.7784 2.97864Q12.8871 2.9071 12.9811 2.81311Q13.0751 2.71924 13.1465 2.61047Q13.2097 2.5144 13.2553 2.40674Q13.3022 2.29614 13.3272 2.18091Q13.3561 2.0481 13.3561 1.90906Q13.3561 1.77002 13.3272 1.63721Q13.3022 1.52197 13.2553 1.4115Q13.2097 1.30383 13.1465 1.20776Q13.0751 1.099 12.9811 1.005Q12.8871 0.911011 12.7784 0.8396Q12.6823 0.776367 12.5747 0.730835Q12.4642 0.68396 12.3489 0.658936Q12.2161 0.630005 12.0771 0.630005L1.90909 0.630005Q1.76999 0.630005 1.63721 0.658936Q1.52194 0.68396 1.41144 0.730835Q1.30383 0.776367 1.20773 0.8396Q1.099 0.911011 1.005 1.005Q0.911041 1.099 0.839569 1.20776Q0.776398 1.30383 0.730804 1.4115Q0.68399 1.52197 0.658905 1.63733ZM1.90909 2.98816C1.31409 2.98816 0.830048 2.50403 0.830048 1.90906C0.830048 1.31409 1.31409 0.830078 1.90909 0.830078L12.0771 0.830078C12.6721 0.830078 13.1561 1.31409 13.1561 1.90906C13.1561 2.50403 12.6721 2.98816 12.0771 2.98816L1.90909 2.98816ZM18.2245 5.16895Q18.2533 5.03625 18.2533 4.89722Q18.2533 4.75818 18.2245 4.62549Q18.1994 4.51013 18.1526 4.39966Q18.1069 4.29187 18.0437 4.1958Q17.9723 4.08704 17.8784 3.99316Q17.7844 3.89917 17.6757 3.82776Q17.5796 3.76453 17.4719 3.71899Q17.3614 3.67212 17.2462 3.64709Q17.1134 3.61816 16.9743 3.61816L6.8063 3.61816Q6.66724 3.61816 6.53445 3.64709Q6.41919 3.67212 6.30865 3.71899Q6.20105 3.76453 6.10498 3.82764Q5.99622 3.89917 5.90222 3.99316Q5.80826 4.08716 5.73676 4.19592Q5.67361 4.29199 5.62802 4.39966Q5.58121 4.51013 5.55615 4.62537Q5.52725 4.75818 5.52725 4.89722Q5.52725 5.03625 5.55615 5.16907Q5.58121 5.2843 5.62802 5.3949Q5.67361 5.50244 5.73676 5.59851Q5.80826 5.70728 5.90222 5.80127Q5.99622 5.89526 6.10498 5.9668Q6.20105 6.02991 6.30865 6.07544Q6.41919 6.12231 6.53445 6.14734Q6.66724 6.17627 6.8063 6.17627L16.9743 6.17627Q17.1134 6.17627 17.2462 6.14734Q17.3614 6.12231 17.4719 6.07544Q17.5795 6.02991 17.6756 5.9668Q17.7844 5.89526 17.8784 5.80127Q17.9723 5.7074 18.0437 5.59875Q18.1069 5.50256 18.1526 5.3949Q18.1994 5.2843 18.2245 5.16895ZM16.9743 3.81812C17.5693 3.81812 18.0533 4.30225 18.0533 4.89722C18.0533 5.49219 17.5693 5.97632 16.9743 5.97632L6.8063 5.97632C6.2113 5.97632 5.72726 5.49219 5.72726 4.89722C5.72726 4.30225 6.2113 3.81812 6.8063 3.81812L16.9743 3.81812ZM14.5887 6.63501Q14.4565 6.60632 14.3181 6.60632L4.15018 6.60632Q4.01117 6.60632 3.87845 6.63513Q3.76312 6.66028 3.65256 6.70703Q3.54498 6.75269 3.44891 6.8158Q3.34012 6.88733 3.24612 6.98132Q3.15213 7.07532 3.08066 7.18408Q3.01752 7.28015 2.97192 7.3877Q2.92505 7.49829 2.89999 7.61365Q2.87115 7.74634 2.87115 7.88538Q2.87115 8.02441 2.89999 8.1571Q2.92508 8.27246 2.97192 8.38293Q3.01752 8.4906 3.08063 8.58667Q3.15213 8.69543 3.24612 8.78943Q3.34012 8.88342 3.44891 8.95496Q3.54498 9.01807 3.65256 9.0636Q3.76309 9.11047 3.87836 9.1355Q4.01114 9.16443 4.15018 9.16443L9.28403 9.16443L9.34265 9.10571Q9.85364 8.59338 10.446 8.20544Q10.955 7.87207 11.5242 7.63049Q12.1073 7.38306 12.7154 7.24878Q13.437 7.08936 14.1937 7.08936Q14.4785 7.08936 14.7723 7.11401L14.8762 6.73474Q14.7363 6.66699 14.5887 6.63501ZM14.789 6.91467C14.5927 6.89819 14.3942 6.8894 14.1937 6.8894C13.7556 6.8894 13.3266 6.92944 12.9104 7.00635C11.4757 7.271 10.1917 7.97131 9.20105 8.96436L4.15018 8.96436C3.55521 8.96436 3.07114 8.48035 3.07114 7.88538C3.07114 7.29041 3.55521 6.80627 4.15018 6.80627L14.3181 6.80627C14.4853 6.80627 14.6454 6.84521 14.789 6.91467ZM7.91623 12.5663Q7.7684 13.2393 7.7684 13.9447Q7.7684 14.6501 7.91623 15.3231Q8.04187 15.895 8.27423 16.4435Q8.50116 16.9791 8.81473 17.4579Q9.17603 18.0096 9.6524 18.486Q10.1289 18.9625 10.6808 19.3239Q11.1595 19.6373 11.6948 19.8641Q12.2433 20.0966 12.8153 20.2222Q13.4883 20.37 14.1937 20.37Q14.8991 20.37 15.5721 20.2222Q16.144 20.0966 16.6926 19.8641Q17.2281 19.6372 17.7069 19.3237Q18.2586 18.9624 18.735 18.486Q19.2114 18.0095 19.5728 17.4578Q19.8863 16.979 20.1131 16.4435Q20.3456 15.895 20.4712 15.323Q20.619 14.65 20.619 13.9447Q20.619 13.2391 20.4711 12.5662Q20.3455 11.9943 20.1131 11.4458Q19.8862 10.9102 19.5725 10.4313Q19.2113 9.87964 18.735 9.40332Q18.2585 8.92688 17.7065 8.56543Q17.2279 8.25208 16.6926 8.02527Q16.1441 7.79285 15.5723 7.66724Q14.8992 7.51941 14.1937 7.51941Q13.4884 7.51941 12.8155 7.66711Q12.2434 7.79272 11.6948 8.02527Q11.1595 8.25208 10.6808 8.56543Q10.1289 8.92688 9.6524 9.40332Q9.17596 9.87976 8.81461 10.4316Q8.5011 10.9104 8.27423 11.4458Q8.04184 11.9943 7.91623 12.5663ZM14.1937 20.1699C10.7611 20.1699 7.96841 17.3773 7.96841 13.9447C7.96841 10.5121 10.7611 7.71936 14.1937 7.71936C17.6263 7.71936 20.419 10.5121 20.419 13.9447C20.419 17.3773 17.6263 20.1699 14.1937 20.1699ZM7.99664 11.0139Q8.27036 10.4373 8.65344 9.91235L8.8855 9.59448L4.15018 9.59448Q4.01108 9.59448 3.87827 9.62329Q3.76303 9.64844 3.65256 9.69519Q3.54495 9.74084 3.44888 9.80396Q3.34009 9.87549 3.24612 9.96948Q3.15213 10.0634 3.08066 10.1721Q3.01752 10.2683 2.97192 10.3759Q2.92508 10.4865 2.89999 10.6017Q2.87115 10.7345 2.87115 10.8735Q2.87115 11.0126 2.90005 11.1455Q2.92511 11.2606 2.97192 11.3711Q3.01752 11.4788 3.08069 11.5748Q3.15216 11.6836 3.24612 11.7776Q3.34006 11.8716 3.44879 11.943Q3.54489 12.0061 3.65256 12.0518Q3.763 12.0985 3.87814 12.1237Q4.01102 12.1526 4.15018 12.1526L7.57474 12.1526L7.61703 12.0092Q7.76901 11.4935 7.99664 11.0139ZM8.24603 9.79443L4.15018 9.79443C3.55518 9.79443 3.07114 10.2786 3.07114 10.8735C3.07114 11.4685 3.55518 11.9525 4.15018 11.9525L7.4252 11.9525C7.63293 11.2479 7.94788 10.589 8.35117 9.99451C8.39694 9.92688 8.44388 9.86023 8.49191 9.79443L8.24603 9.79443ZM7.35043 13.538Q7.37195 13.1755 7.43188 12.8154L7.47064 12.5826L4.15018 12.5826Q4.01102 12.5826 3.87814 12.6115Q3.763 12.6366 3.65256 12.6833Q3.54489 12.729 3.44879 12.7921Q3.34006 12.8636 3.24612 12.9575Q3.15213 13.0515 3.08066 13.1603Q3.01752 13.2563 2.97192 13.364Q2.92511 13.4745 2.90005 13.5897Q2.87115 13.7225 2.87115 13.8616Q2.87115 14.0007 2.90005 14.1335Q2.92511 14.2488 2.97192 14.3593Q3.01752 14.4669 3.08069 14.563Q3.15216 14.6718 3.24612 14.7657Q3.34009 14.8597 3.44885 14.9312Q3.54495 14.9943 3.65256 15.0399Q3.76303 15.0867 3.87823 15.1118Q4.01108 15.1406 4.15018 15.1406L7.43939 15.1406L7.40701 14.9126Q7.34094 14.4469 7.33847 13.981Q7.33838 13.9629 7.33838 13.9447Q7.33838 13.741 7.35043 13.538ZM7.03192 12.7826L4.15018 12.7826C3.55518 12.7826 3.07114 13.2666 3.07114 13.8616C3.07114 14.4567 3.55518 14.9407 4.15018 14.9407L7.20901 14.9407C7.19958 14.8743 7.19107 14.8076 7.18347 14.7407C7.15387 14.4794 7.13837 14.2139 7.13837 13.9447C7.13837 13.6183 7.16101 13.2972 7.20422 12.9825C7.21344 12.9156 7.22357 12.849 7.23462 12.7826L7.03192 12.7826ZM2.90005 16.5778Q2.87115 16.7107 2.87115 16.8497Q2.87115 16.9889 2.90005 17.1217Q2.92511 17.2369 2.97192 17.3474Q3.01755 17.4551 3.08075 17.5513Q3.15219 17.6599 3.24612 17.7539Q3.34006 17.8478 3.44879 17.9193Q3.54489 17.9824 3.65256 18.0281Q3.76309 18.0748 3.87836 18.1Q4.01114 18.1288 4.15018 18.1288L8.75418 18.1288L8.53909 17.8156Q8.17947 17.292 7.92581 16.7213Q7.7106 16.2371 7.57162 15.7189L7.53189 15.5707L4.15018 15.5707Q4.01108 15.5707 3.87823 15.5996Q3.76303 15.6246 3.65256 15.6715Q3.54492 15.717 3.44885 15.7803Q3.34009 15.8517 3.24612 15.9457Q3.15216 16.0397 3.08072 16.1483Q3.01752 16.2445 2.97192 16.3522Q2.92511 16.4626 2.90005 16.5778ZM4.15018 17.9288C3.55518 17.9288 3.07114 17.4448 3.07114 16.8497C3.07114 16.2548 3.55518 15.7708 4.15018 15.7708L7.37845 15.7708C7.56665 16.4723 7.86041 17.131 8.24179 17.7288C8.28482 17.7963 8.32898 17.8629 8.37421 17.9288L4.15018 17.9288Z" fill="#FFFFFF" fill-opacity="1.000000" fill-rule="evenodd"/>
</svg>
