<svg width="49.609375" height="41.210938" viewBox="0 0 49.6094 41.2109" fill="none" xmlns="http://www.w3.org/2000/svg" xmlns:xlink="http://www.w3.org/1999/xlink">
	<desc>
			Created with Pixso.
	</desc>
	<defs/>
	<path id="“" d="M0 8.0078L4.98047 1.22069Q8.00781 -1.52588e-05 10.791 -7.62939e-06Q12.4024 -7.62939e-06 14.3066 0.683586Q16.2109 1.41601 17.8223 2.68554Q19.3848 4.0039 20.5078 6.00585Q21.582 8.0078 21.582 10.5957Q21.582 13.623 20.9961 16.7969Q20.4102 20.0195 18.7012 23.7793Q16.9922 27.5879 13.916 31.7871Q10.791 35.9863 5.81055 41.0156Q5.17578 41.0156 4.6875 41.1133Q4.19922 41.2109 3.80859 41.2109Q0.390625 41.2109 0 38.2324Q0.195312 37.4023 1.12305 35.791Q2.00195 34.2285 3.125 32.6172Q4.19922 31.0058 5.12695 29.6875Q6.00586 28.418 6.20117 28.2226Q8.39844 24.2187 9.17969 19.1894L8.20312 19.1894Q6.98242 19.1894 5.71289 18.8965Q4.39453 18.6035 3.22266 17.3828Q2.00195 16.2109 1.12305 14.0137Q0.195312 11.8164 0 8.0078ZM27.9785 8.0078L33.0078 1.2207Q35.9863 -7.62939e-06 38.8184 -7.62939e-06Q40.3809 -7.62939e-06 42.2852 0.683586Q44.1895 1.41601 45.8008 2.68554Q47.4121 4.0039 48.5352 6.00585Q49.6094 8.0078 49.6094 10.5957Q49.6094 13.623 49.0234 16.7969Q48.3887 20.0195 46.7285 23.7793Q45.0195 27.5879 41.9434 31.7871Q38.8184 35.9863 33.7891 41.0156Q33.2031 41.0156 32.7148 41.1133Q32.1777 41.2109 31.7871 41.2109Q28.418 41.2109 27.9785 38.2324Q28.2227 37.4023 29.1016 35.791Q29.9805 34.2285 31.1035 32.6172Q32.1777 31.0059 33.1055 29.6875Q33.9844 28.418 34.1797 28.2226Q36.377 24.2187 37.207 19.1894L36.1816 19.1894Q35.0098 19.1894 33.7402 18.8965Q32.4219 18.6035 31.2012 17.3828Q29.9805 16.2109 29.1016 14.0137Q28.2227 11.8164 27.9785 8.0078Z" fill="#DBDBDB" fill-opacity="1.000000" fill-rule="evenodd"/>
</svg>
