<svg width="49.609375" height="41.210938" viewBox="0 0 49.6094 41.2109" fill="none" xmlns="http://www.w3.org/2000/svg" xmlns:xlink="http://www.w3.org/1999/xlink">
	<desc>
			Created with Pixso.
	</desc>
	<defs/>
	<path id="“" d="M49.6094 33.2031L44.6289 39.9902Q41.6016 41.2109 38.8184 41.2109Q37.207 41.2109 35.3027 40.5273Q33.3984 39.7949 31.7871 38.5254Q30.2246 37.207 29.1016 35.2051Q28.0273 33.2031 28.0273 30.6152Q28.0273 27.5879 28.6133 24.4141Q29.1992 21.1914 30.9082 17.4316Q32.6172 13.623 35.6934 9.42383Q38.8184 5.22461 43.7988 0.195312Q44.4336 0.195312 44.9219 0.0976562Q45.4102 0 45.8008 0Q49.2188 0 49.6094 2.97852Q49.4141 3.80859 48.4863 5.41992Q47.6074 6.98242 46.4844 8.59375Q45.4102 10.2051 44.4824 11.5234Q43.6035 12.793 43.4082 12.9883Q41.2109 16.9922 40.4297 22.0215L41.4062 22.0215Q42.627 22.0215 43.8965 22.3145Q45.2148 22.6074 46.3867 23.8281Q47.6074 25 48.4863 27.1973Q49.4141 29.3945 49.6094 33.2031ZM21.6309 33.2031L16.6016 39.9902Q13.623 41.2109 10.791 41.2109Q9.22852 41.2109 7.32422 40.5273Q5.41992 39.7949 3.80859 38.5254Q2.19727 37.207 1.07422 35.2051Q0 33.2031 0 30.6152Q0 27.5879 0.585938 24.4141Q1.2207 21.1914 2.88086 17.4316Q4.58984 13.623 7.66602 9.42383Q10.791 5.22461 15.8203 0.195312Q16.4062 0.195312 16.8945 0.0976562Q17.4316 0 17.8223 0Q21.1914 0 21.6309 2.97852Q21.3867 3.80859 20.5078 5.41992Q19.6289 6.98242 18.5059 8.59375Q17.4316 10.2051 16.5039 11.5234Q15.625 12.793 15.4297 12.9883Q13.2324 16.9922 12.4023 22.0215L13.4277 22.0215Q14.5996 22.0215 15.8691 22.3145Q17.1875 22.6074 18.4082 23.8281Q19.6289 25 20.5078 27.1973Q21.3867 29.3945 21.6309 33.2031Z" fill="#DBDBDB" fill-opacity="1.000000" fill-rule="evenodd"/>
</svg>
